<?xml version="1.0" encoding="utf-8"?>
<!-- Generator: Adobe Illustrator 24.0.1, SVG Export Plug-In . SVG Version: 6.00 Build 0)  -->
<svg version="1.1" id="Layer_1" xmlns="http://www.w3.org/2000/svg" xmlns:xlink="http://www.w3.org/1999/xlink" x="0px" y="0px"
	 viewBox="0 0 1360 1020" style="enable-background:new 0 0 1360 1020;" xml:space="preserve">
<style type="text/css">
	.st0{fill:#F7FAFF;}
	.st1{fill:#D5E3FE;}
	.st2{fill:#A2C4FC;}
	.st3{fill:#222C70;}
	.st4{fill:#E94A47;}
</style>
<g id="_x23_f7faffff">
	<path class="st0" d="M600.9,125.2c79.2-17.1,163.6-8.9,238,23.2c31.6,13.5,61.4,31.3,88.4,52.5c37.6,29.6,70,66,94.2,107.3
		c-8.8,2.8-18.2,7.2-22.4,15.9c-2.7,5.2-1.4,11.1-0.2,16.5l-0.2,1.5c-1.4-1.9-3.8-3.9-6.2-2.5c-4.2,2.7-1.6,10.5,3.3,10.2
		c1-0.5,2-1,3.1-1.6c-0.5,2.3-1,4.7-1.4,7c2.2,0.7,4.6,1.3,6.7,2.5c2.3,1.6,4.1,3.9,6.4,5.6c2.7,2,6,2.9,9.1,3.9c0,1.3,0,2.7-0.1,4
		c-5.9,2.2-8.2,8.5-11.2,13.5c-9.6,8.4-16.7,19.1-24.8,28.8c-11.6-13.3-23.1-26.6-34.7-39.9c-7.2,6.2-14.2,12.5-21.4,18.6
		c-0.5-2.6-0.1-5.7-2.1-7.7c-1.2-1.4-3-0.2-4.5,0c-0.2,3.7-0.6,7.4-1.1,11.1c-2.1-0.6-4.1-1.8-6.3-1.5c-2.7,3.1-4.5,7-7.2,10.1
		c-2.2,2.8-5.1,4.9-7.1,7.8c0.2,1.3,0.6,2.6,1,3.9c-2.5,2.4-5.1,4.6-7.7,6.8c4,4.6,8,9.1,11.9,13.8c0.5,7.5,2.7,14.8,5.1,22
		c2.5,6.6,5.5,13.3,11,18c7.4,5.7,16.9,6.9,25.8,8.2c0.3,0.3,1,0.9,1.3,1.2c-0.5,2.6-0.8,5.1-1.2,7.7c8.2-0.3,16.5-1.6,24.7-0.9
		c7.7,0.6,15.5,0.9,23.1,2.8c0.3,0.4,1,1.2,1.4,1.6c-2.8-0.2-5.7-0.5-8.5-0.9c-9.9-1.6-20-1.6-30-1.2c-3.9,0-7.7,0.3-11.5,1.1
		c-0.4,2.8-0.8,5.7-1.2,8.5c6.3-2.8,12.8-5.4,19.7-5.9c6.7-0.5,13.4-0.1,20.1-0.2c3.6,0,7.4-0.3,10.6,1.5c-3.5,2.8-7.9,2.4-11.9,1.4
		c0.1,0.9,0.2,2.8,0.2,3.7c-12.6-2.5-26.3-3.6-38.5,1.3c-1.5,6.4-1.2,13-1.6,19.4c-1.5,45.3,8.5,89.9,19.6,133.6
		c1.1,4,1.6,8.4,4.2,11.7c2.1,1,4.6,0.3,6.8,0.1c0.2,11.9-0.3,23.8-0.2,35.7c1.5,20.4,5.9,40.4,9.6,60.4
		c-41.3,48.3-94.6,86.4-153.7,109.8c-40.4,16.1-83.5,25.4-127,27.5c-59.8,2.9-120.2-8.1-175.1-31.9c-0.7-0.3-1.9-1-2.6-1.3
		c10.1-0.2,20.1,0.1,30.2-0.3c-3.9-8.8-9.8-16.7-13.3-25.8c6,2.1,12.2,3.7,18.6,3.6c82,0,164,0,246,0c14,0.1,28-6.5,36.5-17.7
		c6.6-8.3,9.8-19,9.6-29.6c0-158,0.1-316-0.1-473.9c1.9,0,3.8,0,5.7-0.1c0.1-14.4,0-28.8,0-43.3c-1.9,0-3.9,0-5.8,0
		c0.1-28.2,0-56.5,0.1-84.7c0-6.7-0.6-13.6-3.2-19.9c-6.4-16.5-23.1-28.4-40.9-28.8c-16.6-0.2-33.1,0.1-49.7-0.1
		c-8.4-0.7-16.9-0.3-25.3-0.4c-57.4,0-114.7,0-172,0c-12.8,0.1-25.8,5.2-34.6,14.6c-8.8,8.7-13.1,21.3-12.7,33.6
		c0.3,11-0.5,22,0.4,32.9c-1.7-0.1-3.4-0.1-5.2-0.1c0,8.1-0.1,16.1,0.1,24.2c1.7,0,3.4,0,5,0c-0.4,9.5-1,19.2,0.4,28.7
		c-1.9,0-3.7,0-5.5,0.1c0,14.4-0.1,28.9,0,43.3c1.7,0,3.4,0,5-0.1c-0.5,4.4-0.5,8.8-0.1,13.1c-1.7-0.1-3.3-0.1-5-0.1
		c-0.1,14.4,0,28.8,0,43.3c1.8,0,3.7,0,5.5,0.1c-0.4,2.2-0.8,4.4-0.8,6.6c0.2,56.7,0,113.4,0,170.1c0.1,12.7-0.2,25.4,0.2,38.1
		c-0.1,65.8,0.2,131.6-0.1,197.4c-23.4-43-47.1-85.8-70.6-128.7c-0.9-1.8-1.1-3.9-1.1-5.9c0.1-54,0-108,0-162c-0.1-33,0.3-66-0.2-99
		c-17-0.6-33.9,0.1-50.9-0.1c-21,0.2-42-0.3-63.1,0.1c-0.5,87.4,0,174.8-0.2,262.2c0,3.5-2.6,6.1-4,9c-13.7-29.5-23-61.1-28.7-93.1
		c-5-29-7-58.6-5.3-88.1c2.1-44.6,12.1-88.9,29.1-130.2c18.8-45.9,46.5-88.1,80.9-123.8C453.7,180.8,524.7,141.3,600.9,125.2
		 M415,245.4c-3.6,7.2-6.8,14.6-9.8,22c7.1,3.7,14.5,6.8,21.9,9.8c3.8-7.1,6.9-14.5,9.8-22C429.8,251.7,422.5,248.4,415,245.4
		 M372.4,304c-6.9,8.6-13.8,17.1-20.1,26.1c7.6,6.7,15.7,12.7,23.8,18.7c0.9,0.5,2.4,2.2,3.3,0.7c7-8,13.5-16.5,19.5-25.2
		C390.4,317.1,381.9,309.9,372.4,304 M405.5,367.3c2.7,3.2,5.6,6.2,8.6,9.2c3.1-2.8,6.2-5.6,9.1-8.6c-2.7-3.1-5.6-6.1-8.5-9
		C411.5,361.5,408.6,364.4,405.5,367.3z"/>
	<path class="st0" d="M624.9,185.6c1.2-0.8,2.5-1.5,3.7-2.3c1.3,1.2,2.6,2.4,3.8,3.7c1.2,1.4,2.3,2.8,3.4,4.3
		c-2.6,2.2-5.1,4.4-7.1,7.1c-2.2-0.8-3.6-2.6-5-4.3c1.6-1.4,3-2.8,4.5-4.2C627,188.4,626,187,624.9,185.6z"/>
	<path class="st0" d="M527.5,230.4c46.9-0.2,93.8,0.1,140.6-0.1c56.8,0,113.7-0.1,170.5,0c0,180.2,0,360.4,0,540.6
		c-103.7,0.1-207.5,0.1-311.2,0c0-63.9,0.1-127.9,0-191.8C527.6,462.8,527.4,346.6,527.5,230.4 M629.8,368.6
		c-1.6,24.5-1.5,49,0,73.5c-24.5-2-49-1.5-73.5,0c-1.6,35.6-1.6,71.3,0,106.9c24.4,2,49.1,2.5,73.5,0c-1.3,24.5-0.9,49,0,73.5
		c35.6,1.9,71.4,1.7,107,0.1c1-24.5,0.8-49,0-73.6c24.4,1.9,49,1.5,73.4,0c1.9-35.6,2-71.3,0.1-106.9c-24.5-1.2-49-1.6-73.5-0.1
		c1.2-24.5,1.5-49,0-73.5C701.2,366.9,665.4,366.7,629.8,368.6z"/>
	<path class="st0" d="M993.3,340.2c4.8-1.5,7.7,7.5,2.7,8.9C991.6,349.4,989.2,342.1,993.3,340.2z"/>
	<path class="st0" d="M1041.4,363.9c2.5-0.3,5-0.8,7.4-1.6c1.9,4,3.4,8.2,4.4,12.5c-1.7-0.6-3.4-1.1-5-1.7c-0.5-4.1-3.6-7.4-7.8-7.9
		C1040.6,364.9,1041.1,364.3,1041.4,363.9z"/>
	<path class="st0" d="M1040.3,366.3l0.5,0.2c3.3,0.8,5.7,3.4,6.2,6.8c-2.2-0.3-4.3-0.6-6.4-0.9
		C1040.5,370.4,1040.4,368.3,1040.3,366.3z"/>
	<path class="st0" d="M1013.1,384.3c1.6-1.2,3.2-2.3,4.8-3.5c1.4,1.6,2.7,3.3,3.9,5c-1.7,1.3-3.3,2.6-5,3.8
		C1015.4,388,1014.2,386.2,1013.1,384.3z"/>
	<path class="st0" d="M998.2,405.2c1.4-2.2,4-2.6,6.3-3c-0.2,2.4-0.4,4.8-0.3,7.3C1001.2,411.1,998.2,408.1,998.2,405.2z"/>
	<path class="st0" d="M982.2,429.9c1.5-1.2,2.8-3,4.8-3.4c1.6,1.1,3.3,2.6,3.5,4.6c-1,1.8-3,2.7-4.6,3.9
		C984.6,433.3,983.4,431.6,982.2,429.9z"/>
	<path class="st0" d="M1060.3,467.3c4.4-10.2,6.5-21.1,10.1-31.5c7.4,36.7,9,74.6,5.7,111.9c-2.1,20.3-5.2,40.6-10.6,60.3
		c-4.5-7.7-7.1-16.3-11.2-24.3c-5.2-10.4-10.2-21-16.1-31c-4.3-7.3-8.5-14.7-12.9-22c-0.8-1.8-2.5-3.9-1.5-6
		c2.5-5.6,5.5-11,8.5-16.3c2.9,3,5.3,6.4,7.7,9.8C1047.8,501.7,1054.2,484.5,1060.3,467.3z"/>
	<path class="st0" d="M969.4,458.8c1.5-1.5,3.1-2.8,4.7-4.1c1.5,1.7,2.8,3.4,4.1,5.2c-1.7,1.3-3.4,2.5-5.2,3.7
		C971.8,462,970.6,460.4,969.4,458.8z"/>
	<path class="st0" d="M999.3,498.9c0.5-0.8,1-1.5,1.5-2.3c2.2,0.8,4.4,1.5,6.6,2.2c-0.2,1.5-0.4,3-0.5,4.5
		C1004.2,501.9,1001.7,500.5,999.3,498.9z"/>
	<path class="st0" d="M987.8,505.6l1.1-0.6c6,0.1,12.3,0.2,17.8,3C1000.3,508.5,994,507.1,987.8,505.6z"/>
	<path class="st0" d="M950.2,527c1.6-1.2,2.8-3.3,4.9-3.5c1.8,1,2.7,2.9,3.9,4.5c-1.6,1.1-2.8,3.4-4.9,3.5
		C952.2,530.5,951.3,528.6,950.2,527z"/>
	<path class="st0" d="M998.5,561.6c9.7-0.7,19.6,0.4,29.2-1.4c1.6,5.8,0.6,11.8,1.3,17.7c1.2,8,0.2,16,1.6,24
		c-0.3,8.6,1.4,17.1,1.1,25.8c-6.6-0.1-13.2-0.2-19.7,0.8c-8.2,0.1-16.3,1.2-24.5,2.3c-1-4.9-1.2-9.8-1.3-14.8
		c-1.9-17.8-2.2-35.9-4.9-53.6C987.1,562.2,992.8,562.5,998.5,561.6z"/>
	<path class="st0" d="M951.9,567.2c1.7-1.2,3.3-2.3,5-3.4c1.3,1.5,2.6,2.9,3.9,4.4c-1.6,1.5-3.1,2.9-4.8,4.3
		C954.5,570.8,953.1,569,951.9,567.2z"/>
	<path class="st0" d="M351.9,649c2.7-1.1,5.4-2.2,8.2-3.3c1.1,2.7,2.2,5.4,3.4,8.1c-2.7,1.1-5.4,2.2-8.2,3.3
		C354.2,654.4,353,651.7,351.9,649z"/>
	<path class="st0" d="M1036.3,656.8c5-1.4,10-2.8,15.1-4c-4.3,11.2-9.1,22.2-14.4,32.9C1035.2,676.1,1035.7,666.4,1036.3,656.8z"/>
	<path class="st0" d="M391.7,782c3.5-4.2,7.1-8.3,10.6-12.5c4.2,3.5,8.4,7.1,12.5,10.7c-3.5,4.1-7.1,8.3-10.7,12.4
		C400,789.1,395.9,785.5,391.7,782z"/>
	<path class="st0" d="M365.9,780c2.7-1.1,5.4-2.2,8.2-3.3c1.1,2.7,2.2,5.4,3.4,8.1c-2.7,1.1-5.5,2.2-8.2,3.3
		C368.2,785.5,367,782.8,365.9,780z"/>
	<path class="st0" d="M363.4,808.5c4.6,0,9.2-0.1,13.8,0.1c0,4.5,0,9.1,0,13.6c-4.6,0-9.2,0.1-13.8-0.1
		C363.4,817.5,363.4,813,363.4,808.5z"/>
	<path class="st0" d="M428,822.1c4.6,0,9.2,0,13.7,0c0,4.6,0,9.1,0,13.7c-4.6,0-9.2,0-13.8,0C428,831.3,428,826.7,428,822.1z"/>
</g>
<g id="_x23_d5e3feff">
	<path class="st1" d="M526.4,165.4c8.8-9.5,21.7-14.6,34.6-14.6c57.3,0,114.7,0,172,0c8.4,0.1,16.9-0.3,25.3,0.4
		c-15,9.9-29.6,20.2-43.3,31.8c-2.1,2-4.9,3.1-7.7,3.3c-11.2,1.3-22.3,2.7-33.5,4.1c-5.1,0.7-10.4-0.4-15.5,0.8
		c-4.1,2.3-1.2,7.8-1.5,11.4c13.8-0.7,27.3-3.7,41.1-4.3c-10.3,10.3-21.3,20.1-29.8,32.1c-46.9,0.2-93.8,0-140.6,0.1
		c-0.1,116.2,0.1,232.5-0.1,348.7c-5.4,6-9,13.4-13.4,20.1c-0.4-12.7-0.1-25.4-0.2-38.1c0-56.7,0.1-113.4,0-170.1
		c0.1-2.2,0.5-4.4,0.8-6.6c1-14.3,0.1-28.7,0.4-43.1l-0.9-0.2c-0.5-4.4-0.4-8.8,0.1-13.1l0.8-0.3c0-12.2,0-24.4,0-36.6
		c0-2.1-0.1-4.2-0.4-6.3c-1.5-9.5-0.8-19.1-0.4-28.7l0.8-0.4c0-7.8,0-15.5,0-23.3l-0.8-0.4c-0.9-10.9-0.2-21.9-0.4-32.9
		C513.3,186.7,517.6,174.1,526.4,165.4 M624.9,185.6c-0.5-0.6-1.4-1.7-1.8-2.3c-2.3,1.9-4.5,3.9-6.3,6.3c1.7,1.8,3.4,3.7,5.4,5.3
		c0.3-0.2,1-0.6,1.4-0.9c1.4,1.7,2.8,3.6,5,4.3c-0.3,0.4-0.8,1.1-1.1,1.5c2.4,1.9,5.2,4.2,8.5,3.3c3.6-1,7-4.2,6.6-8.2
		c0.5-5.2-5.5-9.5-10.3-8c-1.2-1.3-2.5-2.5-3.8-3.7C627.3,184.1,626.1,184.8,624.9,185.6z"/>
	<path class="st1" d="M927.3,200.9c35-14.8,74.6-18.6,111.8-10.8c41.4,8.6,79.7,31.6,106.6,64.2c23.6,28.4,38.6,63.9,42.4,100.6
		c4.1,38-3.8,77.2-22.3,110.7c-19.8,36.2-51.8,65.6-89.7,81.9c3.3-37.3,1.8-75.2-5.7-111.9c-3.6,10.4-5.7,21.4-10.1,31.5
		c-0.1-0.6-0.4-1.7-0.5-2.2c-7.9,7-15.9,14-23.8,21.1c-4.8,4.4-10.6,7.9-14.2,13.4c3.6,2.8,7.3,5.6,10.4,8.9
		c-3.1,5.3-6,10.7-8.5,16.3c-1,2.1,0.7,4.1,1.5,6c4.3,7.3,8.6,14.7,12.9,22c5.9,10,10.9,20.6,16.1,31c4.1,7.9,6.6,16.6,11.2,24.3
		c0.1,2.5,1.3,4.8,2.2,7.1c3.8,9.9,7.2,20,10.3,30.1c-8.8,2.5-17.6,5.1-26.5,7.5c-5.1,1.2-10.1,2.6-15.1,4
		c-20.8,5.4-41.7,10.3-62.8,14.6c-2.2,0.2-4.7,0.8-6.8-0.1c-2.6-3.3-3.1-7.7-4.2-11.7c-11.1-43.6-21.1-88.3-19.6-133.6
		c0.4-6.5,0.1-13.1,1.6-19.4c12.2-4.9,25.9-3.9,38.5-1.3c0.1,0.4,0.2,1.3,0.2,1.8c0.7,0,2.1,0,2.8,0c0.6-0.5,1.2-0.9,1.8-1.4
		c6.2,1.5,12.5,2.9,18.9,2.4c-5.4-2.7-11.8-2.9-17.8-3c3.1-1.5,6.2-3,9-5c2.6,2.1,5.6,3.8,8.7,5c0-0.4,0.1-1.3,0.2-1.7
		c0.2-1.5,0.3-3,0.5-4.5c-2.2-0.8-4.4-1.5-6.6-2.2c4.6-6.8,5.3-15.2,5.5-23.1c0.1-3.6,0.7-7.8-1.9-10.8c-1.6-2.2-4.4-2.8-6.9-3.6
		c-1.1-13.9-0.3-29.2,8.1-40.9c3.3,7.3,10.5,13.4,10.1,21.9c0,3.3-4.7,3.3-5.5,6.2c-1.5,3.4,1.1,7.8,4.9,8c3.8,0.6,7.3-3.5,6.2-7.2
		c-0.4-2.4-2.8-3.5-4.6-4.7c1.9-10-6.6-16.9-10-25.3c7.7-8.5,16.7-15.8,26.1-22.3c7.2-5.2,14.9-12.1,15.4-21.6
		c1.7,0.6,3.3,1.1,5,1.7c-1-4.3-2.6-8.5-4.4-12.5c9.4-3.2,18.6-8.1,24.9-15.8c0.5-0.3,1.5-0.8,2-1.1c-1.3-5-5.6-8.5-10.3-10
		c-0.3,0.3-0.8,1-1.1,1.3c-0.9-0.6-1.9-1.1-2.7-1.8c0.1-0.2,0.3-0.6,0.4-0.8c-0.3-1.6-2.4-2.3-3.5-3.6c-4.2-4.1-6-10-9.3-14.7
		c-6.5-7.9-18-10.8-27.6-7.6C997.3,266.9,964.9,230.5,927.3,200.9 M950.2,527c1.1,1.6,2,3.6,3.9,4.5c2.1,0,3.3-2.3,4.9-3.5
		c-1.1-1.6-2-3.6-3.9-4.5C953,523.7,951.7,525.8,950.2,527 M998.5,561.6c-5.7,0.9-11.4,0.6-17.1,0.7c2.7,17.8,3,35.8,4.9,53.6
		c0.1,5,0.3,9.9,1.3,14.8c8.1-1.1,16.3-2.2,24.5-2.3c6.5-1,13.1-0.8,19.7-0.8c0.3-8.6-1.4-17.1-1.1-25.8c-1.4-7.9-0.4-16-1.6-24
		c-0.7-5.9,0.3-11.9-1.3-17.7C1018,562,1008.2,560.9,998.5,561.6 M951.9,567.2c1.3,1.8,2.7,3.6,4.2,5.3c1.6-1.4,3.2-2.8,4.8-4.3
		c-1.3-1.5-2.6-3-3.9-4.4C955.2,564.9,953.5,566,951.9,567.2z"/>
	<path class="st1" d="M205.3,251.3c23.5-25.3,56.3-41.5,90.7-44.9c36.8-3.8,74.8,7.4,103.7,30.5c-34.4,35.8-62.1,77.9-80.9,123.8
		c-17,41.3-27.1,85.5-29.1,130.2l-0.5,0.4c-45.9-6.1-87.5-36.8-107.7-78.4c-12.9-26.1-17.6-56.1-13.2-84.9
		C172.4,299.5,185.5,272.3,205.3,251.3z"/>
	<path class="st1" d="M998.9,340.5c0.4-3.8,1-7.6,1.9-11.3c2.4,5.1,7.1,8.9,12.5,10.3c5.8,1.7,13.1,1.8,16.4,7.8
		c4.3,5.9,3.5,13.4,1.5,19.9c2.9-3.4,2.4-8.1,3.2-12.3c0.5,3.4-0.5,7.2,1.1,10.3c0.9-0.2,2.6-0.6,3.5-0.8c0.4,0.6,0.8,1.2,1.2,1.8
		c0.1,2,0.2,4.1,0.3,6.1c2.1,0.3,4.2,0.6,6.4,0.9c-0.7,9.4-8.5,16-15.7,21.1c-9.1,6.2-17.6,13.3-25.2,21.3
		c-1.6-8.2-0.3-16.6,1.5-24.6c1.9-7.6,6.4-14.3,12-19.8c0.1-1.3,0.1-2.7,0.1-4c-3.1-1.1-6.4-2-9.1-3.9c-2.3-1.7-4.1-3.9-6.4-5.6
		c-2-1.3-4.4-1.8-6.7-2.5c0.4-2.4,0.9-4.7,1.4-7c0.3-1.3,0.5-2.6,0.8-3.8c4.4,0.9,2.9,6.5,6.2,8.6c1.5,1,3.5,0.8,5.2,1.1
		c1-1.6,2.5-3.2,2.5-5.2c0.2-3.4-2.3-7.1-5.9-7.4c-2.2-0.2-3.4,1.9-4.8,3.1c-1.2-0.3-2.5-0.7-3.7-1c-0.1-0.4-0.4-1.2-0.6-1.7
		L998.9,340.5 M1013.1,384.3c1.1,1.9,2.3,3.7,3.7,5.4c1.7-1.3,3.3-2.6,5-3.8c-1.2-1.8-2.5-3.4-3.9-5
		C1016.3,382,1014.7,383.1,1013.1,384.3z"/>
	<path class="st1" d="M1065.5,338c0.5-0.5,1.1-0.9,1.7-1.4c2.7,2,5.5,4,7.3,7c-0.4,0.7-0.9,1.4-1.3,2
		C1071.8,342.2,1069.2,338.8,1065.5,338z"/>
	<path class="st1" d="M1005.4,343.4c4.6-3.3,9.4,4.5,6.3,8.3c-0.9,1.7-3.1,0.9-4.6,1.3C1004.5,350.6,1002.5,346.3,1005.4,343.4z"/>
	<path class="st1" d="M920.9,384.7c1.4-0.2,3.2-1.4,4.5,0c2,2,1.6,5.1,2.1,7.7c-2.1,1.7-4.2,3.5-6.2,5.3c3.3,2.7,6.5,5.7,9.5,8.8
		c0,0.7,0,2,0,2.7c-2.5,0.5-5,0-7.2-1.3c1.9,1.4,3.7,3.1,4.4,5.5c-4.6,2.2-9-0.8-13.2-2.5c2.2,2.1,4.8,4.1,5.5,7.3
		c-1.7,0-3.5,0.1-5.2,0c-0.5,1-1.2,1.7-2.1,2.4c-4.5-0.7-8.6-3-12.9-4.4c-0.4-1.3-0.8-2.6-1-3.9c2-2.9,4.9-5,7.1-7.8
		c2.7-3.2,4.5-7,7.2-10.1c2.2-0.3,4.2,0.9,6.3,1.5C920.3,392.1,920.7,388.4,920.9,384.7z"/>
	<path class="st1" d="M983.6,413.6c8.1-9.8,15.2-20.5,24.8-28.8c-2.2,5.6-3.1,11.5-3.9,17.4c-2.3,0.3-4.9,0.8-6.3,3c0,3,3,5.9,6,4.3
		c0.2,2.4,0.6,4.8,1.1,7.3c-9.3,11.8-9.9,27.9-9,42.3c-2.5,1-5.3,2-6.7,4.5c-2,3.2-1.2,7.1-0.9,10.6c-0.2,7.5,1.2,15.1,5.3,21.5
		c-7.6-1.9-15.4-2.2-23.1-2.8c-8.3-0.7-16.5,0.6-24.7,0.9c0.4-2.6,0.8-5.1,1.2-7.7C952.9,459.2,967.4,435.3,983.6,413.6
		 M982.2,429.9c1.2,1.7,2.4,3.4,3.7,5.1c1.6-1.2,3.6-2.1,4.6-3.9c-0.2-2-1.9-3.5-3.5-4.6C985,426.8,983.7,428.6,982.2,429.9
		 M969.4,458.8c1.2,1.6,2.4,3.2,3.6,4.8c1.8-1.2,3.5-2.4,5.2-3.7c-1.3-1.8-2.7-3.6-4.1-5.2C972.4,456,970.8,457.4,969.4,458.8z"/>
	<path class="st1" d="M328,400.9c21-0.3,42,0.1,63.1-0.1c17,0.3,33.9-0.5,50.9,0.1c0.5,33,0.1,66,0.2,99c0,54,0.1,108,0,162
		c0,2,0.2,4.1,1.1,5.9c23.5,42.9,47.2,85.7,70.6,128.7c5.7,12.1,12.7,23.6,19,35.5c2.8,4.5,4.4,9.9,8.5,13.6
		c3.6,9,9.4,16.9,13.3,25.8c-10.1,0.4-20.1,0-30.2,0.3c-38.8-0.5-77.6-0.1-116.4-0.2c-64,0-128.1,0-192.1,0
		c34.4-63.4,68.8-126.8,103.3-190.2c1.6-3,3.4-5.9,4.5-9.1c1.5-3,4.1-5.5,4-9C328,575.7,327.5,488.3,328,400.9 M349.4,402.2
		c0.1,43.6,0,87.2,0,130.9c-0.1,23.8,0.3,47.6-0.2,71.4c-0.6,18.8-0.1,37.7-0.2,56.5c-0.2,3.1,0.6,6.4-0.7,9.3
		C316.7,731.1,285.1,792,253.6,853c89.2,0,178.4,0,267.6,0c-32.4-59.3-64.7-118.7-97.1-177.9c-1.1-2.3-2.9-4.3-3-7
		c-0.2-21.2,0.3-42.4-0.2-63.6c1.2-7.1-0.5-14.2,0.4-21.3c0.7-7-0.7-14,0-21c0.4-9-0.1-18-0.6-27c1.2-17,0.5-34,0.6-51
		c-1.4-8.3,0.8-16.6,0-24.9c-0.5-5.7,0.4-11.4,0.1-17.1c0.4-10-1.5-20-0.4-30c0.5-3.4,0.2-6.9-0.7-10.3c-8.4,0-16.8,0.1-25.2,0
		c-10,0.8-20.1-0.5-30.1,0.1C359.8,402.5,354.5,401.1,349.4,402.2z"/>
	<path class="st1" d="M904.3,436.7c14,16.1,27.9,32.1,41.9,48.2c-8.9-1.3-18.5-2.5-25.8-8.2c-5.4-4.7-8.5-11.5-11-18
		C907.1,451.5,904.8,444.2,904.3,436.7z"/>
	<path class="st1" d="M992.2,464.1c2.7-3.5,8.8-3.1,11,0.7c1.3,2.5,0.8,5.6,1,8.3c0.3,8-0.3,16.9-5.6,23.4c-0.2,0.1-0.8,0.3-1,0.4
		c-5.8-6.6-7.3-15.8-7-24.3C990.9,469.9,990.2,466.6,992.2,464.1z"/>
	<path class="st1" d="M945.5,496.2c3.8-0.8,7.6-1,11.5-1.1c10-0.3,20.1-0.4,30,1.2c2.8,0.4,5.6,0.6,8.5,0.9c0.3,0.4,0.9,1,1.2,1.4
		c-0.7,0.5-1.4,1-2.1,1.5c-3.2-1.9-7-1.5-10.6-1.5c-6.7,0.1-13.4-0.3-20.1,0.2c-6.9,0.5-13.5,3.1-19.7,5.9
		C944.6,501.9,945,499,945.5,496.2z"/>
	<path class="st1" d="M176.5,536.8c13.7-3.1,28.6-0.3,40.2,7.5c11.5,7.6,19.6,20,22.1,33.6c2.7,14-0.9,29.1-9.5,40.5
		c-8.5,11.5-22.1,19.2-36.4,20.5c-13.4,1.4-27.2-2.7-37.7-11.2c-10.3-8.2-17.2-20.5-18.9-33.6c-1.9-13.5,2-27.7,10.3-38.4
		C154.1,546.2,164.8,539.3,176.5,536.8z"/>
	<path class="st1" d="M1162.5,610.8c18.6-2.2,37.9,2.7,53.2,13.4c14.5,10,25.4,25,30.4,41.8c5.1,16.9,4.2,35.5-2.4,51.9
		c-6.4,15.8-18.2,29.5-32.9,38.1c-15.2,9-33.4,12.5-50.9,9.9c-17-2.4-33-10.7-44.9-23c-11.6-12-19.2-27.8-21.3-44.4
		c-2.7-20.2,3-41.3,15.4-57.5C1121.9,624.2,1141.6,613,1162.5,610.8 M1179.7,633c1.1,6.8,3.2,13.3,4.9,19.9
		c6.8-1.1,13.5-2.9,20.1-5.1c-1.4-6.7-3.1-13.3-5-19.8C1192.8,629.1,1186.2,631.1,1179.7,633 M1136.9,658.8
		c-4.2,8.7-8,17.6-11.5,26.6c8.6,4.3,17.6,8.2,26.6,11.5c4.2-8.7,8.2-17.6,11.4-26.7C1154.8,666.1,1146,662.2,1136.9,658.8z"/>
	<path class="st1" d="M676.5,784.7c5.3-0.5,11.2-1.1,16,1.9c6.7,3.6,11,10.9,11.1,18.5c0,9.5-7.1,18.7-16.5,20.5
		c-6.3,1.6-13.3-0.1-18.4-4c-4.6-3.6-7.2-9.3-7.9-15C660,796.8,666.8,787,676.5,784.7z"/>
</g>
<g id="_x23_a2c4fcff">
	<path class="st2" d="M758.3,151.2c16.6,0.2,33.1-0.1,49.7,0.1c17.8,0.4,34.5,12.3,40.9,28.8c2.6,6.3,3.2,13.1,3.2,19.9
		c-0.1,28.2,0.1,56.5-0.1,84.7c0,14.5,0,28.9,0,43.4c0.1,158,0,315.9,0.1,473.9c0.2,10.6-3,21.2-9.6,29.6
		c-8.5,11.2-22.5,17.8-36.5,17.7c-82,0-164,0-246,0c-6.4,0.1-12.7-1.5-18.6-3.6c-4-3.6-5.7-9.1-8.5-13.6
		c-6.3-11.8-13.3-23.3-19-35.5c0.3-65.8,0.1-131.6,0.1-197.4c4.4-6.8,8-14.1,13.4-20.1c0.1,63.9,0,127.9,0,191.8
		c103.7,0.1,207.5,0.1,311.2,0c0-180.2,0-360.4,0-540.6c-56.8-0.1-113.7,0-170.5,0c8.5-11.9,19.5-21.8,29.8-32.1
		c-13.8,0.7-27.3,3.6-41.1,4.3c0.3-3.6-2.6-9.1,1.5-11.4c5.1-1.1,10.3-0.1,15.5-0.8c11.2-1.4,22.3-2.9,33.5-4.1
		c2.9-0.2,5.6-1.3,7.7-3.3C728.7,171.4,743.4,161,758.3,151.2 M676.5,784.7c-9.7,2.3-16.5,12.1-15.8,21.9c0.7,5.7,3.3,11.4,7.9,15
		c5.1,4,12.1,5.7,18.4,4c9.4-1.9,16.5-11,16.5-20.5c0-7.5-4.4-14.9-11.1-18.5C687.7,783.6,681.8,784.1,676.5,784.7z"/>
	<path class="st2" d="M616.8,189.6c1.8-2.4,3.9-4.5,6.3-6.3c0.4,0.6,1.3,1.7,1.8,2.3c1.1,1.4,2.1,2.8,3.2,4.2
		c-1.5,1.4-3,2.9-4.5,4.2c-0.3,0.2-1,0.6-1.4,0.9C620.2,193.4,618.5,191.5,616.8,189.6z"/>
	<path class="st2" d="M632.3,187c4.8-1.4,10.8,2.8,10.3,8c0.4,4-3,7.2-6.6,8.2c-3.3,0.9-6.1-1.4-8.5-3.3c0.3-0.4,0.8-1.2,1.1-1.5
		c2-2.8,4.5-4.9,7.1-7.1C634.6,189.9,633.5,188.4,632.3,187z"/>
	<path class="st2" d="M372.4,304c9.4,5.9,18,13.1,26.5,20.2c-6,8.8-12.5,17.2-19.5,25.2c-0.9,1.6-2.4-0.2-3.3-0.7
		c-8.1-6-16.2-12.1-23.8-18.7C358.7,321.1,365.5,312.6,372.4,304z"/>
	<path class="st2" d="M349.4,402.2c5.2-1,10.4,0.3,15.6-0.3c10-0.7,20.1,0.6,30.1-0.1c8.4,0,16.8,0,25.2,0c0.9,3.4,1.2,6.9,0.7,10.3
		c-1.2,10,0.7,20,0.4,30c0.2,5.7-0.6,11.4-0.1,17.1c0.8,8.3-1.4,16.6,0,24.9c-0.1,17,0.6,34.1-0.6,51c0.5,9,1,18,0.6,27
		c-0.7,7,0.7,14,0,21c-0.9,7.1,0.9,14.2-0.4,21.3c-23.9,0.2-47.8,0.1-71.7,0c0.5-23.8,0.1-47.6,0.2-71.4
		C349.4,489.4,349.4,445.8,349.4,402.2z"/>
	<path class="st2" d="M1036.1,486.1c7.9-7.1,15.9-14,23.8-21.1c0.1,0.6,0.4,1.7,0.5,2.2c-6.1,17.2-12.6,34.4-20.4,51
		c-2.3-3.4-4.8-6.8-7.7-9.8c-3.2-3.3-6.8-6.1-10.4-8.9C1025.5,494,1031.3,490.5,1036.1,486.1z"/>
	<path class="st2" d="M988.8,474.2l1.7-1.4c-0.3,8.5,1.2,17.6,7,24.3c0.2-0.1,0.8-0.3,1-0.4c5.3-6.5,5.9-15.3,5.6-23.4
		c0.5,0.1,1.6,0.2,2.2,0.2c-0.2,7.9-1,16.3-5.5,23.1c-0.5,0.8-1,1.5-1.5,2.3c2.4,1.7,5,3.1,7.5,4.4c0,0.4-0.1,1.3-0.2,1.7
		c-3.1-1.2-6.1-2.9-8.7-5c-2.8,2-5.9,3.5-9,5l-1.1,0.6c-0.6,0.4-1.2,0.9-1.8,1.4c-0.7,0-2.1,0-2.8,0c0-0.5-0.2-1.3-0.2-1.8
		c-0.1-0.9-0.2-2.8-0.2-3.7c4,1,8.5,1.4,11.9-1.4c0.7-0.5,1.4-1,2.1-1.5c-0.3-0.4-0.9-1-1.2-1.4c-0.3-0.4-1-1.2-1.4-1.6
		C990,489.3,988.6,481.6,988.8,474.2z"/>
	<path class="st2" d="M1180.9,519.6c2.7-1.5,5.3-2.9,8-4.3c1.5,2.7,3,5.3,4.2,8.2c-2.7,1.4-5.3,2.8-8,4.2
		C1183.7,525,1182.2,522.3,1180.9,519.6z"/>
	<path class="st2" d="M1179.7,633c6.6-1.9,13.2-3.9,20-5c1.9,6.5,3.6,13.1,5,19.8c-6.6,2.2-13.3,4-20.1,5.1
		C1182.8,646.3,1180.7,639.7,1179.7,633z"/>
	<path class="st2" d="M1032.1,854.7c10.1-0.7,20.3,0.1,30.5-0.3c-0.1,3.7-0.1,7.4,0,11.1l-1.4,0c0.4,1.8,1,3.6,1.2,5.4
		c-0.6,8,0.5,16,0.1,24c-28.2-0.3-56.5-0.2-84.7,0c4.2-7.8,12.1-12.5,19.8-16.5c6.1-2.6,11.9-5.8,17.5-9.3c2.3-1.7,4.5-3.5,6.8-5.2
		c1.7-1.3,3.4-2.5,5-3.9c0.2-0.4,0.6-1.3,0.8-1.7l1,0.5l-0.3-1.4l1.3,0.4l-0.2-1.3c0.4,0,1.1,0,1.4-0.1
		C1031.2,856,1031.8,855.2,1032.1,854.7z"/>
</g>
<g id="_x23_222c70ff">
	<path class="st3" d="M371.3,183.9c3-3.7,6-7.3,9.3-10.7c3.6,3,7.1,6.1,10.6,9.2c-2.9,3.7-6,7.3-9.2,10.7
		C378.3,190.2,374.7,187.1,371.3,183.9z"/>
	<path class="st3" d="M1021.6,308.2c9.6-3.2,21.1-0.2,27.6,7.6c3.3,4.8,5.1,10.6,9.3,14.7c1,1.2,3.2,2,3.5,3.6
		c-0.1,0.2-0.3,0.6-0.4,0.8c0.8,0.7,1.8,1.2,2.7,1.8c0.3-0.3,0.8-1,1.1-1.3c4.7,1.6,9,5.1,10.3,10c-0.5,0.3-1.5,0.8-2,1.1
		c-6.3,7.8-15.6,12.7-24.9,15.8c-2.4,0.8-4.9,1.3-7.4,1.6c-0.2,0.3-0.7,1-1,1.3c4.2,0.5,7.2,3.8,7.8,7.9
		c-0.5,9.5-8.1,16.4-15.4,21.6c-9.4,6.5-18.4,13.8-26.1,22.3c3.4,8.4,12,15.3,10,25.3c1.8,1.2,4.2,2.3,4.6,4.7
		c1.1,3.7-2.4,7.7-6.2,7.2c-3.8-0.2-6.4-4.5-4.9-8c0.8-3,5.5-2.9,5.5-6.2c0.4-8.6-6.8-14.6-10.1-21.9c-8.3,11.8-9.1,27-8.1,40.9
		c2.4,0.8,5.2,1.4,6.9,3.6c2.6,3,2,7.2,1.9,10.8c-0.5-0.1-1.6-0.2-2.2-0.2c-0.2-2.8,0.3-5.8-1-8.3c-2.2-3.9-8.3-4.2-11-0.7
		c-1.9,2.4-1.3,5.8-1.6,8.6l-1.7,1.4c-0.4-3.5-1.1-7.4,0.9-10.6c1.4-2.5,4.2-3.5,6.7-4.5c-0.9-14.4-0.3-30.5,9-42.3
		c-0.4-2.4-0.9-4.8-1.1-7.3c-0.1-2.4,0.1-4.9,0.3-7.3c0.8-5.9,1.7-11.8,3.9-17.4c3-5,5.3-11.3,11.2-13.5c-5.6,5.4-10.1,12.1-12,19.8
		c-1.9,8-3.1,16.4-1.5,24.6c7.6-8,16.1-15.1,25.2-21.3c7.2-5.1,15-11.6,15.7-21.1c-0.6-3.4-2.9-6-6.2-6.8l-0.5-0.2
		c-0.4-0.6-0.8-1.2-1.2-1.8c-0.9,0.2-2.6,0.6-3.5,0.8c-1.6-3.1-0.6-6.9-1.1-10.3c-0.8,4.1-0.3,8.9-3.2,12.3c2-6.5,2.8-14.1-1.5-19.9
		c-3.3-6-10.7-6-16.4-7.8c-5.5-1.4-10.1-5.2-12.5-10.3c-0.9,3.7-1.5,7.5-1.9,11.3c-1.2-5.4-2.4-11.3,0.2-16.5
		C1003.3,315.4,1012.8,311,1021.6,308.2 M1065.5,338c3.7,0.8,6.3,4.3,7.7,7.6c0.4-0.7,0.8-1.4,1.3-2c-1.8-2.9-4.6-5-7.3-7
		C1066.6,337.1,1066,337.5,1065.5,338z"/>
	<path class="st3" d="M992.5,339.6c2.4-1.4,4.9,0.6,6.2,2.5c0.1,0.4,0.4,1.2,0.6,1.7c1.2,0.3,2.5,0.7,3.7,1c1.4-1.3,2.6-3.4,4.8-3.1
		c3.5,0.2,6,4,5.9,7.4c0,2-1.5,3.5-2.5,5.2c-1.7-0.4-3.7-0.1-5.2-1.1c-3.3-2.1-1.8-7.7-6.2-8.6c-0.3,1.3-0.6,2.6-0.8,3.8
		c-1,0.6-2,1.1-3.1,1.6C990.9,350.1,988.3,342.3,992.5,339.6 M993.3,340.2c-4.1,1.9-1.7,9.2,2.7,8.9
		C1001,347.6,998,338.7,993.3,340.2 M1005.4,343.4c-2.9,2.9-0.9,7.2,1.7,9.6c1.5-0.3,3.7,0.4,4.6-1.3
		C1014.8,348,1010,340.1,1005.4,343.4z"/>
	<path class="st3" d="M405.5,367.3c3-2.9,6-5.8,9.2-8.5c2.9,2.9,5.8,5.9,8.5,9c-2.9,3-5.9,5.8-9.1,8.6
		C411.2,373.5,408.2,370.5,405.5,367.3z"/>
	<path class="st3" d="M927.5,392.3c7.2-6.1,14.3-12.4,21.4-18.6c11.6,13.3,23.1,26.6,34.7,39.9c-16.3,21.7-30.8,45.6-36.2,72.5
		c-0.3-0.3-1-0.9-1.3-1.2c-13.9-16.1-27.9-32.1-41.9-48.2c-3.9-4.7-7.9-9.2-11.9-13.8c2.6-2.2,5.2-4.4,7.7-6.8
		c4.3,1.4,8.4,3.7,12.9,4.4c0.9-0.6,1.6-1.4,2.1-2.4c1.7,0.1,3.4,0,5.2,0c-0.7-3.2-3.3-5.2-5.5-7.3c4.2,1.7,8.6,4.7,13.2,2.5
		c-0.7-2.3-2.5-4-4.4-5.5c2.2,1.3,4.7,1.8,7.2,1.3c0-0.7,0-2,0-2.7c-3-3.1-6.1-6.1-9.5-8.8C923.3,395.8,925.3,394,927.5,392.3z"/>
	<path class="st3" d="M1147.3,555.5c4.3-1.8,8.7-3.3,13.2-5c2,4.3,3.5,8.8,5,13.3c-4.3,1.8-8.7,3.4-13.2,4.9
		C1150.4,564.5,1148.8,560,1147.3,555.5z"/>
	<path class="st3" d="M973.5,671.4c21.1-4.3,42-9.2,62.8-14.6c-0.6,9.6-1.1,19.3,0.6,28.8c2.1,12,9.4,22.2,14.5,33
		c4.6,9.5,7.5,19.8,7.5,30.4c0.3,6.4-1.1,12.7-0.6,19.1c0.4,5.9,4.8,10.4,7.1,15.6c3.8,8.5,4.9,18,5.3,27.2c0.5,13-0.5,26.1-2.2,39
		c-0.2,1.7-0.5,3.4,0.2,5c4.8,13.4,9.5,26.8,14.4,40.1c-6.8,0-13.7,0.1-20.5-0.1c0.4-8-0.8-16-0.1-24c-0.2-1.9-0.8-3.6-1.2-5.4
		l1.4,0c-0.1-3.7-0.1-7.4,0-11.1c-10.1,0.4-20.4-0.4-30.5,0.3c-0.3,0.4-0.8,1.3-1.1,1.7c-0.4,0-1.1,0-1.4,0.1l0.2,1.3l-1.3-0.4
		l0.3,1.4l-1-0.5c-0.2,0.4-0.6,1.3-0.8,1.7c-1.6,1.4-3.3,2.7-5,3.9c-2.3,1.7-4.5,3.5-6.8,5.2c-5.6,3.5-11.5,6.6-17.5,9.3
		c-7.6,3.9-15.6,8.7-19.8,16.5c-11,0.2-22.1,0.1-33.1,0.1c5.2-7.9,13.3-13.4,21.8-17.4c13.1-5.6,24.7-14.4,34.6-24.6
		c-6.4-28.5-12.5-57-18.2-85.6c-3.7-20-8-40.1-9.6-60.4C973.3,695.2,973.8,683.3,973.5,671.4z"/>
</g>
<g id="_x23_e94a47ff">
	<path class="st4" d="M509,231.8c1.7,0,3.4,0,5.2,0.1l0.8,0.4c0,7.8,0,15.5,0,23.3l-0.8,0.4c-1.7,0-3.4,0-5,0
		C508.9,247.9,509,239.9,509,231.8z"/>
	<path class="st4" d="M415,245.4c7.4,3,14.8,6.2,22,9.8c-2.9,7.5-6.1,14.9-9.8,22c-7.4-2.9-14.8-6.1-21.9-9.8
		C408.3,260,411.5,252.6,415,245.4z"/>
	<path class="st4" d="M509,284.7c1.8,0,3.7,0,5.5-0.1c0.3,2.1,0.4,4.2,0.4,6.3c-0.1,12.2,0,24.4,0,36.6l-0.8,0.3
		c-1.7,0.1-3.4,0.1-5,0.1C508.9,313.6,509,299.1,509,284.7z"/>
	<path class="st4" d="M852,284.7c1.9,0,3.8,0,5.8,0c0,14.4,0,28.8,0,43.3c-1.9,0-3.8,0.1-5.7,0.1C852,313.6,852,299.1,852,284.7z"/>
	<path class="st4" d="M509,341c1.6,0,3.3,0,5,0.1l0.9,0.2c-0.3,14.3,0.5,28.8-0.4,43.1c-1.9,0-3.7,0-5.5-0.1
		C509,369.8,508.9,355.4,509,341z"/>
	<path class="st4" d="M629.8,368.6c35.6-1.9,71.3-1.7,107,0c1.5,24.5,1.2,49.1,0,73.5c24.5-1.5,49-1.1,73.5,0.1
		c2,35.6,1.8,71.3-0.1,106.9c-24.5,1.5-49,1.9-73.4,0c0.8,24.5,1,49.1,0,73.6c-35.6,1.6-71.4,1.8-107-0.1c-0.8-24.5-1.3-49,0-73.5
		c-24.4,2.4-49.1,2-73.5,0c-1.6-35.6-1.6-71.3,0-106.9c24.5-1.5,49.1-2,73.5,0C628.3,417.6,628.2,393,629.8,368.6z"/>
	<path class="st4" d="M349.2,604.4c23.9,0.1,47.8,0.1,71.7,0c0.5,21.2,0,42.4,0.2,63.6c0.1,2.6,1.9,4.7,3,7
		c32.4,59.3,64.7,118.6,97.1,177.9c-89.2,0-178.4,0-267.6,0c31.6-60.9,63.1-121.8,94.6-182.7c1.3-2.9,0.5-6.2,0.7-9.3
		C349.1,642.1,348.6,623.3,349.2,604.4 M351.9,649c1.1,2.7,2.2,5.4,3.4,8.1c2.7-1.1,5.5-2.2,8.2-3.3c-1.1-2.7-2.2-5.4-3.4-8.1
		C357.4,646.7,354.6,647.8,351.9,649 M391.7,782c4.2,3.5,8.3,7.1,12.5,10.6c3.6-4.1,7.1-8.3,10.7-12.4c-4.1-3.6-8.3-7.2-12.5-10.7
		C398.8,773.7,395.2,777.8,391.7,782 M365.9,780c1.1,2.7,2.2,5.4,3.4,8.1c2.7-1.1,5.4-2.2,8.2-3.3c-1.1-2.7-2.2-5.4-3.4-8.1
		C371.4,777.8,368.6,778.9,365.9,780 M363.4,808.5c0,4.5,0,9.1,0,13.6c4.6,0.1,9.2,0.1,13.8,0.1c0-4.5,0-9.1,0-13.6
		C372.6,808.4,368,808.5,363.4,808.5 M428,822.1c0,4.6,0,9.1,0,13.7c4.6,0,9.2,0,13.8,0c0-4.6,0-9.1,0-13.7
		C437.1,822.1,432.6,822.1,428,822.1z"/>
	<path class="st4" d="M1136.9,658.8c9,3.4,17.8,7.3,26.6,11.4c-3.2,9.1-7.2,18-11.4,26.7c-9.1-3.3-18-7.1-26.6-11.5
		C1129,676.4,1132.7,667.4,1136.9,658.8z"/>
</g>
</svg>
