<?xml version="1.0" encoding="UTF-8" ?>
<!DOCTYPE svg PUBLIC "-//W3C//DTD SVG 1.1//EN" "http://www.w3.org/Graphics/SVG/1.1/DTD/svg11.dtd">
<svg width="766pt" height="103pt" viewBox="0 0 766 103" version="1.1" xmlns="http://www.w3.org/2000/svg">
<g id="#ffffffff">
<path fill="#ffffff" opacity="1.00" d=" M 191.77 19.06 C 193.02 19.44 195.34 19.18 195.42 20.98 C 195.15 22.73 193.05 22.42 191.76 22.78 C 191.76 21.54 191.76 20.30 191.77 19.06 Z" />
<path fill="#ffffff" opacity="1.00" d=" M 209.10 19.34 C 209.77 21.09 210.40 22.85 211.04 24.61 C 209.85 24.66 208.67 24.71 207.49 24.76 C 208.02 22.95 208.56 21.14 209.10 19.34 Z" />
<path fill="#ffffff" opacity="1.00" d=" M 168.61 43.31 C 169.21 41.58 169.79 39.85 170.39 38.12 C 170.99 39.84 171.59 41.56 172.18 43.29 C 170.99 43.30 169.80 43.30 168.61 43.31 Z" />
<path fill="#ffffff" opacity="1.00" d=" M 187.97 37.90 C 188.63 39.68 189.22 41.48 189.82 43.28 C 188.63 43.30 187.43 43.31 186.24 43.32 C 186.81 41.51 187.37 39.70 187.97 37.90 Z" />
<path fill="#ffffff" opacity="1.00" d=" M 115.87 56.20 C 117.44 56.50 118.94 57.07 120.27 57.98 C 119.03 59.08 117.50 59.67 115.89 59.97 C 115.87 58.71 115.87 57.46 115.87 56.20 Z" />
<path fill="#ffffff" opacity="1.00" d=" M 135.24 56.10 C 136.65 56.47 138.46 56.41 139.11 58.03 C 138.90 60.11 136.76 60.20 135.17 60.45 C 135.18 59.00 135.20 57.55 135.24 56.10 Z" />
<path fill="#ffffff" opacity="1.00" d=" M 158.47 56.07 C 159.71 56.44 161.01 56.77 161.80 57.91 C 160.75 58.55 159.61 59.01 158.41 59.29 C 158.42 58.48 158.45 56.87 158.47 56.07 Z" />
<path fill="#ffffff" opacity="1.00" d=" M 158.48 61.18 C 159.72 61.41 160.97 61.62 162.19 61.97 C 163.01 64.68 160.15 64.30 158.41 64.66 C 158.42 63.50 158.44 62.34 158.48 61.18 Z" />
<path fill="#ffffff" opacity="1.00" d=" M 132.21 74.04 C 134.11 74.63 136.14 75.04 137.84 76.14 C 140.12 79.13 137.90 83.51 134.04 83.26 L 134.39 83.75 C 133.89 83.72 132.87 83.68 132.36 83.65 C 132.75 82.96 133.15 82.28 133.56 81.60 C 133.56 79.01 133.88 76.23 132.21 74.04 Z" />
<path fill="#ffffff" opacity="1.00" d=" M 147.37 75.29 C 152.05 72.67 154.51 81.42 149.98 83.02 C 145.64 84.29 143.81 77.22 147.37 75.29 Z" />
<path fill="#ffffff" opacity="1.00" d=" M 196.31 80.37 C 196.89 78.58 197.46 76.78 198.06 74.99 C 198.69 76.77 199.29 78.56 199.92 80.35 C 198.71 80.36 197.51 80.37 196.31 80.37 Z" />
</g>
<g id="#16b3acff">
<path fill="#16b3ac" opacity="1.00" d=" M 49.45 0.00 L 53.40 0.00 C 60.89 0.91 67.55 7.27 67.73 14.99 C 67.99 16.57 66.55 17.59 65.66 18.64 C 55.45 28.62 45.32 38.68 35.13 48.68 C 35.27 37.44 35.06 26.20 35.22 14.96 C 35.47 7.34 42.06 1.01 49.45 0.00 Z" />
<path fill="#16b3ac" opacity="1.00" d=" M 0.00 49.54 C 1.07 42.52 6.72 36.17 13.93 35.35 C 19.99 34.81 26.08 35.25 32.15 35.11 C 32.15 46.03 32.15 56.96 32.14 67.89 C 26.10 67.77 20.04 68.19 14.02 67.68 C 6.58 66.84 0.64 60.13 0.00 52.78 L 0.00 49.54 Z" />
<path fill="#16b3ac" opacity="1.00" d=" M 35.11 53.99 C 45.64 64.43 56.13 74.93 66.58 85.46 C 68.61 87.07 67.45 89.79 66.89 91.83 C 64.96 97.74 59.48 102.03 53.40 103.00 L 49.51 103.00 C 41.76 102.02 34.98 95.10 35.17 87.11 C 35.11 76.07 35.27 65.03 35.11 53.99 Z" />
</g>
<g id="#d2dc02ff">
<path fill="#d2dc02" opacity="1.00" d=" M 69.74 17.65 C 74.88 12.84 83.20 11.71 89.06 15.90 C 96.33 20.53 97.97 31.71 92.17 38.13 C 88.35 42.23 84.09 45.89 80.08 49.79 C 76.65 49.77 73.22 49.77 69.79 49.77 C 69.79 39.06 69.88 28.36 69.74 17.65 Z" />
<path fill="#d2dc02" opacity="1.00" d=" M 38.48 49.76 C 48.00 40.30 57.43 30.74 66.92 21.25 C 66.82 30.75 66.79 40.24 66.93 49.73 C 57.45 49.80 47.96 49.77 38.48 49.76 Z" />
<path fill="#d2dc02" opacity="1.00" d=" M 38.37 53.37 C 47.88 53.43 57.40 53.39 66.91 53.39 C 66.85 62.91 66.73 72.42 66.99 81.93 C 57.39 72.47 47.94 62.86 38.37 53.37 Z" />
<path fill="#d2dc02" opacity="1.00" d=" M 69.84 53.37 C 73.31 53.40 76.77 53.40 80.24 53.43 C 84.23 57.57 88.76 61.18 92.57 65.49 C 98.11 72.15 96.05 83.28 88.58 87.62 C 82.76 91.41 74.92 90.13 69.80 85.73 C 69.83 74.94 69.76 64.15 69.84 53.37 Z" />
</g>
<g id="#372e2dff">
<path fill="#372e2d" opacity="1.00" d=" M 135.14 17.22 C 136.03 16.94 136.95 16.79 137.87 16.63 C 138.81 19.44 139.63 22.30 140.53 25.13 C 142.04 22.47 141.17 17.04 144.98 16.61 C 147.77 19.98 146.85 25.12 148.07 29.19 C 147.48 29.46 146.30 30.01 145.72 30.29 C 144.93 27.24 144.63 24.10 144.10 21.00 C 142.82 24.26 143.09 28.44 139.99 30.66 C 138.58 27.70 137.97 24.47 136.84 21.41 C 136.15 24.22 136.45 27.32 135.12 29.94 C 134.57 29.81 133.46 29.54 132.91 29.41 C 133.67 25.36 133.92 21.17 135.14 17.22 Z" />
<path fill="#372e2d" opacity="1.00" d=" M 158.16 23.97 C 158.32 21.33 157.53 18.27 159.54 16.14 C 162.17 18.88 164.23 22.08 166.58 25.04 C 166.57 22.28 166.34 19.50 166.75 16.75 C 167.31 16.78 168.43 16.83 168.99 16.86 C 169.14 21.43 170.08 26.33 168.24 30.67 C 165.48 27.92 163.34 24.65 160.91 21.64 C 160.59 24.44 162.15 28.01 159.91 30.28 C 157.32 29.22 158.41 26.15 158.16 23.97 Z" />
<path fill="#372e2d" opacity="1.00" d=" M 113.43 16.87 C 117.08 15.61 115.54 20.15 115.85 22.07 C 117.68 20.05 119.51 18.04 121.50 16.18 C 124.62 18.82 119.94 20.88 118.43 22.88 C 120.25 24.81 122.56 26.49 123.51 29.06 C 123.12 29.34 122.34 29.89 121.95 30.17 C 119.47 28.17 117.55 25.59 115.37 23.29 C 115.27 25.70 115.59 28.09 115.59 30.50 C 115.01 30.03 113.83 29.11 113.24 28.65 C 113.20 24.72 113.04 20.78 113.43 16.87 Z" />
<path fill="#372e2d" opacity="1.00" d=" M 124.79 16.83 C 127.10 17.30 132.22 15.24 131.93 18.97 C 130.28 19.32 128.59 19.41 126.93 19.63 C 126.66 23.24 131.78 20.66 131.95 23.85 C 130.37 24.55 128.61 24.54 126.94 24.81 C 126.57 28.75 131.99 25.72 132.25 29.04 C 130.06 30.33 127.39 29.59 124.98 29.72 C 124.47 25.44 124.57 21.13 124.79 16.83 Z" />
<path fill="#372e2d" opacity="1.00" d=" M 149.70 16.85 C 152.37 17.11 156.35 15.48 157.35 19.00 C 155.65 19.20 153.94 19.34 152.24 19.47 C 152.21 20.05 152.16 21.20 152.13 21.78 C 153.49 21.86 154.85 21.94 156.21 22.02 C 156.37 22.54 156.68 23.60 156.83 24.12 C 155.28 24.34 153.72 24.51 152.17 24.68 C 152.20 25.50 152.24 26.31 152.28 27.13 C 153.78 27.50 157.62 26.41 157.02 29.04 C 154.90 30.54 152.06 29.49 149.64 29.55 C 149.56 25.32 149.52 21.08 149.70 16.85 Z" />
<path fill="#372e2d" opacity="1.00" d=" M 170.78 17.01 C 173.38 16.57 176.08 16.63 178.70 17.00 C 178.89 17.52 179.28 18.56 179.47 19.09 C 178.31 19.23 177.16 19.37 176.01 19.50 C 176.07 22.65 176.38 25.84 175.95 28.97 C 175.47 30.37 174.27 29.71 173.26 29.40 C 173.32 26.18 173.33 22.96 173.36 19.74 C 172.33 19.21 167.93 18.72 170.78 17.01 Z" />
<path fill="#372e2d" opacity="1.00" d=" M 180.37 28.84 C 180.11 24.82 180.19 20.77 180.61 16.77 C 182.74 16.77 184.89 16.67 187.01 16.97 C 189.24 19.65 184.38 19.33 182.92 19.53 C 182.92 20.09 182.93 21.23 182.93 21.79 C 184.47 21.92 186.02 22.06 187.57 22.22 C 187.38 24.89 184.88 24.55 182.91 24.67 C 182.91 25.27 182.93 26.49 182.93 27.10 C 184.67 27.31 186.67 26.88 188.08 28.17 C 186.78 30.79 183.43 29.59 181.09 29.68 C 180.91 29.47 180.55 29.05 180.37 28.84 Z" />
<path fill="#372e2d" opacity="1.00" d=" M 189.25 16.81 C 192.39 16.62 195.82 16.44 198.24 18.83 C 198.36 21.40 197.57 23.68 195.05 24.71 C 196.24 26.25 199.12 27.56 197.70 29.79 C 194.87 30.07 193.68 25.98 191.68 24.33 C 191.49 26.18 192.87 31.57 189.40 29.65 C 188.80 25.41 189.17 21.08 189.25 16.81 M 191.77 19.06 C 191.76 20.30 191.76 21.54 191.76 22.78 C 193.05 22.42 195.15 22.73 195.42 20.98 C 195.34 19.18 193.02 19.44 191.77 19.06 Z" />
<path fill="#372e2d" opacity="1.00" d=" M 199.80 16.87 C 200.37 16.89 201.53 16.93 202.11 16.95 C 202.42 21.07 202.58 25.29 201.90 29.38 C 201.41 29.63 200.42 30.12 199.92 30.37 C 199.36 25.90 199.32 21.35 199.80 16.87 Z" />
<path fill="#372e2d" opacity="1.00" d=" M 207.34 18.18 C 207.68 16.72 209.68 15.75 210.67 17.29 C 212.56 21.05 213.59 25.18 215.08 29.11 C 214.57 29.38 213.54 29.94 213.02 30.21 C 212.52 29.20 212.03 28.19 211.54 27.17 C 210.06 27.20 208.59 27.21 207.13 27.23 C 206.26 28.58 205.31 29.89 203.78 30.55 C 203.68 26.16 205.83 22.18 207.34 18.18 M 209.10 19.34 C 208.56 21.14 208.02 22.95 207.49 24.76 C 208.67 24.71 209.85 24.66 211.04 24.61 C 210.40 22.85 209.77 21.09 209.10 19.34 Z" />
<path fill="#372e2d" opacity="1.00" d=" M 216.29 16.69 C 220.33 17.34 221.67 22.41 224.26 25.14 C 224.26 22.58 224.06 20.01 224.38 17.46 C 225.03 17.18 226.32 16.62 226.97 16.34 C 226.95 20.64 226.99 24.93 226.94 29.22 L 225.41 30.19 C 222.97 27.47 220.88 24.46 218.72 21.52 C 218.67 24.51 219.05 27.60 218.07 30.49 C 217.60 30.12 216.67 29.39 216.20 29.03 C 215.89 24.93 215.92 20.78 216.29 16.69 Z" />
<path fill="#372e2d" opacity="1.00" d=" M 275.00 21.97 C 277.84 22.08 280.81 21.62 283.54 22.62 C 288.08 24.74 288.14 32.22 283.59 34.35 C 280.85 35.38 277.85 34.91 275.00 35.03 C 275.00 30.68 275.00 26.32 275.00 21.97 M 278.60 25.84 C 278.59 27.52 278.57 29.20 278.56 30.89 C 279.80 30.97 281.04 31.05 282.29 31.14 C 282.74 29.85 283.73 28.50 283.14 27.08 C 281.95 25.86 280.14 26.11 278.60 25.84 Z" />
<path fill="#372e2d" opacity="1.00" d=" M 289.39 22.01 C 290.58 22.01 291.77 22.02 292.97 22.02 C 293.01 26.34 293.01 30.66 292.97 34.98 C 291.77 34.98 290.58 34.98 289.39 34.98 C 289.40 30.66 289.40 26.34 289.39 22.01 Z" />
<path fill="#372e2d" opacity="1.00" d=" M 295.54 21.97 C 298.88 22.31 303.57 20.80 305.66 24.31 C 307.28 26.55 305.52 29.05 304.32 31.00 C 305.34 32.33 306.36 33.67 307.38 35.01 C 305.97 35.00 304.56 34.99 303.16 34.97 C 301.88 33.45 300.59 31.93 299.23 30.48 C 299.11 31.99 299.01 33.49 298.92 35.00 C 298.08 35.00 296.38 35.00 295.54 35.00 C 295.53 30.66 295.53 26.32 295.54 21.97 M 298.95 26.08 C 299.01 26.85 299.13 28.37 299.18 29.13 C 300.36 28.89 301.54 28.65 302.72 28.40 C 302.55 27.58 302.38 26.77 302.22 25.95 C 301.40 25.98 299.76 26.05 298.95 26.08 Z" />
<path fill="#372e2d" opacity="1.00" d=" M 308.74 22.00 C 312.11 21.99 315.49 21.99 318.87 22.06 C 318.57 24.70 318.14 27.32 317.86 29.95 C 315.70 29.98 313.55 30.01 311.42 30.31 C 313.76 31.15 316.28 31.03 318.73 31.11 C 318.72 32.39 318.71 33.68 318.71 34.97 C 315.38 35.00 312.06 35.00 308.74 35.00 C 308.73 30.67 308.73 26.33 308.74 22.00 Z" />
<path fill="#372e2d" opacity="1.00" d=" M 321.54 22.00 C 322.43 22.00 324.20 22.00 325.09 22.00 C 325.10 23.64 325.11 25.27 325.12 26.91 C 326.35 25.27 327.59 23.63 328.84 21.99 C 330.32 22.00 331.80 22.00 333.29 22.00 C 331.51 24.23 329.71 26.44 327.94 28.67 C 329.91 30.80 331.91 32.91 333.92 35.00 C 332.31 35.00 330.71 35.00 329.11 35.00 C 327.81 33.50 326.51 32.00 325.22 30.51 C 325.16 32.00 325.11 33.50 325.06 35.00 C 324.18 35.00 322.42 35.00 321.54 35.00 C 321.53 30.67 321.53 26.33 321.54 22.00 Z" />
<path fill="#372e2d" opacity="1.00" d=" M 333.69 22.01 C 337.12 22.00 340.56 22.00 344.00 22.00 C 344.00 23.33 344.00 24.66 344.00 25.99 C 343.15 26.00 341.45 26.01 340.60 26.01 C 340.60 29.00 340.60 31.98 340.62 34.97 C 339.45 34.98 338.29 35.00 337.14 35.01 C 337.14 32.01 337.13 29.02 337.10 26.02 C 336.23 26.01 334.49 25.99 333.62 25.98 C 333.63 24.65 333.66 23.33 333.69 22.01 Z" />
<path fill="#372e2d" opacity="1.00" d=" M 350.23 22.12 C 355.11 20.74 360.28 26.19 358.04 30.94 C 356.15 35.85 348.74 36.40 345.98 31.99 C 343.19 28.35 345.98 22.93 350.23 22.12 M 350.17 26.19 C 349.71 26.63 348.79 27.51 348.33 27.94 C 348.27 31.61 353.64 32.05 355.00 29.02 C 355.04 26.58 352.25 25.31 350.17 26.19 Z" />
<path fill="#372e2d" opacity="1.00" d=" M 360.73 21.98 C 364.07 22.33 368.79 20.79 370.90 24.25 C 372.50 26.49 370.80 29.05 369.55 30.98 C 370.56 32.33 371.58 33.67 372.61 35.01 C 371.20 34.99 369.79 34.97 368.39 34.95 C 367.15 33.44 365.87 31.95 364.52 30.54 C 364.39 32.02 364.28 33.51 364.18 35.00 C 363.32 35.00 361.60 35.00 360.74 35.00 C 360.73 30.66 360.73 26.32 360.73 21.98 M 364.25 25.79 C 364.30 26.66 364.39 28.40 364.43 29.26 C 365.64 28.91 366.89 28.60 368.04 28.04 C 368.32 25.71 365.75 26.21 364.25 25.79 Z" />
<path fill="#372e2d" opacity="1.00" d=" M 378.26 22.04 C 379.39 22.03 380.54 22.02 381.69 22.02 C 383.54 26.42 385.57 30.76 387.30 35.22 C 384.84 34.96 382.45 34.30 379.99 34.05 C 377.52 34.31 375.11 34.95 372.65 35.22 C 374.41 30.78 376.38 26.43 378.26 22.04 M 379.14 28.39 C 378.59 29.97 379.14 30.52 380.82 30.04 C 381.36 28.46 380.80 27.91 379.14 28.39 Z" />
<path fill="#372e2d" opacity="1.00" d=" M 386.17 22.02 C 389.60 22.00 393.03 22.00 396.46 22.00 C 396.46 23.33 396.46 24.66 396.47 25.98 C 395.63 25.99 393.96 26.01 393.12 26.02 C 393.13 29.01 393.13 32.00 393.13 35.00 C 392.25 35.00 390.49 35.00 389.60 35.00 C 389.60 32.03 389.60 29.06 389.59 26.10 C 388.43 26.03 387.27 25.96 386.12 25.90 C 386.13 24.60 386.15 23.31 386.17 22.02 Z" />
<path fill="#372e2d" opacity="1.00" d=" M 404.54 21.97 C 406.96 22.01 409.41 21.83 411.82 22.21 C 415.07 23.20 416.39 27.63 414.26 30.26 C 412.71 32.10 410.14 31.92 408.00 32.20 C 408.00 32.90 408.00 34.30 408.00 35.00 C 407.13 35.00 405.40 35.00 404.54 35.00 C 404.53 30.66 404.53 26.31 404.54 21.97 M 408.00 26.01 C 408.00 26.53 408.00 27.57 408.00 28.09 C 409.28 27.99 410.57 27.88 411.86 27.78 C 411.69 27.33 411.35 26.43 411.18 25.98 C 410.38 25.99 408.79 26.00 408.00 26.01 Z" />
<path fill="#372e2d" opacity="1.00" d=" M 417.00 22.00 C 420.38 22.00 423.76 21.99 427.15 22.04 C 426.83 24.67 426.40 27.28 426.11 29.92 C 423.88 29.96 421.65 30.01 419.45 30.31 C 421.89 31.09 424.47 31.04 427.00 31.11 C 426.99 32.40 426.98 33.69 426.97 34.97 C 423.65 35.00 420.32 35.00 417.00 35.00 C 417.00 30.67 417.00 26.33 417.00 22.00 Z" />
<path fill="#372e2d" opacity="1.00" d=" M 429.54 22.00 C 430.43 22.00 432.20 22.00 433.09 22.00 C 434.76 24.45 436.47 26.87 438.23 29.25 C 438.25 26.85 438.27 24.45 438.30 22.04 C 439.48 22.02 440.67 22.00 441.86 21.98 C 441.86 26.32 441.86 30.67 441.87 35.01 C 440.67 35.00 439.48 34.99 438.30 34.98 C 436.58 32.51 434.86 30.06 433.06 27.65 C 433.01 30.10 432.99 32.55 432.98 35.00 C 432.12 35.00 430.40 35.00 429.54 35.00 C 429.53 30.67 429.53 26.33 429.54 22.00 Z" />
<path fill="#372e2d" opacity="1.00" d=" M 444.39 28.04 C 444.53 23.40 450.41 20.47 454.33 22.72 C 455.89 23.66 456.93 25.21 458.17 26.50 C 457.38 26.86 455.80 27.58 455.01 27.94 C 453.34 26.71 450.80 24.81 448.98 26.85 C 446.55 28.13 448.88 31.13 450.94 31.04 C 452.56 31.24 453.66 29.74 454.97 29.07 C 456.04 29.54 457.11 30.01 458.19 30.49 C 456.66 32.09 455.33 34.18 453.07 34.78 C 448.93 36.10 443.85 32.55 444.39 28.04 Z" />
<path fill="#372e2d" opacity="1.00" d=" M 459.54 22.00 C 462.89 22.00 466.25 21.99 469.61 22.01 C 469.35 24.68 468.94 27.34 468.60 30.00 C 466.72 30.00 464.86 30.00 463.00 30.00 L 463.00 31.00 C 465.15 31.00 467.30 31.00 469.47 31.00 C 469.46 32.33 469.46 33.67 469.46 35.00 C 466.15 35.00 462.84 35.00 459.54 35.00 C 459.53 30.67 459.53 26.33 459.54 22.00 Z" />
<path fill="#372e2d" opacity="1.00" d=" M 472.74 24.60 C 475.56 20.65 483.13 21.16 484.09 26.37 C 487.17 30.25 482.28 35.57 477.99 35.03 C 472.92 35.14 469.18 28.61 472.74 24.60 M 474.94 29.03 C 475.83 29.96 476.85 30.73 477.87 31.53 C 477.92 30.11 477.98 28.69 478.02 27.27 C 478.73 26.98 480.16 26.40 480.87 26.12 C 479.86 26.05 477.84 25.91 476.83 25.84 C 476.16 26.87 474.91 27.68 474.94 29.03 Z" />
<path fill="#372e2d" opacity="1.00" d=" M 484.90 35.19 C 486.70 30.72 488.59 26.28 490.68 21.93 C 491.48 21.95 493.09 22.00 493.90 22.02 C 495.84 26.35 497.72 30.70 499.55 35.08 C 498.66 35.01 496.86 34.87 495.96 34.81 C 492.37 33.13 488.58 34.90 484.90 35.19 M 491.40 28.36 C 490.86 29.97 491.41 30.51 493.07 29.98 C 493.58 28.37 493.03 27.83 491.40 28.36 Z" />
<path fill="#372e2d" opacity="1.00" d=" M 501.00 21.97 C 502.19 22.00 503.38 22.03 504.58 22.07 C 504.59 23.71 504.59 25.36 504.61 27.00 C 506.11 27.00 507.62 27.00 509.13 27.00 C 509.13 25.32 509.13 23.65 509.14 21.98 C 510.32 22.00 511.52 22.03 512.71 22.05 C 512.74 26.35 512.74 30.65 512.71 34.95 C 511.52 34.97 510.32 35.00 509.14 35.02 C 509.13 33.68 509.13 32.34 509.13 31.00 C 507.61 31.00 506.10 31.00 504.60 31.00 C 504.60 32.33 504.60 33.66 504.61 34.98 C 503.40 34.99 502.20 35.00 501.00 35.01 C 501.00 30.66 501.00 26.32 501.00 21.97 Z" />
<path fill="#372e2d" opacity="1.00" d=" M 519.81 21.99 C 520.65 22.00 522.33 22.00 523.17 22.00 C 525.05 26.41 527.09 30.75 528.80 35.24 C 523.95 33.92 519.03 33.94 514.18 35.23 C 515.90 30.75 517.87 26.38 519.81 21.99 M 520.67 27.93 C 519.55 29.05 521.14 31.26 522.39 29.95 C 523.30 28.94 521.77 26.56 520.67 27.93 Z" />
<path fill="#372e2d" opacity="1.00" d=" M 530.26 22.01 C 531.44 22.00 532.62 22.00 533.80 22.00 C 535.49 24.42 537.19 26.83 538.94 29.21 C 538.98 26.81 539.01 24.42 539.04 22.02 C 540.22 22.02 541.41 22.01 542.60 22.00 C 542.59 26.33 542.59 30.65 542.61 34.98 C 541.42 34.99 540.23 34.99 539.05 35.00 C 537.34 32.53 535.60 30.09 533.80 27.68 C 533.74 30.12 533.73 32.56 533.72 35.00 C 532.56 35.00 531.41 35.00 530.27 35.00 C 530.27 30.67 530.27 26.34 530.26 22.01 Z" />
<path fill="#372e2d" opacity="1.00" d=" M 552.00 21.97 C 554.86 22.09 557.88 21.61 560.62 22.66 C 565.10 24.85 565.11 32.29 560.54 34.37 C 557.81 35.37 554.83 34.92 552.00 35.03 C 552.00 30.68 552.00 26.32 552.00 21.97 M 555.59 25.81 C 555.59 27.53 555.60 29.25 555.61 30.97 C 556.53 31.00 558.38 31.07 559.30 31.10 C 559.70 29.81 560.83 28.44 560.09 27.05 C 558.91 25.84 557.09 26.12 555.59 25.81 Z" />
<path fill="#372e2d" opacity="1.00" d=" M 569.08 22.01 C 569.89 22.00 571.52 21.97 572.33 21.96 C 574.33 26.33 576.26 30.73 578.07 35.19 C 574.97 34.82 571.92 34.14 568.83 33.81 C 568.44 34.11 567.66 34.73 567.27 35.04 C 566.32 35.02 564.41 34.99 563.46 34.97 C 565.29 30.64 567.12 26.30 569.08 22.01 M 570.29 27.84 C 568.99 28.37 569.62 30.68 571.06 30.17 C 572.39 29.72 571.62 27.35 570.29 27.84 Z" />
<path fill="#372e2d" opacity="1.00" d=" M 579.54 22.00 C 580.43 22.00 582.21 22.00 583.10 22.01 C 584.76 24.45 586.47 26.87 588.23 29.25 C 588.25 26.85 588.27 24.44 588.30 22.04 C 589.48 22.02 590.67 22.00 591.86 21.98 C 591.86 26.32 591.86 30.67 591.87 35.01 C 590.67 35.00 589.48 34.99 588.30 34.98 C 586.58 32.52 584.86 30.06 583.07 27.65 C 583.01 30.10 582.99 32.55 582.98 35.00 C 582.12 35.00 580.40 35.00 579.54 35.00 C 579.53 30.67 579.53 26.33 579.54 22.00 Z" />
<path fill="#372e2d" opacity="1.00" d=" M 601.26 21.98 C 603.78 22.02 606.34 21.79 608.83 22.30 C 612.14 23.42 613.10 28.20 610.66 30.63 C 609.13 32.22 606.69 31.82 604.73 32.23 C 604.73 32.92 604.73 34.31 604.73 35.00 C 603.57 35.00 602.41 35.00 601.26 34.99 C 601.27 30.65 601.27 26.32 601.26 21.98 M 604.73 27.99 C 605.61 28.00 607.37 28.01 608.25 28.01 C 608.24 27.37 608.23 26.73 608.23 26.09 C 607.36 26.06 605.61 26.00 604.74 25.96 C 604.73 26.64 604.73 27.32 604.73 27.99 Z" />
<path fill="#372e2d" opacity="1.00" d=" M 614.00 22.00 C 617.38 22.00 620.76 21.99 624.14 22.04 C 623.83 24.66 623.39 27.26 623.11 29.88 C 620.92 29.97 618.69 29.97 616.59 30.65 C 619.03 31.03 621.52 31.03 624.00 31.09 C 623.98 32.38 623.97 33.68 623.97 34.97 C 620.65 35.00 617.32 35.00 614.00 35.00 C 614.00 30.67 614.00 26.33 614.00 22.00 Z" />
<path fill="#372e2d" opacity="1.00" d=" M 626.54 22.00 C 627.43 22.00 629.20 22.00 630.09 22.00 C 631.75 24.44 633.46 26.86 635.22 29.23 C 635.25 26.84 635.27 24.45 635.29 22.06 C 636.47 22.03 637.66 22.00 638.87 21.98 C 638.86 26.32 638.86 30.66 638.87 35.00 C 637.67 35.00 636.49 34.99 635.31 34.99 C 633.59 32.52 631.86 30.06 630.06 27.66 C 630.01 30.10 629.99 32.55 629.99 35.00 C 629.12 35.00 627.40 35.00 626.54 35.00 C 626.53 30.67 626.53 26.33 626.54 22.00 Z" />
<path fill="#372e2d" opacity="1.00" d=" M 642.68 24.67 C 645.49 20.64 653.07 21.14 654.13 26.36 C 657.12 30.26 652.32 35.53 648.04 35.03 C 642.98 35.17 639.21 28.71 642.68 24.67 M 644.92 29.03 C 645.78 29.91 646.75 30.69 647.71 31.49 C 647.88 29.18 647.69 26.48 650.71 26.13 C 649.39 26.04 648.08 25.95 646.77 25.84 C 646.10 26.86 645.06 27.74 644.92 29.03 Z" />
<path fill="#372e2d" opacity="1.00" d=" M 657.54 22.00 C 660.89 22.00 664.25 22.00 667.61 22.00 C 667.35 24.68 666.94 27.33 666.59 30.00 C 664.72 30.00 662.86 30.00 661.00 30.00 L 661.00 31.00 C 663.15 31.00 665.30 31.00 667.47 31.00 C 667.46 32.33 667.46 33.67 667.46 35.00 C 664.15 35.00 660.84 35.00 657.54 35.00 C 657.53 30.67 657.53 26.33 657.54 22.00 Z" />
<path fill="#372e2d" opacity="1.00" d=" M 670.00 21.98 C 671.19 22.00 672.38 22.02 673.58 22.04 C 675.25 24.46 676.97 26.85 678.72 29.22 C 678.73 26.82 678.74 24.41 678.77 22.01 C 679.68 22.01 681.49 22.00 682.40 22.00 C 682.40 26.33 682.40 30.67 682.40 35.00 C 681.51 35.00 679.73 35.00 678.84 35.00 C 677.10 32.51 675.33 30.05 673.48 27.65 C 673.46 30.10 673.46 32.55 673.46 35.00 C 672.59 35.00 670.86 35.00 670.00 35.00 C 670.00 30.66 670.00 26.32 670.00 21.98 Z" />
<path fill="#372e2d" opacity="1.00" d=" M 685.54 21.97 C 688.38 22.13 691.44 21.51 694.13 22.72 C 698.33 24.69 698.66 31.47 694.77 33.92 C 692.01 35.63 688.59 34.83 685.54 35.03 C 685.53 30.68 685.53 26.32 685.54 21.97 M 689.15 25.72 C 689.13 27.57 689.13 29.42 689.15 31.27 C 690.77 30.72 693.83 31.31 693.84 28.87 C 694.41 25.97 691.04 26.16 689.15 25.72 Z" />
<path fill="#372e2d" opacity="1.00" d=" M 702.49 22.46 C 703.55 22.10 704.65 21.86 705.80 21.75 C 707.75 26.23 709.76 30.70 711.58 35.25 C 709.65 35.00 707.72 34.77 705.92 34.02 C 702.88 34.11 699.91 34.83 696.90 35.18 C 698.74 30.93 700.27 26.53 702.49 22.46 M 703.38 28.38 C 702.87 30.00 703.44 30.53 705.09 29.97 C 705.56 28.34 705.00 27.81 703.38 28.38 Z" />
<path fill="#372e2d" opacity="1.00" d=" M 712.73 22.00 C 713.62 22.00 715.38 22.00 716.27 22.00 C 716.26 25.00 716.26 27.99 716.26 30.99 C 718.32 31.00 720.39 31.00 722.47 31.01 C 722.46 32.34 722.46 33.67 722.46 35.00 C 719.22 35.00 715.97 35.00 712.74 35.00 C 712.73 30.67 712.73 26.33 712.73 22.00 Z" />
<path fill="#372e2d" opacity="1.00" d=" M 724.14 21.98 C 725.32 22.00 726.51 22.03 727.72 22.06 C 727.74 26.35 727.74 30.65 727.71 34.95 C 726.51 34.97 725.32 35.00 724.14 35.02 C 724.13 30.67 724.13 26.32 724.14 21.98 Z" />
<path fill="#372e2d" opacity="1.00" d=" M 734.26 22.04 C 735.39 22.03 736.53 22.02 737.68 22.01 C 739.54 26.42 741.57 30.76 743.31 35.22 C 740.86 34.95 738.48 34.31 736.04 34.05 C 733.56 34.29 731.14 34.96 728.67 35.22 C 730.40 30.77 732.38 26.42 734.26 22.04 M 735.11 28.42 C 734.61 30.02 735.19 30.55 736.85 30.00 C 737.33 28.41 736.74 27.88 735.11 28.42 Z" />
<path fill="#372e2d" opacity="1.00" d=" M 744.73 22.04 C 745.60 22.01 747.34 21.96 748.21 21.93 C 749.97 24.38 751.72 26.84 753.51 29.27 C 753.52 26.84 753.53 24.42 753.54 22.00 C 754.44 22.00 756.24 22.00 757.13 22.00 C 757.13 26.35 757.13 30.69 757.13 35.04 C 755.90 35.00 754.67 34.96 753.46 34.92 C 751.81 32.45 750.10 30.03 748.30 27.67 C 748.26 30.12 748.26 32.56 748.26 35.00 C 747.38 35.00 745.62 35.00 744.73 35.00 C 744.73 30.68 744.73 26.36 744.73 22.04 Z" />
<path fill="#372e2d" opacity="1.00" d=" M 113.19 35.49 C 114.10 35.51 115.15 35.20 115.88 35.95 C 115.90 37.50 115.88 39.06 115.82 40.61 C 117.60 38.69 119.30 36.69 121.30 34.98 C 121.75 35.39 122.64 36.22 123.08 36.63 C 121.66 38.33 120.05 39.86 118.46 41.39 C 119.78 43.51 125.55 46.53 121.91 48.69 C 119.64 46.85 117.81 44.54 115.84 42.41 C 115.87 44.36 116.68 50.27 113.36 47.82 C 113.02 43.72 113.32 39.60 113.19 35.49 Z" />
<path fill="#372e2d" opacity="1.00" d=" M 132.98 38.95 C 133.21 34.55 140.77 33.53 141.55 38.15 C 139.50 38.16 137.45 38.09 135.40 38.16 C 136.89 40.67 140.69 40.28 141.91 43.02 C 142.99 46.46 139.27 49.35 136.07 48.50 C 134.82 48.27 132.06 47.56 133.04 45.75 C 135.15 44.58 138.19 46.96 139.70 44.17 C 137.40 42.73 132.74 42.54 132.98 38.95 Z" />
<path fill="#372e2d" opacity="1.00" d=" M 143.54 37.89 C 143.19 33.72 148.69 35.72 151.22 35.74 C 150.98 36.26 150.51 37.31 150.27 37.84 C 148.20 37.79 145.82 37.46 145.93 40.28 C 147.56 40.48 149.20 40.66 150.83 40.89 C 150.66 41.40 150.33 42.42 150.16 42.93 C 148.25 43.10 145.81 42.73 145.91 45.42 C 147.96 45.85 151.13 45.10 151.38 48.09 C 148.81 48.30 146.24 48.31 143.66 48.24 C 143.58 44.79 143.46 41.34 143.54 37.89 Z" />
<path fill="#372e2d" opacity="1.00" d=" M 160.72 40.53 C 161.03 38.67 159.78 34.69 162.87 35.20 C 164.12 39.39 163.41 44.03 163.14 48.36 C 159.61 49.29 161.06 45.19 160.70 43.11 C 158.86 43.11 157.03 43.12 155.20 43.11 C 154.78 44.94 156.03 47.83 153.79 48.71 C 153.48 48.45 152.85 47.94 152.54 47.68 C 152.39 43.53 151.84 39.18 152.90 35.14 C 156.17 34.92 154.88 38.45 155.16 40.53 C 157.01 40.53 158.86 40.53 160.72 40.53 Z" />
<path fill="#372e2d" opacity="1.00" d=" M 164.95 47.97 C 165.50 43.20 167.58 38.56 170.01 34.42 C 174.12 37.59 174.35 43.40 176.27 47.92 C 175.76 48.10 174.76 48.46 174.26 48.64 C 173.73 47.69 173.20 46.75 172.69 45.80 C 171.24 45.81 169.79 45.82 168.34 45.83 C 167.29 46.65 166.64 50.21 164.95 47.97 M 168.61 43.31 C 169.80 43.30 170.99 43.30 172.18 43.29 C 171.59 41.56 170.99 39.84 170.39 38.12 C 169.79 39.85 169.21 41.58 168.61 43.31 Z" />
<path fill="#372e2d" opacity="1.00" d=" M 175.27 35.48 C 178.37 35.19 181.54 35.25 184.60 35.92 C 183.72 37.43 182.26 38.09 180.56 38.18 C 180.56 41.67 180.83 45.20 180.12 48.65 C 179.57 48.51 178.46 48.23 177.91 48.09 C 177.78 44.70 177.79 41.30 177.81 37.91 C 176.96 37.87 175.26 37.80 174.41 37.76 C 174.68 36.99 174.92 36.21 175.27 35.48 Z" />
<path fill="#372e2d" opacity="1.00" d=" M 186.76 35.70 C 188.33 33.80 190.06 36.32 190.41 37.87 C 191.46 41.23 193.39 44.55 193.38 48.11 L 192.10 48.68 C 191.63 47.96 190.70 46.53 190.23 45.82 C 188.80 45.82 187.37 45.78 185.95 45.91 C 185.21 46.84 184.51 47.80 183.85 48.79 C 183.42 48.41 182.56 47.64 182.12 47.25 C 183.80 43.46 184.70 39.31 186.76 35.70 M 187.97 37.90 C 187.37 39.70 186.81 41.51 186.24 43.32 C 187.43 43.31 188.63 43.30 189.82 43.28 C 189.22 41.48 188.63 39.68 187.97 37.90 Z" />
<path fill="#372e2d" opacity="1.00" d=" M 195.07 48.06 C 195.20 43.70 193.40 38.40 196.19 34.67 C 199.12 38.02 201.84 41.61 203.65 45.71 C 203.90 42.30 201.76 38.40 203.72 35.36 L 205.18 35.13 C 206.35 39.20 205.85 43.73 205.55 47.95 L 204.37 48.70 C 201.62 46.22 199.79 42.94 197.42 40.13 C 196.95 42.82 198.85 47.00 196.22 48.59 L 195.07 48.06 Z" />
<path fill="#372e2d" opacity="1.00" d=" M 124.75 35.49 C 127.25 35.43 129.83 35.03 132.24 35.91 C 132.14 38.56 129.16 37.74 127.45 37.95 C 127.37 38.75 127.29 39.55 127.22 40.35 C 128.79 40.51 130.38 40.67 131.95 40.88 C 131.76 41.42 131.37 42.51 131.17 43.05 C 129.88 43.10 128.58 43.15 127.28 43.21 C 127.28 43.79 127.28 44.94 127.28 45.52 C 129.34 45.79 132.14 45.32 132.44 48.13 C 129.92 48.30 127.40 48.31 124.88 48.25 C 124.54 44.00 124.57 39.74 124.75 35.49 Z" />
<path fill="#372e2d" opacity="1.00" d=" M 623.49 41.03 C 626.14 43.30 628.48 46.33 628.30 50.02 C 628.62 53.83 626.32 57.07 623.50 59.36 C 622.99 58.71 621.96 57.40 621.44 56.74 C 622.75 55.01 624.51 53.30 624.54 50.96 C 624.93 48.13 623.10 45.77 621.58 43.60 C 622.21 42.74 622.84 41.88 623.49 41.03 Z" />
<path fill="#372e2d" opacity="1.00" d=" M 547.97 50.02 C 547.74 46.35 550.08 43.32 552.72 41.07 C 553.21 41.72 554.18 43.02 554.66 43.67 C 553.30 45.56 551.64 47.53 551.71 50.02 C 551.42 52.70 553.23 54.83 554.70 56.85 C 554.20 57.47 553.19 58.72 552.68 59.35 C 549.91 57.04 547.62 53.81 547.97 50.02 Z" />
<path fill="#372e2d" opacity="1.00" d=" M 275.00 43.97 C 277.57 44.05 280.22 43.72 282.74 44.38 C 286.24 45.58 286.87 51.13 283.79 53.16 C 282.15 54.04 280.22 53.94 278.43 54.21 C 278.44 54.91 278.46 56.30 278.47 57.00 C 277.60 57.00 275.87 57.00 275.00 57.00 C 275.00 52.66 275.00 48.31 275.00 43.97 M 278.53 48.52 C 276.95 50.73 281.55 49.50 282.60 50.09 C 282.34 48.28 279.68 47.03 278.53 48.52 Z" />
<path fill="#372e2d" opacity="1.00" d=" M 287.54 44.00 C 290.89 44.00 294.25 43.99 297.62 44.02 C 297.35 46.69 296.94 49.34 296.59 52.00 C 294.73 52.00 292.86 52.00 291.00 52.00 L 291.00 53.00 C 293.15 53.00 295.30 53.00 297.46 53.00 C 297.46 54.33 297.46 55.67 297.47 57.00 C 294.15 57.00 290.84 57.00 287.54 57.00 C 287.53 52.67 287.53 48.33 287.54 44.00 Z" />
<path fill="#372e2d" opacity="1.00" d=" M 300.00 43.97 C 301.20 44.00 302.41 44.03 303.62 44.06 C 305.27 46.48 306.98 48.86 308.72 51.22 C 308.73 48.82 308.74 46.41 308.77 44.01 C 309.68 44.01 311.49 44.00 312.40 44.00 C 312.40 48.33 312.40 52.66 312.40 57.00 C 311.51 57.00 309.74 57.00 308.85 57.00 C 307.10 54.52 305.34 52.05 303.48 49.65 C 303.46 52.10 303.46 54.55 303.46 57.00 C 302.59 57.00 300.86 57.00 300.00 57.00 C 300.00 52.66 300.00 48.31 300.00 43.97 Z" />
<path fill="#372e2d" opacity="1.00" d=" M 313.85 44.04 C 315.22 44.02 316.59 44.00 317.96 43.99 C 318.84 45.52 319.71 47.04 320.59 48.57 C 321.46 47.05 322.34 45.53 323.22 44.02 C 324.61 44.02 326.01 44.02 327.41 44.03 C 324.83 47.98 321.48 51.91 322.25 57.00 C 321.41 57.00 319.73 57.00 318.88 57.00 C 319.67 51.93 316.27 48.06 313.85 44.04 Z" />
<path fill="#372e2d" opacity="1.00" d=" M 330.24 44.05 C 331.38 44.04 332.53 44.02 333.69 44.01 C 335.55 48.42 337.57 52.76 339.31 57.22 C 336.86 56.95 334.48 56.31 332.04 56.06 C 329.56 56.29 327.14 56.95 324.67 57.22 C 326.40 52.78 328.38 48.44 330.24 44.05 M 331.10 50.43 C 330.62 52.03 331.21 52.55 332.86 51.99 C 333.32 50.39 332.73 49.87 331.10 50.43 Z" />
<path fill="#372e2d" opacity="1.00" d=" M 340.73 44.00 C 341.64 44.00 343.45 44.01 344.35 44.01 C 344.37 45.65 344.39 47.30 344.42 48.95 C 345.62 47.29 346.82 45.64 348.04 43.99 C 349.52 43.99 351.01 44.00 352.50 44.00 C 350.73 46.23 348.95 48.44 347.21 50.67 C 349.18 52.77 351.16 54.87 353.11 56.99 C 351.52 56.99 349.94 57.00 348.36 57.00 C 347.04 55.49 345.72 54.00 344.40 52.50 C 344.38 54.00 344.37 55.49 344.35 56.99 C 343.45 56.99 341.64 57.00 340.73 57.00 C 340.73 52.67 340.73 48.33 340.73 44.00 Z" />
<path fill="#372e2d" opacity="1.00" d=" M 354.60 44.00 C 355.51 44.00 357.32 44.01 358.23 44.01 C 358.28 48.34 358.28 52.66 358.23 56.99 C 357.32 56.99 355.51 57.00 354.60 57.00 C 354.60 52.67 354.60 48.33 354.60 44.00 Z" />
<path fill="#372e2d" opacity="1.00" d=" M 359.44 44.01 C 362.87 44.00 366.30 44.00 369.73 44.00 C 369.73 45.32 369.74 46.64 369.76 47.96 C 368.63 47.98 367.50 48.01 366.39 48.04 C 366.40 51.03 366.40 54.01 366.40 57.00 C 365.52 57.00 363.75 57.00 362.87 57.00 C 362.87 54.02 362.86 51.05 362.86 48.07 C 362.00 48.04 360.28 47.97 359.42 47.94 C 359.42 46.63 359.43 45.32 359.44 44.01 Z" />
<path fill="#372e2d" opacity="1.00" d=" M 377.17 44.02 C 380.60 44.00 384.03 44.00 387.46 44.00 C 387.46 45.33 387.46 46.66 387.47 47.98 C 386.63 47.99 384.96 48.01 384.12 48.02 C 384.13 51.01 384.13 54.00 384.13 57.00 C 383.25 57.00 381.49 57.00 380.60 57.00 C 380.60 54.03 380.60 51.06 380.59 48.09 C 379.43 48.03 378.27 47.96 377.12 47.90 C 377.13 46.60 377.15 45.31 377.17 44.02 Z" />
<path fill="#372e2d" opacity="1.00" d=" M 389.40 44.00 C 390.58 44.01 391.77 44.01 392.97 44.02 C 393.01 48.34 393.01 52.66 392.97 56.98 C 391.77 56.98 390.58 56.98 389.39 56.98 C 389.40 52.66 389.40 48.33 389.40 44.00 Z" />
<path fill="#372e2d" opacity="1.00" d=" M 395.54 43.97 C 398.37 44.14 401.41 43.52 404.09 44.70 C 408.33 46.64 408.67 53.47 404.76 55.93 C 402.00 57.63 398.59 56.83 395.54 57.03 C 395.53 52.68 395.53 48.32 395.54 43.97 M 399.15 47.71 C 399.14 49.57 399.13 51.42 399.15 53.28 C 400.76 52.73 403.79 53.30 403.84 50.89 C 404.42 47.97 401.06 48.17 399.15 47.71 Z" />
<path fill="#372e2d" opacity="1.00" d=" M 412.82 43.98 C 413.66 43.99 415.33 44.00 416.17 44.01 C 418.05 48.41 420.09 52.75 421.80 57.24 C 416.95 55.92 412.04 55.94 407.18 57.23 C 408.90 52.75 410.87 48.37 412.82 43.98 M 413.63 51.95 C 414.06 51.95 414.93 51.96 415.37 51.97 C 416.97 49.05 411.91 49.01 413.63 51.95 Z" />
<path fill="#372e2d" opacity="1.00" d=" M 423.27 43.99 C 424.45 44.00 425.64 44.02 426.83 44.03 C 426.84 45.66 426.86 47.29 426.88 48.91 C 428.07 47.31 429.27 45.70 430.45 44.08 C 431.96 44.04 433.48 44.01 435.01 43.97 C 433.24 46.22 431.45 48.45 429.69 50.70 C 431.69 52.78 433.68 54.87 435.63 57.00 C 434.05 57.00 432.48 57.00 430.91 57.00 C 429.56 55.51 428.22 54.02 426.88 52.53 C 426.86 54.00 426.84 55.48 426.83 56.97 C 425.64 56.98 424.45 57.00 423.27 57.01 C 423.27 52.67 423.27 48.33 423.27 43.99 Z" />
<path fill="#372e2d" opacity="1.00" d=" M 443.02 43.76 C 447.04 43.17 448.46 47.12 450.36 49.77 C 451.65 47.84 452.95 45.92 454.25 44.00 C 455.37 44.01 456.49 44.03 457.62 44.04 C 457.59 48.36 457.59 52.67 457.61 56.98 C 456.45 56.99 455.29 57.00 454.15 57.01 C 454.13 54.72 454.12 52.42 454.09 50.14 C 452.84 52.04 451.62 53.96 450.38 55.87 C 449.15 54.10 447.95 52.32 446.70 50.56 C 446.62 52.70 446.57 54.85 446.53 56.99 C 445.65 56.99 443.88 57.00 443.00 57.00 C 443.00 52.59 442.98 48.17 443.02 43.76 Z" />
<path fill="#372e2d" opacity="1.00" d=" M 461.00 44.00 C 464.38 44.00 467.76 43.99 471.14 44.04 C 470.83 46.67 470.39 49.29 470.11 51.92 C 467.89 51.96 465.67 52.00 463.47 52.29 C 465.89 53.09 468.47 53.04 471.00 53.11 C 470.98 54.40 470.98 55.69 470.98 56.97 C 467.65 57.00 464.32 57.00 461.00 57.00 C 461.00 52.67 461.00 48.33 461.00 44.00 Z" />
<path fill="#372e2d" opacity="1.00" d=" M 473.73 44.02 C 474.61 44.01 476.37 43.98 477.24 43.96 C 478.99 46.40 480.73 48.85 482.51 51.26 C 482.52 48.84 482.53 46.42 482.54 44.00 C 483.44 44.00 485.24 44.00 486.13 44.00 C 486.13 48.35 486.13 52.70 486.13 57.04 C 484.89 57.00 483.66 56.95 482.44 56.91 C 480.80 54.44 479.09 52.02 477.30 49.67 C 477.26 52.11 477.26 54.56 477.26 57.00 C 476.38 57.00 474.62 57.00 473.73 57.00 C 473.73 52.67 473.73 48.35 473.73 44.02 Z" />
<path fill="#372e2d" opacity="1.00" d=" M 489.00 44.00 C 489.86 44.00 491.58 44.00 492.44 44.00 C 492.48 46.51 492.26 49.06 492.70 51.55 C 493.03 53.38 496.22 53.73 496.67 51.82 C 497.05 49.24 496.85 46.61 496.88 44.00 C 497.77 44.00 499.57 44.00 500.46 44.00 C 500.36 47.30 500.88 50.72 499.98 53.94 C 498.18 58.28 490.67 58.04 489.32 53.50 C 488.71 50.38 489.05 47.16 489.00 44.00 Z" />
<path fill="#372e2d" opacity="1.00" d=" M 503.73 44.00 C 504.62 44.00 506.38 44.00 507.27 44.00 C 507.26 47.00 507.26 50.00 507.26 52.99 C 509.33 53.00 511.39 53.00 513.47 53.00 C 513.46 54.33 513.46 55.67 513.46 57.00 C 510.22 57.00 506.97 57.00 503.74 57.00 C 503.73 52.67 503.73 48.33 503.73 44.00 Z" />
<path fill="#372e2d" opacity="1.00" d=" M 519.37 44.39 L 519.95 44.00 C 520.68 44.00 522.15 44.00 522.89 44.00 C 524.70 47.93 526.33 51.95 528.00 55.95 C 528.21 55.91 528.63 55.83 528.84 55.79 C 529.68 51.92 529.16 47.92 529.25 43.99 C 532.69 44.29 537.60 42.74 539.56 46.58 C 540.89 48.81 539.17 51.11 538.09 53.02 C 539.09 54.35 540.11 55.67 541.13 56.99 C 539.72 56.99 538.33 56.99 536.94 56.99 C 535.65 55.47 534.35 53.96 533.00 52.50 C 532.86 54.00 532.74 55.50 532.64 57.00 C 530.00 56.91 527.36 56.88 524.73 57.00 C 524.34 56.70 523.56 56.11 523.17 55.81 C 520.06 56.15 517.00 56.82 513.90 57.17 C 515.64 52.87 517.51 48.63 519.37 44.39 M 533.10 51.07 C 534.30 50.84 535.49 50.50 536.68 50.18 C 536.50 49.65 536.16 48.60 535.99 48.07 C 535.13 48.05 533.43 47.99 532.58 47.97 C 532.73 49.00 532.87 50.04 533.10 51.07 M 521.22 52.24 C 522.73 51.47 522.74 50.67 521.27 49.85 C 519.75 50.65 519.74 51.45 521.22 52.24 Z" />
<path fill="#372e2d" opacity="1.00" d=" M 556.00 43.97 C 558.59 44.06 561.26 43.71 563.79 44.40 C 567.48 45.73 567.86 51.85 564.21 53.46 C 562.66 53.96 561.02 54.01 559.43 54.21 C 559.44 54.91 559.46 56.30 559.47 57.00 C 558.60 57.00 556.87 57.00 556.00 57.00 C 556.00 52.66 556.00 48.31 556.00 43.97 M 559.32 48.18 C 558.49 50.77 562.07 49.61 563.46 50.16 C 563.22 47.72 561.18 47.81 559.32 48.18 Z" />
<path fill="#372e2d" opacity="1.00" d=" M 567.62 49.13 C 568.83 47.31 569.63 44.69 572.00 44.06 C 574.39 43.50 577.84 45.14 577.61 47.92 C 577.70 50.32 575.35 51.55 573.90 53.06 C 575.17 53.03 576.45 53.01 577.74 52.98 C 577.73 54.32 577.73 55.66 577.74 57.00 C 574.57 57.00 571.42 57.00 568.26 56.99 C 568.26 56.28 568.25 54.86 568.25 54.15 C 570.54 52.23 573.81 50.84 574.35 47.54 C 573.11 48.23 571.93 49.01 570.78 49.82 C 569.72 49.59 568.66 49.36 567.62 49.13 Z" />
<path fill="#372e2d" opacity="1.00" d=" M 580.54 43.97 C 582.95 44.01 585.40 43.83 587.80 44.21 C 591.07 45.17 592.40 49.69 590.22 52.30 C 588.67 54.10 586.12 53.92 584.00 54.20 C 584.00 54.90 584.00 56.30 583.99 57.00 C 583.13 57.00 581.40 57.00 580.54 57.00 C 580.53 52.66 580.53 48.31 580.54 43.97 M 584.00 48.01 C 584.00 48.53 584.00 49.56 584.00 50.07 C 585.27 49.99 586.54 49.90 587.82 49.82 C 587.66 49.36 587.34 48.44 587.18 47.98 C 586.39 47.99 584.80 48.00 584.00 48.01 Z" />
<path fill="#372e2d" opacity="1.00" d=" M 591.89 44.00 C 595.35 44.00 598.80 44.00 602.27 44.00 C 602.26 45.33 602.26 46.66 602.27 47.99 C 601.42 47.99 599.72 48.01 598.87 48.01 C 598.86 51.01 598.86 54.01 598.87 57.00 C 597.70 57.00 596.55 56.99 595.40 56.99 C 595.40 54.00 595.39 51.01 595.36 48.02 C 594.51 48.01 592.80 48.00 591.94 47.99 C 591.92 46.66 591.90 45.33 591.89 44.00 Z" />
<path fill="#372e2d" opacity="1.00" d=" M 604.02 43.74 C 608.03 43.23 609.47 47.08 611.36 49.77 C 612.64 47.85 613.95 45.93 615.25 44.01 C 616.36 44.01 617.48 44.01 618.61 44.01 C 618.59 48.33 618.59 52.65 618.61 56.98 C 617.45 56.99 616.29 57.00 615.14 57.01 C 615.13 54.72 615.12 52.43 615.10 50.15 C 613.84 52.05 612.59 53.96 611.33 55.86 C 610.13 54.08 608.94 52.30 607.71 50.55 C 607.62 52.70 607.57 54.84 607.53 56.99 C 606.65 56.99 604.88 57.00 604.00 57.00 C 604.00 52.58 603.98 48.16 604.02 43.74 Z" />
<path fill="#372e2d" opacity="1.00" d=" M 113.24 55.91 C 112.88 53.00 116.35 54.01 118.14 53.92 C 119.67 53.86 120.83 55.03 122.08 55.73 C 122.07 57.11 122.05 58.50 122.03 59.88 C 121.05 60.49 120.06 61.10 119.08 61.71 C 120.29 63.25 122.64 64.48 122.20 66.76 C 118.81 67.55 117.86 62.62 115.19 61.24 C 115.74 63.20 117.31 67.08 113.91 67.18 C 112.42 63.70 113.50 59.63 113.24 55.91 M 115.87 56.20 C 115.87 57.46 115.87 58.71 115.89 59.97 C 117.50 59.67 119.03 59.08 120.27 57.98 C 118.94 57.07 117.44 56.50 115.87 56.20 Z" />
<path fill="#372e2d" opacity="1.00" d=" M 123.94 54.17 C 126.28 54.14 130.85 52.55 131.17 56.01 C 129.73 56.35 128.25 56.50 126.78 56.66 C 126.27 57.72 125.75 58.78 125.18 59.82 C 127.06 59.69 131.27 57.65 130.80 61.20 C 129.33 61.46 127.85 61.66 126.36 61.79 C 126.34 62.58 126.33 63.36 126.31 64.15 C 128.08 64.52 132.68 63.68 130.62 66.70 C 128.39 66.95 126.14 66.82 123.91 66.80 C 123.56 62.61 123.42 58.35 123.94 54.17 Z" />
<path fill="#372e2d" opacity="1.00" d=" M 132.65 53.89 C 134.72 53.94 136.83 53.77 138.88 54.22 C 142.07 55.26 142.57 60.17 139.81 61.96 C 138.38 62.58 136.79 62.61 135.27 62.86 C 135.30 64.84 135.29 67.12 132.82 67.56 C 132.22 63.03 132.35 58.44 132.65 53.89 M 135.24 56.10 C 135.20 57.55 135.18 59.00 135.17 60.45 C 136.76 60.20 138.90 60.11 139.11 58.03 C 138.46 56.41 136.65 56.47 135.24 56.10 Z" />
<path fill="#372e2d" opacity="1.00" d=" M 143.93 53.98 L 145.19 53.80 C 146.05 56.82 145.04 60.05 145.88 63.04 C 146.86 65.22 149.85 64.92 150.85 62.93 C 151.35 60.07 150.83 57.13 151.28 54.27 C 151.73 54.10 152.64 53.77 153.09 53.61 C 154.42 56.52 153.75 59.91 153.62 63.00 C 152.72 67.94 145.06 68.54 143.22 63.90 C 142.50 60.74 142.85 57.40 143.08 54.18 L 143.93 53.98 Z" />
<path fill="#372e2d" opacity="1.00" d=" M 155.99 54.18 C 158.46 53.92 161.80 53.09 163.53 55.43 C 164.84 56.64 163.50 58.33 163.14 59.66 C 164.97 61.19 165.95 64.08 163.95 65.92 C 161.70 67.48 158.72 66.79 156.16 66.69 C 155.27 62.63 155.70 58.31 155.99 54.18 M 158.47 56.07 C 158.45 56.87 158.42 58.48 158.41 59.29 C 159.61 59.01 160.75 58.55 161.80 57.91 C 161.01 56.77 159.71 56.44 158.47 56.07 M 158.48 61.18 C 158.44 62.34 158.42 63.50 158.41 64.66 C 160.15 64.30 163.01 64.68 162.19 61.97 C 160.97 61.62 159.72 61.41 158.48 61.18 Z" />
<path fill="#372e2d" opacity="1.00" d=" M 166.69 66.25 C 166.50 62.15 166.24 57.98 166.84 53.90 C 167.38 53.91 168.45 53.93 168.99 53.94 C 169.56 57.31 169.21 60.76 169.17 64.17 C 171.30 64.05 174.02 64.01 173.62 66.85 C 171.38 66.57 168.64 67.47 166.69 66.25 Z" />
<path fill="#372e2d" opacity="1.00" d=" M 174.80 53.56 C 175.38 53.73 176.54 54.09 177.11 54.26 C 177.61 58.31 177.70 62.54 177.07 66.57 C 176.54 66.76 175.47 67.14 174.94 67.33 C 174.50 62.75 174.52 58.14 174.80 53.56 Z" />
<path fill="#372e2d" opacity="1.00" d=" M 179.55 54.46 C 182.45 51.77 182.48 57.50 182.16 59.09 C 184.37 57.78 185.77 53.05 188.78 54.24 C 189.57 56.76 185.93 58.21 184.62 60.00 C 186.51 61.86 188.55 63.63 189.93 65.93 L 188.88 66.97 C 185.86 66.63 184.44 62.77 182.15 61.05 C 181.77 63.01 183.39 67.39 179.91 67.17 C 178.92 63.04 179.44 58.67 179.55 54.46 Z" />
<path fill="#372e2d" opacity="1.00" d=" M 275.00 68.00 C 275.89 68.00 277.66 68.01 278.55 68.01 C 278.57 69.65 278.60 71.29 278.62 72.92 C 279.84 71.29 281.07 69.66 282.29 68.02 C 283.78 68.01 285.28 68.00 286.78 67.99 C 285.00 70.21 283.21 72.43 281.44 74.65 C 283.43 76.77 285.43 78.89 287.41 81.03 C 285.76 80.99 284.12 80.96 282.49 80.91 C 281.23 79.43 279.96 77.97 278.67 76.52 C 278.62 78.01 278.57 79.50 278.52 80.99 C 277.64 81.00 275.88 81.00 275.00 81.00 C 275.00 76.67 275.00 72.33 275.00 68.00 Z" />
<path fill="#372e2d" opacity="1.00" d=" M 288.54 68.00 C 291.89 68.00 295.25 67.99 298.62 68.02 C 298.35 70.69 297.94 73.34 297.59 76.00 C 295.73 76.00 293.86 76.00 292.00 76.00 L 292.00 77.00 C 294.15 77.00 296.31 77.00 298.46 77.00 C 298.46 78.33 298.46 79.67 298.47 81.00 C 295.15 81.00 291.84 81.00 288.54 81.00 C 288.53 76.67 288.53 72.33 288.54 68.00 Z" />
<path fill="#372e2d" opacity="1.00" d=" M 300.74 68.00 C 301.58 68.00 303.27 68.00 304.12 67.99 C 305.44 69.92 306.76 71.84 308.09 73.77 C 309.41 71.85 310.72 69.93 312.02 68.00 C 312.86 68.00 314.55 68.00 315.40 68.00 C 315.40 72.33 315.40 76.67 315.40 81.00 C 314.52 81.00 312.75 81.00 311.87 81.00 C 311.87 78.71 311.86 76.41 311.85 74.12 C 310.59 76.06 309.34 78.00 308.08 79.92 C 306.86 78.03 305.65 76.13 304.43 74.24 C 304.40 76.49 304.38 78.74 304.35 80.99 C 303.45 80.99 301.64 81.00 300.74 81.00 C 300.73 76.67 300.73 72.34 300.74 68.00 Z" />
<path fill="#372e2d" opacity="1.00" d=" M 318.73 68.00 C 322.11 67.99 325.49 67.99 328.88 68.07 C 328.57 70.69 328.14 73.29 327.86 75.91 C 325.69 75.98 323.48 75.96 321.41 76.69 C 323.83 77.04 326.28 77.03 328.72 77.08 C 328.71 78.38 328.71 79.67 328.71 80.97 C 325.38 81.00 322.06 81.00 318.73 81.00 C 318.73 76.67 318.73 72.33 318.73 68.00 Z" />
<path fill="#372e2d" opacity="1.00" d=" M 331.26 68.01 C 332.44 68.00 333.62 68.00 334.80 68.00 C 336.49 70.42 338.20 72.82 339.94 75.21 C 339.98 72.81 340.01 70.41 340.05 68.01 C 341.23 68.01 342.42 68.02 343.62 68.02 C 343.59 72.35 343.59 76.67 343.61 80.99 C 342.42 80.99 341.23 80.99 340.05 81.00 C 338.34 78.53 336.60 76.08 334.80 73.68 C 334.74 76.12 334.73 78.56 334.72 81.00 C 333.56 81.00 332.41 81.00 331.26 80.99 C 331.27 76.67 331.27 72.34 331.26 68.01 Z" />
<path fill="#372e2d" opacity="1.00" d=" M 345.64 68.01 C 349.09 68.00 352.54 68.00 356.00 68.00 C 356.00 69.33 356.00 70.66 356.00 71.99 C 355.15 72.00 353.45 72.01 352.60 72.01 C 352.60 75.00 352.60 77.99 352.61 80.98 C 351.45 80.99 350.29 81.00 349.14 81.01 C 349.14 78.01 349.13 75.01 349.10 72.02 C 348.23 72.01 346.50 71.99 345.63 71.98 C 345.63 70.65 345.63 69.33 345.64 68.01 Z" />
<path fill="#372e2d" opacity="1.00" d=" M 357.73 68.00 C 361.11 67.99 364.49 67.99 367.87 68.06 C 367.57 70.69 367.14 73.31 366.86 75.95 C 364.69 75.98 362.51 76.00 360.37 76.31 C 362.73 77.13 365.25 77.03 367.72 77.11 C 367.71 78.39 367.71 79.68 367.71 80.97 C 364.39 81.00 361.06 81.00 357.73 81.00 C 357.73 76.67 357.73 72.33 357.73 68.00 Z" />
<path fill="#372e2d" opacity="1.00" d=" M 370.26 67.99 C 373.68 68.30 378.52 66.75 380.51 70.50 C 381.92 72.73 380.21 75.09 379.08 76.99 C 380.09 78.33 381.10 79.66 382.12 80.99 C 380.72 80.99 379.33 80.99 377.94 80.99 C 376.66 79.47 375.35 77.96 374.00 76.49 C 373.87 77.99 373.74 79.50 373.64 81.00 C 372.51 81.00 371.38 80.99 370.26 80.99 C 370.27 76.66 370.27 72.32 370.26 67.99 M 373.92 75.39 C 375.71 74.91 377.78 74.40 377.49 72.10 C 376.55 72.07 374.68 72.01 373.74 71.97 C 373.79 73.11 373.85 74.25 373.92 75.39 Z" />
<path fill="#372e2d" opacity="1.00" d=" M 383.60 68.00 C 384.51 68.00 386.32 68.01 387.23 68.01 C 387.28 72.34 387.28 76.66 387.23 80.99 C 386.32 80.99 384.51 81.00 383.60 81.00 C 383.60 76.67 383.60 72.33 383.60 68.00 Z" />
<path fill="#372e2d" opacity="1.00" d=" M 393.81 67.99 C 394.65 67.99 396.33 68.00 397.17 68.00 C 399.05 72.41 401.09 76.75 402.80 81.24 C 397.95 79.90 393.04 79.96 388.18 81.23 C 389.90 76.75 391.87 72.37 393.81 67.99 M 394.63 75.94 C 395.06 75.95 395.93 75.97 396.36 75.98 C 398.00 73.08 392.94 72.98 394.63 75.94 Z" />
<path fill="#372e2d" opacity="1.00" d=" M 404.26 68.01 C 405.44 68.00 406.62 68.00 407.80 68.00 C 409.49 70.42 411.19 72.82 412.94 75.20 C 412.98 72.81 413.01 70.41 413.05 68.02 C 414.23 68.01 415.41 68.01 416.60 68.00 C 416.60 72.33 416.59 76.66 416.61 80.99 C 415.42 80.99 414.23 81.00 413.05 81.00 C 411.34 78.53 409.59 76.08 407.80 73.66 C 407.74 76.11 407.73 78.56 407.72 81.00 C 406.56 81.00 405.41 81.00 404.26 80.99 C 404.27 76.66 404.27 72.34 404.26 68.01 Z" />
<path fill="#372e2d" opacity="1.00" d=" M 426.00 67.99 C 426.89 68.00 428.66 68.01 429.55 68.01 C 429.57 69.65 429.59 71.28 429.62 72.92 C 430.84 71.29 432.07 69.66 433.29 68.02 C 434.78 68.01 436.28 68.00 437.78 67.99 C 436.00 70.21 434.22 72.42 432.44 74.64 C 434.44 76.78 436.46 78.91 438.43 81.09 C 436.90 81.08 435.39 81.00 433.88 80.87 C 432.24 79.69 431.03 78.05 429.65 76.60 C 429.61 78.06 429.57 79.52 429.53 80.99 C 428.65 80.99 426.88 81.00 426.00 81.00 C 426.00 76.67 426.00 72.33 426.00 67.99 Z" />
<path fill="#372e2d" opacity="1.00" d=" M 439.74 68.00 C 443.11 67.99 446.49 67.99 449.88 68.07 C 449.57 70.72 449.13 73.35 448.84 76.00 C 446.95 76.00 445.07 76.01 443.19 76.03 L 443.18 76.96 C 445.35 76.99 447.53 77.01 449.71 77.04 C 449.71 78.35 449.71 79.66 449.72 80.96 C 446.39 81.00 443.06 81.00 439.74 81.00 C 439.73 76.67 439.73 72.33 439.74 68.00 Z" />
<path fill="#372e2d" opacity="1.00" d=" M 455.19 68.12 C 457.79 67.35 460.15 68.84 462.36 69.99 C 461.82 70.96 461.29 71.92 460.77 72.89 C 458.72 72.41 456.63 72.02 454.52 72.22 C 456.72 73.26 459.14 73.74 461.33 74.80 C 463.25 75.93 463.08 79.30 461.01 80.19 C 457.85 82.16 453.98 80.55 451.32 78.48 C 451.77 77.76 452.69 76.33 453.15 75.61 C 455.23 76.49 457.40 77.19 459.70 76.89 C 457.49 74.92 453.74 75.60 452.08 73.01 C 450.90 70.75 452.93 68.39 455.19 68.12 Z" />
<path fill="#372e2d" opacity="1.00" d=" M 464.74 68.00 C 468.11 67.99 471.49 67.99 474.87 68.07 C 474.57 70.68 474.13 73.29 473.86 75.91 C 471.66 75.97 469.44 75.98 467.34 76.68 C 469.78 77.03 472.25 77.04 474.72 77.08 C 474.71 78.38 474.71 79.67 474.71 80.97 C 471.38 81.00 468.06 81.00 464.73 81.00 C 464.73 76.67 464.73 72.33 464.74 68.00 Z" />
<path fill="#372e2d" opacity="1.00" d=" M 477.54 68.00 C 478.42 68.00 480.20 68.00 481.08 68.00 C 481.10 69.67 481.12 71.34 481.15 73.01 C 482.63 73.00 484.12 72.99 485.61 72.98 C 485.60 71.32 485.60 69.66 485.60 68.00 C 486.51 68.00 488.32 68.01 489.23 68.01 C 489.28 72.34 489.28 76.66 489.23 80.99 C 488.32 81.00 486.51 81.00 485.60 81.00 C 485.60 79.67 485.60 78.34 485.61 77.01 C 484.11 77.00 482.62 77.00 481.13 77.00 C 481.13 78.33 481.13 79.66 481.13 81.00 C 480.23 81.00 478.44 81.00 477.54 81.00 C 477.53 76.67 477.53 72.33 477.54 68.00 Z" />
<path fill="#372e2d" opacity="1.00" d=" M 496.25 68.04 C 497.39 68.03 498.53 68.02 499.69 68.01 C 501.54 72.42 503.57 76.76 505.31 81.22 C 502.83 80.96 500.43 80.29 497.96 80.05 C 495.51 80.31 493.12 80.95 490.67 81.22 C 492.40 76.77 494.38 72.43 496.25 68.04 M 497.13 74.40 C 496.59 75.98 497.16 76.53 498.83 76.03 C 499.35 74.44 498.78 73.90 497.13 74.40 Z" />
<path fill="#372e2d" opacity="1.00" d=" M 503.91 68.00 C 507.36 68.00 510.81 68.00 514.26 68.00 C 514.26 69.33 514.26 70.66 514.27 71.99 C 513.42 71.99 511.72 72.01 510.87 72.01 C 510.86 75.01 510.86 78.01 510.87 81.01 C 509.70 81.00 508.55 80.99 507.40 80.98 C 507.40 78.00 507.39 75.01 507.36 72.02 C 506.50 72.01 504.77 71.99 503.90 71.98 C 503.89 70.66 503.90 69.33 503.91 68.00 Z" />
<path fill="#372e2d" opacity="1.00" d=" M 512.91 81.17 C 514.71 76.71 516.59 72.27 518.68 67.93 C 519.49 67.95 521.10 68.00 521.90 68.02 C 523.83 72.32 525.68 76.65 527.53 80.99 C 526.58 81.00 524.68 81.02 523.73 81.03 C 523.34 80.73 522.57 80.11 522.18 79.81 C 519.07 80.15 516.01 80.82 512.91 81.17 M 519.38 74.38 C 518.87 76.00 519.44 76.53 521.08 75.97 C 521.57 74.34 521.00 73.81 519.38 74.38 Z" />
<path fill="#372e2d" opacity="1.00" d=" M 529.00 67.98 C 530.19 68.00 531.38 68.02 532.58 68.04 C 534.25 70.46 535.97 72.85 537.72 75.22 C 537.73 72.82 537.74 70.41 537.77 68.01 C 538.68 68.01 540.49 68.00 541.40 68.00 C 541.40 72.33 541.40 76.67 541.40 81.00 C 540.51 81.00 538.73 81.00 537.84 81.00 C 536.10 78.51 534.33 76.05 532.48 73.64 C 532.46 76.10 532.46 78.55 532.46 81.00 C 531.59 81.00 529.86 81.00 529.00 81.00 C 529.00 76.66 529.00 72.32 529.00 67.98 Z" />
<path fill="#372e2d" opacity="1.00" d=" M 550.74 67.98 C 554.08 68.33 558.82 66.78 560.92 70.28 C 562.50 72.52 560.79 75.06 559.54 76.98 C 560.56 78.33 561.59 79.67 562.63 81.02 C 561.21 81.00 559.81 80.98 558.41 80.96 C 557.15 79.44 555.88 77.95 554.52 76.54 C 554.39 78.02 554.28 79.51 554.18 81.00 C 553.32 81.00 551.60 81.00 550.74 81.00 C 550.73 76.66 550.73 72.32 550.74 67.98 M 554.25 71.78 C 554.30 72.65 554.39 74.39 554.43 75.26 C 555.64 74.90 556.88 74.58 558.07 74.10 C 558.28 71.76 555.80 72.17 554.25 71.78 Z" />
<path fill="#372e2d" opacity="1.00" d=" M 564.00 68.00 C 567.38 67.99 570.76 67.99 574.15 68.04 C 573.82 70.67 573.39 73.28 573.11 75.92 C 570.88 75.96 568.65 76.01 566.44 76.32 C 568.88 77.08 571.46 77.04 574.00 77.11 C 573.98 78.40 573.98 79.68 573.98 80.97 C 570.65 81.00 567.32 81.00 564.00 81.00 C 564.00 76.67 564.00 72.33 564.00 68.00 Z" />
<path fill="#372e2d" opacity="1.00" d=" M 576.74 67.97 C 579.16 68.02 581.62 67.81 584.03 68.23 C 587.74 69.14 588.75 74.62 585.82 76.96 C 584.19 78.06 582.09 77.91 580.23 78.22 C 580.24 78.91 580.26 80.30 580.27 81.00 C 579.38 81.00 577.62 81.00 576.74 81.00 C 576.73 76.66 576.73 72.31 576.74 67.97 M 579.65 73.89 C 581.27 73.88 582.90 73.82 584.52 73.71 C 583.54 71.61 580.07 71.12 579.65 73.89 Z" />
<path fill="#372e2d" opacity="1.00" d=" M 589.27 68.00 C 590.41 68.00 591.56 68.00 592.71 68.00 C 592.75 70.62 592.50 73.29 593.05 75.88 C 593.67 77.54 596.11 77.46 596.92 76.00 C 597.30 73.35 597.13 70.65 597.15 67.98 C 598.33 68.00 599.52 68.02 600.72 68.05 C 600.68 71.21 601.01 74.42 600.38 77.54 C 598.86 82.20 591.09 82.21 589.57 77.57 C 588.99 74.41 589.31 71.18 589.27 68.00 Z" />
<path fill="#372e2d" opacity="1.00" d=" M 603.74 67.98 C 606.63 68.12 609.71 67.53 612.47 68.63 C 614.51 69.77 613.83 72.29 613.23 74.09 C 614.20 75.97 615.22 78.66 613.04 80.15 C 610.25 81.71 606.79 80.76 603.74 81.02 C 603.73 76.67 603.73 72.32 603.74 67.98 M 607.53 72.16 C 607.74 73.49 608.47 73.71 609.70 72.84 C 609.47 71.51 608.75 71.28 607.53 72.16 Z" />
<path fill="#372e2d" opacity="1.00" d=" M 616.73 68.00 C 617.62 68.00 619.38 68.00 620.27 68.00 C 620.26 71.00 620.26 73.99 620.26 76.99 C 622.32 77.00 624.39 77.00 626.47 77.00 C 626.46 78.34 626.46 79.67 626.46 81.00 C 623.22 81.00 619.97 81.00 616.73 81.00 C 616.73 76.67 616.73 72.33 616.73 68.00 Z" />
<path fill="#372e2d" opacity="1.00" d=" M 628.14 67.98 C 629.32 68.00 630.51 68.03 631.72 68.05 C 631.74 72.35 631.74 76.66 631.71 80.96 C 630.51 80.98 629.32 81.00 628.14 81.02 C 628.13 76.67 628.13 72.32 628.14 67.98 Z" />
<path fill="#372e2d" opacity="1.00" d=" M 634.27 67.99 C 635.45 68.00 636.63 68.02 637.83 68.03 C 637.84 69.65 637.86 71.27 637.89 72.88 C 639.08 71.28 640.28 69.68 641.47 68.07 C 642.97 68.03 644.49 68.00 646.01 67.98 C 644.24 70.22 642.46 72.44 640.69 74.68 C 642.68 76.77 644.67 78.87 646.63 81.00 C 645.05 81.00 643.48 81.00 641.91 81.01 C 640.56 79.51 639.22 78.02 637.88 76.53 C 637.86 78.01 637.84 79.49 637.83 80.97 C 636.63 80.98 635.45 80.99 634.27 81.01 C 634.26 76.67 634.26 72.33 634.27 67.99 Z" />
<path fill="#372e2d" opacity="1.00" d=" M 654.39 68.01 C 655.58 68.01 656.77 68.02 657.97 68.03 C 658.01 72.34 658.01 76.66 657.97 80.98 C 656.77 80.98 655.58 80.99 654.39 80.99 C 654.40 76.66 654.40 72.34 654.39 68.01 Z" />
<path fill="#372e2d" opacity="1.00" d=" M 660.54 68.00 C 661.43 68.00 663.20 68.00 664.09 68.00 C 665.76 70.45 667.46 72.87 669.23 75.26 C 669.25 72.85 669.27 70.45 669.30 68.04 C 670.48 68.02 671.67 68.00 672.87 67.98 C 672.86 72.32 672.86 76.67 672.87 81.01 C 671.67 81.00 670.48 80.99 669.30 80.98 C 667.58 78.52 665.86 76.06 664.06 73.66 C 664.00 76.10 663.99 78.55 663.98 81.00 C 663.12 81.00 661.40 81.00 660.54 81.00 C 660.53 76.67 660.53 72.33 660.54 68.00 Z" />
<path fill="#372e2d" opacity="1.00" d=" M 676.00 67.97 C 678.86 68.09 681.87 67.61 684.61 68.66 C 689.09 70.83 689.12 78.25 684.57 80.36 C 681.84 81.38 678.84 80.92 676.00 81.03 C 676.00 76.68 676.00 72.32 676.00 67.97 M 679.57 71.88 C 679.57 73.56 679.58 75.25 679.60 76.94 C 680.82 77.00 682.04 77.06 683.28 77.13 C 683.65 75.85 684.85 74.50 684.11 73.15 C 683.03 71.73 681.09 72.16 679.57 71.88 Z" />
<path fill="#372e2d" opacity="1.00" d=" M 695.19 68.14 C 700.04 66.72 705.23 72.09 703.08 76.85 C 701.24 81.82 693.77 82.43 690.99 78.01 C 688.20 74.38 690.94 68.96 695.19 68.14 M 695.22 72.18 C 693.84 72.79 692.66 74.45 693.90 75.83 C 695.52 77.81 698.87 77.31 699.96 75.01 C 700.10 72.59 697.25 71.33 695.22 72.18 Z" />
<path fill="#372e2d" opacity="1.00" d=" M 705.73 68.02 C 706.61 68.01 708.36 67.98 709.24 67.96 C 710.99 70.40 712.72 72.85 714.51 75.27 C 714.52 72.84 714.53 70.42 714.54 68.00 C 715.44 68.00 717.24 68.00 718.13 68.00 C 718.13 72.36 718.13 76.71 718.13 81.06 C 716.88 81.00 715.63 80.94 714.40 80.87 C 712.78 78.41 711.09 76.01 709.30 73.67 C 709.26 76.11 709.26 78.56 709.26 81.00 C 708.38 81.00 706.62 81.00 705.73 81.00 C 705.73 76.67 705.73 72.35 705.73 68.02 Z" />
<path fill="#372e2d" opacity="1.00" d=" M 721.26 68.01 C 724.63 68.00 728.00 67.99 731.38 68.02 C 731.01 70.66 730.57 73.28 730.31 75.93 C 728.19 75.97 726.06 76.01 723.97 76.27 C 726.27 77.20 728.79 77.00 731.23 77.09 C 731.23 78.39 731.22 79.69 731.23 81.00 C 727.90 81.00 724.58 81.00 721.26 81.00 C 721.27 76.67 721.27 72.34 721.26 68.01 Z" />
<path fill="#372e2d" opacity="1.00" d=" M 733.37 71.06 C 734.80 66.52 740.90 67.71 743.88 70.04 C 743.30 71.01 742.74 71.99 742.18 72.96 C 740.23 72.40 738.22 71.98 736.19 71.93 C 738.45 73.90 742.08 73.48 743.95 75.95 C 744.67 77.86 743.63 80.26 741.55 80.67 C 738.42 81.92 735.35 80.19 732.80 78.53 C 733.26 77.83 734.18 76.43 734.64 75.73 C 736.64 76.45 738.71 76.89 740.83 77.13 C 740.60 76.78 740.15 76.07 739.93 75.71 C 737.30 75.20 732.76 74.85 733.37 71.06 Z" />
<path fill="#372e2d" opacity="1.00" d=" M 746.40 68.00 C 747.58 68.01 748.77 68.02 749.97 68.03 C 750.01 72.35 750.01 76.67 749.97 80.99 C 748.76 80.98 747.56 80.97 746.37 80.95 C 746.41 76.64 746.40 72.32 746.40 68.00 Z" />
<path fill="#372e2d" opacity="1.00" d=" M 756.42 68.19 C 757.56 68.09 758.70 68.01 759.86 67.92 C 761.79 72.26 763.67 76.62 765.53 80.99 C 764.58 81.00 762.68 81.02 761.73 81.03 C 761.35 80.73 760.58 80.11 760.19 79.81 C 757.07 80.15 754.01 80.83 750.90 81.17 C 752.66 76.81 754.58 72.52 756.42 68.19 M 757.38 74.38 C 756.86 75.99 757.43 76.52 759.08 75.97 C 759.57 74.35 759.00 73.82 757.38 74.38 Z" />
<path fill="#372e2d" opacity="1.00" d=" M 113.24 73.96 C 112.67 72.17 114.91 72.84 115.85 72.44 C 115.84 76.66 116.02 80.88 115.79 85.10 C 115.35 85.25 114.46 85.55 114.02 85.70 C 112.31 82.20 113.57 77.81 113.24 73.96 Z" />
<path fill="#372e2d" opacity="1.00" d=" M 126.12 72.46 C 126.98 72.57 127.85 72.66 128.71 72.85 C 128.86 76.90 128.89 80.96 128.70 85.01 C 128.31 85.17 127.52 85.50 127.12 85.66 C 124.62 83.11 122.75 80.05 120.53 77.28 C 120.55 79.90 120.75 82.52 120.45 85.13 L 119.23 85.63 L 118.01 85.12 C 118.02 80.66 116.98 75.84 118.87 71.64 C 121.69 74.42 123.83 77.75 126.24 80.86 C 126.17 78.06 126.11 75.26 126.12 72.46 Z" />
<path fill="#372e2d" opacity="1.00" d=" M 147.39 72.45 C 151.33 71.24 155.50 74.96 155.07 78.98 C 155.56 83.20 151.05 86.91 147.01 85.39 C 141.24 83.64 141.43 73.82 147.39 72.45 M 147.37 75.29 C 143.81 77.22 145.64 84.29 149.98 83.02 C 154.51 81.42 152.05 72.67 147.37 75.29 Z" />
<path fill="#372e2d" opacity="1.00" d=" M 180.45 72.63 C 182.54 71.74 186.03 72.29 186.24 75.04 C 184.46 75.53 182.61 75.11 180.81 75.16 C 181.00 78.44 186.86 77.23 186.89 80.96 C 187.38 85.70 180.62 87.15 177.76 84.15 C 177.59 80.15 183.81 85.17 184.15 81.14 C 182.15 79.95 179.51 79.73 178.01 77.82 C 177.23 75.75 178.50 73.45 180.45 72.63 Z" />
<path fill="#372e2d" opacity="1.00" d=" M 188.84 72.14 C 189.41 72.32 190.57 72.67 191.15 72.84 C 191.23 77.09 191.23 81.35 190.99 85.59 C 190.05 85.28 188.18 85.51 188.42 83.99 C 188.35 80.04 188.11 76.05 188.84 72.14 Z" />
<path fill="#372e2d" opacity="1.00" d=" M 192.50 84.32 C 193.90 79.89 195.06 75.18 197.97 71.46 C 201.48 75.04 202.25 80.33 203.86 84.90 C 201.95 86.83 201.19 84.35 200.29 82.91 C 198.86 82.87 197.44 82.85 196.02 82.83 C 195.20 84.25 193.47 87.62 192.50 84.32 M 196.31 80.37 C 197.51 80.37 198.71 80.36 199.92 80.35 C 199.29 78.56 198.69 76.77 198.06 74.99 C 197.46 76.78 196.89 78.58 196.31 80.37 Z" />
<path fill="#372e2d" opacity="1.00" d=" M 130.81 72.64 C 132.88 72.56 134.98 72.39 137.04 72.70 C 142.57 73.83 143.09 83.03 137.94 85.01 C 135.64 85.75 133.17 85.35 130.80 85.31 C 130.72 81.09 130.72 76.86 130.81 72.64 M 132.21 74.04 C 133.88 76.23 133.56 79.01 133.56 81.60 C 133.15 82.28 132.75 82.96 132.36 83.65 C 132.87 83.68 133.89 83.72 134.39 83.75 L 134.04 83.26 C 137.90 83.51 140.12 79.13 137.84 76.14 C 136.14 75.04 134.11 74.63 132.21 74.04 Z" />
<path fill="#372e2d" opacity="1.00" d=" M 156.78 85.34 C 156.89 80.82 155.58 75.81 157.75 71.66 C 160.99 75.03 163.42 79.04 166.06 82.88 C 165.26 79.57 164.32 76.20 164.92 72.77 C 165.45 72.65 166.52 72.41 167.06 72.30 C 168.13 76.31 167.56 80.61 167.46 84.73 C 167.12 85.02 166.45 85.59 166.11 85.88 C 162.65 83.01 161.17 78.62 158.37 75.26 C 158.60 78.58 159.97 81.81 159.20 85.19 C 158.60 85.23 157.38 85.30 156.78 85.34 Z" />
<path fill="#372e2d" opacity="1.00" d=" M 169.62 72.58 C 172.08 72.51 174.54 72.53 176.99 72.80 C 176.80 73.34 176.42 74.42 176.23 74.95 C 174.34 75.13 171.81 74.61 171.65 77.25 C 173.47 77.70 175.84 77.27 177.06 79.05 C 175.39 80.85 171.22 79.25 171.96 82.80 C 173.38 82.83 174.81 82.86 176.23 82.88 C 176.45 83.47 176.88 84.64 177.10 85.22 C 174.60 85.42 172.10 85.45 169.60 85.38 C 169.45 81.11 169.44 76.84 169.62 72.58 Z" />
</g>
</svg>
