<?xml version="1.0" encoding="UTF-8" ?>
<!DOCTYPE svg PUBLIC "-//W3C//DTD SVG 1.1//EN" "http://www.w3.org/Graphics/SVG/1.1/DTD/svg11.dtd">
<svg width="1945pt" height="588pt" viewBox="0 0 1945 588" version="1.1" xmlns="http://www.w3.org/2000/svg">
<g id="#000000ff">
<path fill="#000000" opacity="1.00" d=" M 360.84 80.74 C 372.87 76.07 386.84 76.70 398.35 82.56 C 409.23 87.98 417.82 97.84 421.58 109.42 C 426.04 122.64 424.11 137.83 416.37 149.45 C 409.25 159.92 401.97 170.28 394.84 180.74 C 398.17 185.92 398.72 192.99 395.22 198.24 C 388.38 208.31 381.39 218.28 374.51 228.32 C 377.41 230.27 380.25 232.89 383.94 233.04 C 387.65 233.30 391.27 231.30 393.25 228.20 C 400.32 217.96 407.40 207.72 414.45 197.46 C 416.63 194.08 419.24 190.67 423.14 189.21 C 430.02 186.14 438.80 189.06 442.49 195.61 C 445.62 200.79 445.25 207.72 441.70 212.59 C 422.37 240.61 403.04 268.62 383.71 296.63 C 379.52 302.33 378.52 310.18 381.32 316.70 C 384.55 324.75 393.30 330.12 401.95 329.29 C 408.21 328.87 413.92 325.26 417.51 320.19 C 411.02 312.74 407.38 302.81 408.05 292.90 C 409.10 279.61 415.01 266.84 424.17 257.19 C 431.39 249.65 440.98 244.52 451.20 242.41 C 447.39 236.01 448.50 227.06 454.38 222.28 C 457.19 219.77 460.92 218.77 464.61 218.49 C 461.67 210.03 461.41 200.63 464.19 192.10 C 467.46 181.64 475.13 172.67 484.94 167.79 C 494.60 162.87 506.23 162.04 516.50 165.50 C 527.38 169.05 536.57 177.38 541.17 187.86 C 546.31 199.24 545.82 212.95 539.93 223.95 C 533.18 237.01 519.02 245.63 504.35 245.92 C 506.81 252.76 504.28 261.14 497.87 264.84 C 494.57 266.98 490.53 267.28 486.71 266.92 C 488.55 278.43 486.56 290.54 480.80 300.69 C 474.79 311.37 465.53 320.26 454.37 325.40 C 445.49 329.30 435.17 329.37 426.10 326.06 C 420.30 334.49 410.33 339.93 400.04 339.72 C 388.03 339.78 376.45 332.12 371.87 321.01 C 367.74 311.55 368.80 300.07 374.61 291.54 C 394.14 263.13 413.81 234.82 433.30 206.39 C 435.57 203.52 433.53 198.89 429.97 198.43 C 427.63 197.96 425.54 199.49 424.38 201.39 C 416.75 212.44 409.15 223.50 401.50 234.54 C 396.90 241.35 388.00 244.83 379.99 242.92 C 375.67 242.07 372.12 239.33 368.57 236.90 C 357.86 252.43 347.15 267.97 336.42 283.49 C 332.82 288.92 325.84 291.07 319.62 289.76 C 318.15 291.92 316.32 293.95 315.44 296.46 C 314.80 298.95 316.50 301.22 318.55 302.43 C 346.00 321.30 373.37 340.30 400.83 359.15 C 406.66 363.11 413.40 358.84 419.42 357.66 C 428.61 355.63 438.29 350.25 447.67 354.48 C 454.05 357.76 459.59 362.45 465.62 366.32 C 470.92 369.52 474.11 375.90 473.08 382.07 C 472.58 386.17 469.90 389.47 467.62 392.75 C 472.75 396.70 479.70 399.47 481.84 406.14 C 485.06 414.44 479.64 424.31 471.09 426.45 C 471.09 430.21 470.55 434.14 468.22 437.23 C 465.36 441.52 460.23 443.69 455.18 443.81 C 454.29 451.71 447.22 458.06 439.23 457.82 C 438.56 460.92 437.60 464.08 435.42 466.49 C 430.46 472.29 421.14 473.44 414.87 469.13 C 401.66 460.03 388.42 450.98 375.29 441.77 C 369.61 437.72 368.04 430.62 365.40 424.59 C 363.98 420.83 360.20 418.99 357.14 416.79 C 318.89 390.40 280.64 364.02 242.41 337.61 C 230.17 329.18 221.58 315.72 219.02 301.08 C 216.40 286.84 219.53 271.64 227.61 259.62 C 232.74 252.04 238.03 244.57 243.17 236.99 C 239.70 231.65 239.31 224.32 243.09 219.03 C 262.51 190.83 281.98 162.65 301.43 134.47 C 304.37 130.06 309.67 127.26 315.00 127.73 C 316.30 127.51 318.23 128.57 319.04 127.07 C 325.87 117.23 332.64 107.33 339.47 97.49 C 344.72 89.95 352.25 84.01 360.84 80.74 M 364.45 90.52 C 357.68 93.10 351.79 97.84 347.72 103.83 C 340.95 113.63 334.19 123.43 327.43 133.24 C 347.19 146.85 366.88 160.57 386.73 174.04 C 393.54 164.10 400.44 154.21 407.25 144.26 C 410.37 139.68 412.39 134.38 413.15 128.89 C 415.18 114.98 408.13 100.29 396.03 93.15 C 386.66 87.46 374.64 86.48 364.45 90.52 M 312.31 138.36 C 310.31 139.30 309.33 141.44 308.06 143.12 C 289.34 170.36 270.49 197.51 251.77 224.75 C 249.77 227.21 250.75 230.98 253.46 232.45 C 275.81 247.82 298.05 263.34 320.47 278.60 C 322.85 280.58 326.63 279.79 328.11 277.09 C 346.66 250.29 365.12 223.43 383.67 196.63 C 385.05 194.54 386.81 192.57 387.34 190.05 C 387.26 187.83 385.81 186.08 383.99 184.98 C 362.19 169.75 340.23 154.77 318.39 139.61 C 316.68 138.32 314.40 137.30 312.31 138.36 M 503.08 173.77 C 503.40 176.35 504.53 179.10 503.51 181.66 C 502.14 184.89 497.27 185.63 494.99 182.96 C 493.33 180.93 493.43 178.09 492.81 175.67 C 488.54 177.37 484.64 179.88 481.35 183.08 C 483.01 184.26 484.79 185.32 486.25 186.78 C 488.59 189.34 487.25 193.97 483.94 194.95 C 480.62 196.14 477.96 193.26 475.39 191.67 C 473.58 195.90 472.63 200.44 472.54 205.04 C 474.63 204.69 476.72 204.14 478.86 204.23 C 482.22 204.63 484.30 208.77 482.63 211.72 C 481.15 214.80 477.27 214.61 474.45 215.31 C 476.35 220.06 479.17 224.49 483.07 227.84 C 488.66 232.95 496.32 235.02 503.72 235.52 C 502.79 232.76 502.07 229.41 504.03 226.91 C 505.81 224.48 509.50 224.43 511.79 226.13 C 513.66 227.87 513.53 230.61 513.95 232.94 C 518.51 232.37 522.04 229.08 525.34 226.16 C 522.67 224.59 518.89 222.64 519.36 218.95 C 519.42 216.30 521.90 214.84 523.78 213.45 C 526.79 213.84 528.91 216.25 531.79 216.96 C 533.20 212.90 534.08 208.67 533.75 204.35 C 531.50 205.33 529.05 205.40 526.66 205.44 C 524.69 203.58 522.61 200.99 523.87 198.13 C 525.14 194.83 528.96 194.35 532.02 194.11 C 530.84 189.74 528.02 186.05 524.99 182.79 C 523.68 184.51 522.57 186.44 520.90 187.84 C 518.15 189.74 513.89 188.16 513.09 184.90 C 512.14 181.67 514.92 179.15 516.44 176.64 C 512.22 174.80 507.68 173.86 503.08 173.77 M 459.63 235.35 C 460.58 237.37 462.48 238.74 464.37 239.83 C 468.71 242.81 472.95 245.94 477.37 248.82 C 479.02 249.94 480.92 250.84 482.00 252.61 C 484.41 254.43 486.80 257.05 490.02 257.09 C 492.25 257.26 493.59 255.21 495.07 253.90 C 495.02 252.34 495.02 250.78 495.04 249.23 C 493.15 247.24 490.97 245.58 488.60 244.21 L 487.97 244.75 C 485.99 243.04 483.85 241.55 481.61 240.22 C 476.54 236.73 471.57 233.07 466.42 229.69 C 462.90 227.91 458.50 231.59 459.63 235.35 M 251.28 243.58 C 246.41 250.64 241.53 257.69 236.67 264.75 C 231.01 272.95 228.08 283.00 228.53 292.96 C 228.99 304.47 233.90 315.75 242.10 323.86 C 246.14 327.96 251.12 330.92 255.80 334.23 C 293.43 360.25 331.16 386.13 368.72 412.24 C 377.21 417.79 375.35 430.73 384.44 435.55 C 396.53 443.77 408.44 452.25 420.61 460.35 C 423.44 462.62 428.42 460.72 428.64 457.00 C 429.53 453.02 423.97 451.84 424.30 448.03 C 423.93 444.52 427.86 441.88 431.06 442.92 C 433.65 443.93 435.58 446.11 438.19 447.11 C 441.03 447.98 444.56 445.89 444.61 442.76 C 445.30 438.90 439.91 437.74 440.25 433.98 C 439.91 430.45 443.86 427.81 447.08 428.90 C 449.61 429.94 451.53 432.05 454.09 433.05 C 457.25 434.13 461.06 431.37 460.56 427.92 C 460.58 424.83 456.62 423.81 456.29 420.87 C 455.71 418.27 457.34 415.50 459.88 414.74 C 463.29 413.58 466.37 417.99 469.66 415.74 C 472.69 414.26 473.25 409.68 470.57 407.59 C 460.67 400.40 450.43 393.66 440.45 386.59 C 438.30 385.18 437.61 382.10 438.88 379.89 C 440.17 377.35 443.73 376.36 446.10 377.99 C 450.49 380.80 454.77 383.79 459.04 386.78 C 460.10 385.24 461.23 383.74 462.15 382.11 C 463.43 379.97 462.71 376.93 460.59 375.62 C 455.66 372.12 450.73 368.64 445.73 365.25 C 443.27 363.48 440.08 362.69 437.12 363.55 C 430.73 365.23 424.37 367.10 417.99 368.85 C 413.43 370.10 408.78 371.82 403.98 371.10 C 400.34 370.72 396.93 369.18 393.97 367.09 C 367.74 348.97 341.49 330.87 315.25 312.77 C 310.87 310.07 306.47 306.53 305.40 301.20 C 303.43 295.10 306.78 289.15 310.50 284.53 C 290.83 270.79 271.03 257.22 251.28 243.58 M 447.71 253.76 C 450.31 255.93 453.83 257.23 455.73 260.14 C 458.00 264.12 453.31 269.23 449.17 267.25 C 445.08 264.93 441.40 261.97 437.49 259.38 C 434.73 261.52 432.18 263.91 429.87 266.53 C 433.91 269.37 438.04 272.09 442.06 274.96 C 443.71 276.04 444.83 277.99 444.52 280.01 C 444.29 283.40 440.14 285.75 437.16 284.05 C 432.59 281.31 428.38 278.02 423.93 275.09 C 422.34 278.19 421.02 281.42 419.96 284.74 C 423.71 287.44 427.71 289.82 431.31 292.73 C 434.53 295.54 432.29 301.51 428.01 301.56 C 424.19 301.40 421.55 298.06 418.36 296.32 C 418.02 303.92 421.76 311.73 428.47 315.54 C 434.11 319.01 441.23 319.30 447.37 316.99 C 445.24 313.78 440.22 313.10 439.50 308.93 C 438.62 305.06 443.19 301.45 446.70 303.37 C 450.72 305.63 454.35 308.50 458.18 311.05 C 460.93 308.95 463.45 306.58 465.76 304.01 C 461.66 301.16 457.51 298.39 453.49 295.44 C 451.29 294.05 450.47 290.99 451.72 288.71 C 453.01 286.03 456.78 285.03 459.19 286.83 C 463.44 289.56 467.58 292.48 471.72 295.38 C 473.28 292.29 474.60 289.10 475.69 285.82 C 471.89 283.08 467.84 280.69 464.27 277.67 C 461.04 274.68 463.68 268.71 468.03 268.94 C 471.69 269.29 474.24 272.41 477.30 274.12 C 477.50 267.23 474.53 260.20 468.89 256.09 C 462.95 251.43 454.56 250.85 447.71 253.76 Z" />
<path fill="#000000" opacity="1.00" d=" M 315.36 152.46 C 318.40 151.33 322.03 153.76 322.14 157.01 C 322.33 158.69 321.35 160.14 320.48 161.47 C 305.20 183.53 290.01 205.64 274.75 227.70 C 273.33 230.22 269.86 231.28 267.39 229.63 C 264.83 228.13 264.20 224.39 266.04 222.08 C 281.22 199.96 296.54 177.92 311.72 155.80 C 312.69 154.47 313.67 152.93 315.36 152.46 Z" />
<path fill="#000000" opacity="1.00" d=" M 366.46 187.51 C 371.54 185.87 375.25 192.82 371.55 196.42 C 356.11 218.71 340.78 241.07 325.32 263.35 C 323.54 266.06 319.19 266.27 317.13 263.77 C 315.44 261.93 315.50 258.99 317.01 257.07 C 332.23 234.93 347.55 212.85 362.76 190.71 C 363.71 189.38 364.76 187.89 366.46 187.51 Z" />
<path fill="#000000" opacity="1.00" d=" M 313.36 190.31 C 315.43 188.72 318.28 189.30 320.19 190.85 C 325.66 194.71 331.30 198.36 336.69 202.35 C 339.51 204.45 338.91 209.32 335.77 210.82 C 333.60 212.12 331.05 211.14 329.22 209.73 C 323.94 205.99 318.51 202.45 313.28 198.64 C 310.45 196.77 310.57 192.15 313.36 190.31 Z" />
<path fill="#000000" opacity="1.00" d=" M 506.56 198.79 C 508.92 198.48 511.65 197.53 513.75 199.13 C 516.84 201.19 516.47 206.53 513.00 207.99 C 509.73 209.00 506.29 209.57 502.89 209.83 C 499.22 209.61 496.97 205.00 499.02 201.96 C 500.56 199.33 503.95 199.41 506.56 198.79 Z" />
<path fill="#000000" opacity="1.00" d=" M 307.41 209.46 C 309.98 208.56 312.25 210.41 314.24 211.76 C 316.55 213.45 319.07 214.88 321.20 216.81 C 323.83 219.33 322.45 224.31 318.95 225.22 C 316.33 226.18 314.03 224.27 312.01 222.90 C 309.71 221.21 307.20 219.79 305.08 217.87 C 302.46 215.32 303.89 210.34 307.41 209.46 Z" />
</g>
<g id="#fedfb2ff">
<path fill="#fedfb2" opacity="1.00" d=" M 364.45 90.52 C 374.64 86.48 386.66 87.46 396.03 93.15 C 408.13 100.29 415.18 114.98 413.15 128.89 C 412.39 134.38 410.37 139.68 407.25 144.26 C 400.44 154.21 393.54 164.10 386.73 174.04 C 366.88 160.57 347.19 146.85 327.43 133.24 C 334.19 123.43 340.95 113.63 347.72 103.83 C 351.79 97.84 357.68 93.10 364.45 90.52 Z" />
<path fill="#fedfb2" opacity="1.00" d=" M 251.28 243.58 C 271.03 257.22 290.83 270.79 310.50 284.53 C 306.78 289.15 303.43 295.10 305.40 301.20 C 306.47 306.53 310.87 310.07 315.25 312.77 C 341.49 330.87 367.74 348.97 393.97 367.09 C 396.93 369.18 400.34 370.72 403.98 371.10 C 408.78 371.82 413.43 370.10 417.99 368.85 C 424.37 367.10 430.73 365.23 437.12 363.55 C 440.08 362.69 443.27 363.48 445.73 365.25 C 450.73 368.64 455.66 372.12 460.59 375.62 C 462.71 376.93 463.43 379.97 462.15 382.11 C 461.23 383.74 460.10 385.24 459.04 386.78 C 454.77 383.79 450.49 380.80 446.10 377.99 C 443.73 376.36 440.17 377.35 438.88 379.89 C 437.61 382.10 438.30 385.18 440.45 386.59 C 450.43 393.66 460.67 400.40 470.57 407.59 C 473.25 409.68 472.69 414.26 469.66 415.74 C 466.37 417.99 463.29 413.58 459.88 414.74 C 457.34 415.50 455.71 418.27 456.29 420.87 C 456.62 423.81 460.58 424.83 460.56 427.92 C 461.06 431.37 457.25 434.13 454.09 433.05 C 451.53 432.05 449.61 429.94 447.08 428.90 C 443.86 427.81 439.91 430.45 440.25 433.98 C 439.91 437.74 445.30 438.90 444.61 442.76 C 444.56 445.89 441.03 447.98 438.19 447.11 C 435.58 446.11 433.65 443.93 431.06 442.92 C 427.86 441.88 423.93 444.52 424.30 448.03 C 423.97 451.84 429.53 453.02 428.64 457.00 C 428.42 460.72 423.44 462.62 420.61 460.35 C 408.44 452.25 396.53 443.77 384.44 435.55 C 375.35 430.73 377.21 417.79 368.72 412.24 C 331.16 386.13 293.43 360.25 255.80 334.23 C 251.12 330.92 246.14 327.96 242.10 323.86 C 233.90 315.75 228.99 304.47 228.53 292.96 C 228.08 283.00 231.01 272.95 236.67 264.75 C 241.53 257.69 246.41 250.64 251.28 243.58 Z" />
</g>
<g id="#212121ff">
<path fill="#212121" opacity="1.00" d=" M 896.40 113.59 C 906.35 110.39 917.54 118.60 918.01 128.89 C 918.87 138.28 910.41 147.28 900.99 147.02 C 891.97 147.21 883.78 139.02 883.96 130.01 C 883.80 122.56 889.36 115.66 896.40 113.59 Z" />
<path fill="#212121" opacity="1.00" d=" M 1079.44 113.58 C 1089.39 110.40 1100.57 118.64 1101.01 128.92 C 1101.84 138.32 1093.38 147.29 1083.96 147.02 C 1074.95 147.20 1066.77 139.00 1066.96 130.00 C 1066.81 122.55 1072.38 115.64 1079.44 113.58 Z" />
<path fill="#212121" opacity="1.00" d=" M 1704.41 113.59 C 1714.37 110.39 1725.57 118.62 1726.01 128.93 C 1726.84 138.29 1718.43 147.24 1709.05 147.02 C 1700.01 147.25 1691.76 139.02 1691.96 129.98 C 1691.81 122.54 1697.37 115.66 1704.41 113.59 Z" />
<path fill="#212121" opacity="1.00" d=" M 615.25 120.01 C 626.36 120.01 637.47 119.97 648.58 120.02 C 648.55 133.68 648.57 147.34 648.57 161.00 C 657.94 161.00 667.31 161.01 676.69 160.99 C 676.68 147.33 676.68 133.67 676.69 120.01 C 687.77 120.00 698.86 120.00 709.94 120.00 C 709.94 158.69 709.95 197.37 709.94 236.06 C 698.85 236.07 687.77 236.07 676.69 236.06 C 676.68 221.73 676.69 207.40 676.69 193.07 C 667.31 193.06 657.94 193.06 648.57 193.07 C 648.56 207.39 648.57 221.72 648.56 236.05 C 637.46 236.08 626.35 236.06 615.25 236.05 C 615.24 197.37 615.25 158.69 615.25 120.01 Z" />
<path fill="#212121" opacity="1.00" d=" M 961.25 120.01 C 972.35 120.00 983.46 119.99 994.57 120.01 C 994.56 133.67 994.56 147.33 994.57 161.00 C 1003.94 161.00 1013.31 161.01 1022.69 160.99 C 1022.68 147.33 1022.68 133.67 1022.69 120.01 C 1033.77 120.00 1044.86 120.00 1055.94 120.00 C 1055.94 158.69 1055.95 197.37 1055.94 236.06 C 1044.85 236.07 1033.77 236.07 1022.69 236.06 C 1022.68 221.73 1022.69 207.40 1022.69 193.07 C 1013.31 193.06 1003.94 193.06 994.57 193.07 C 994.56 207.39 994.57 221.72 994.56 236.05 C 983.46 236.07 972.35 236.07 961.25 236.06 C 961.24 197.37 961.25 158.69 961.25 120.01 Z" />
<path fill="#212121" opacity="1.00" d=" M 1371.25 138.91 C 1381.49 135.87 1391.74 132.85 1401.99 129.82 C 1402.00 137.54 1401.99 145.27 1402.00 153.00 C 1407.81 153.00 1413.62 152.99 1419.44 153.00 C 1419.43 162.69 1419.44 172.37 1419.43 182.06 C 1413.62 182.07 1407.81 182.06 1402.00 182.06 C 1402.07 188.41 1401.83 194.77 1402.11 201.11 C 1402.12 204.07 1404.03 207.07 1407.09 207.61 C 1411.16 208.27 1415.32 207.81 1419.43 207.94 C 1419.44 217.09 1419.43 226.24 1419.44 235.39 C 1408.34 236.72 1396.43 237.80 1385.94 233.11 C 1378.08 229.59 1373.65 221.32 1372.26 213.15 C 1370.51 202.88 1371.52 192.42 1371.24 182.07 C 1367.37 182.06 1363.49 182.06 1359.63 182.06 C 1359.62 172.37 1359.62 162.69 1359.63 153.00 C 1363.49 153.00 1367.36 153.00 1371.25 153.00 C 1371.25 148.30 1371.24 143.61 1371.25 138.91 Z" />
<path fill="#212121" opacity="1.00" d=" M 735.57 158.54 C 743.51 152.66 753.94 150.96 763.56 152.52 C 769.57 153.43 775.12 156.46 779.27 160.88 C 779.24 158.25 779.24 155.63 779.25 153.01 C 789.49 152.99 799.75 153.00 810.00 153.00 C 810.00 180.69 810.00 208.37 809.99 236.06 C 799.75 236.06 789.50 236.07 779.25 236.06 C 779.24 233.54 779.24 231.03 779.27 228.51 C 771.28 236.87 758.61 238.43 747.78 236.02 C 738.65 234.01 730.82 227.84 725.86 220.04 C 719.30 209.93 717.92 197.25 719.66 185.54 C 721.23 174.95 726.90 164.91 735.57 158.54 M 760.35 180.50 C 751.02 182.42 746.85 194.45 751.80 202.22 C 756.58 210.56 769.91 211.29 775.91 203.96 C 779.87 199.29 780.27 192.06 777.19 186.84 C 773.93 181.06 766.53 178.93 760.35 180.50 Z" />
<path fill="#212121" opacity="1.00" d=" M 852.31 168.97 C 855.34 158.17 866.47 151.66 877.31 151.91 C 877.32 162.84 877.31 173.77 877.31 184.70 C 869.66 183.75 861.07 185.89 856.17 192.19 C 852.49 196.95 852.23 203.25 852.37 209.02 C 852.38 218.03 852.37 227.04 852.37 236.06 C 842.12 236.07 831.87 236.07 821.63 236.06 C 821.62 208.37 821.62 180.69 821.63 153.00 C 831.87 153.00 842.12 153.00 852.37 153.01 C 852.35 158.32 852.43 163.65 852.31 168.97 Z" />
<path fill="#212121" opacity="1.00" d=" M 1142.34 160.88 C 1147.57 155.12 1155.27 152.14 1162.97 152.02 C 1173.55 151.37 1184.41 155.42 1191.47 163.44 C 1200.57 173.09 1203.64 187.01 1202.37 199.93 C 1201.51 211.18 1196.30 222.21 1187.46 229.35 C 1179.21 236.18 1167.78 238.29 1157.41 236.33 C 1151.55 235.26 1146.27 232.04 1142.34 227.61 C 1142.42 241.40 1142.35 255.20 1142.37 269.00 C 1132.12 269.00 1121.87 269.00 1111.63 269.00 C 1111.62 230.33 1111.62 191.67 1111.63 153.01 C 1121.87 153.00 1132.12 153.00 1142.38 153.01 C 1142.37 155.63 1142.37 158.25 1142.34 160.88 M 1152.40 180.66 C 1144.74 182.64 1140.60 191.62 1143.00 198.95 C 1144.98 206.50 1153.60 210.47 1160.89 208.58 C 1169.43 207.04 1174.10 196.88 1170.91 189.09 C 1168.39 181.71 1159.54 178.43 1152.40 180.66 Z" />
<path fill="#212121" opacity="1.00" d=" M 1240.01 153.13 C 1248.52 151.35 1257.52 151.55 1265.86 154.06 C 1278.36 157.85 1288.87 168.01 1292.65 180.57 C 1294.93 188.17 1295.07 196.36 1293.20 204.06 C 1274.78 204.11 1256.37 203.97 1237.97 204.14 C 1241.53 210.48 1249.33 212.31 1256.09 211.92 C 1260.87 211.80 1265.29 209.68 1269.13 206.95 C 1275.85 212.48 1282.54 218.07 1289.25 223.61 C 1282.46 230.91 1272.92 235.21 1263.10 236.43 C 1251.47 237.86 1239.12 236.91 1228.64 231.34 C 1218.22 225.77 1210.07 215.66 1207.85 203.95 C 1205.95 194.13 1206.97 183.53 1211.66 174.60 C 1217.40 163.79 1228.00 155.63 1240.01 153.13 M 1237.48 183.95 C 1246.81 184.04 1256.15 184.02 1265.48 183.95 C 1264.13 180.96 1261.95 178.20 1258.72 177.15 C 1251.28 174.55 1241.14 176.15 1237.48 183.95 Z" />
<path fill="#212121" opacity="1.00" d=" M 1332.31 168.97 C 1335.33 158.17 1346.47 151.66 1357.31 151.91 C 1357.32 162.84 1357.30 173.77 1357.32 184.70 C 1350.54 183.90 1343.23 185.38 1338.09 190.08 C 1333.96 193.80 1332.40 199.52 1332.39 204.92 C 1332.34 215.29 1332.40 225.67 1332.37 236.06 C 1322.12 236.07 1311.87 236.07 1301.63 236.06 C 1301.62 208.37 1301.62 180.69 1301.63 153.00 C 1311.87 153.00 1322.12 153.00 1332.37 153.00 C 1332.35 158.33 1332.43 163.65 1332.31 168.97 Z" />
<path fill="#212121" opacity="1.00" d=" M 1438.86 163.86 C 1450.50 152.36 1468.55 149.59 1483.94 153.79 C 1498.29 157.74 1510.13 170.13 1512.71 184.89 C 1513.91 191.23 1513.72 197.80 1512.19 204.07 C 1493.79 204.09 1475.38 203.99 1456.98 204.12 C 1460.50 210.47 1468.30 212.30 1475.04 211.92 C 1479.83 211.81 1484.28 209.69 1488.13 206.95 C 1494.85 212.48 1501.53 218.07 1508.25 223.61 C 1501.95 230.35 1493.31 234.61 1484.25 236.10 C 1474.72 237.63 1464.77 237.39 1455.49 234.59 C 1444.50 231.30 1434.89 223.39 1429.87 213.04 C 1422.38 196.96 1425.56 175.99 1438.86 163.86 M 1456.49 183.95 C 1465.81 184.04 1475.15 184.03 1484.48 183.95 C 1483.14 180.98 1480.97 178.22 1477.77 177.17 C 1470.32 174.54 1460.14 176.13 1456.49 183.95 Z" />
<path fill="#212121" opacity="1.00" d=" M 1552.34 161.17 C 1556.56 156.33 1562.51 153.17 1568.88 152.39 C 1577.88 151.04 1587.88 152.82 1594.61 159.32 C 1602.21 166.30 1604.43 177.11 1604.63 187.02 C 1604.76 203.36 1604.66 219.71 1604.68 236.05 C 1594.43 236.07 1584.19 236.06 1573.94 236.06 C 1573.90 221.35 1574.00 206.64 1573.90 191.93 C 1573.95 188.12 1572.70 183.68 1568.91 182.05 C 1564.49 180.27 1558.61 180.62 1555.33 184.42 C 1552.82 187.29 1552.32 191.28 1552.37 194.95 C 1552.38 208.65 1552.38 222.36 1552.37 236.06 C 1542.12 236.07 1531.87 236.07 1521.63 236.06 C 1521.62 208.37 1521.62 180.69 1521.63 153.00 C 1531.87 153.00 1542.12 153.00 1552.38 153.01 C 1552.37 155.73 1552.37 158.45 1552.34 161.17 Z" />
<path fill="#212121" opacity="1.00" d=" M 1621.93 160.89 C 1628.90 155.09 1637.99 152.13 1647.01 152.00 C 1656.32 151.80 1666.16 153.48 1673.78 159.16 C 1678.52 162.61 1681.90 167.57 1684.28 172.87 C 1675.82 175.96 1667.34 179.02 1658.87 182.07 C 1657.11 178.19 1653.58 174.57 1648.97 175.04 C 1646.42 174.66 1642.95 177.19 1644.94 179.84 C 1647.72 182.18 1651.57 182.39 1655.01 183.02 C 1662.82 184.15 1670.69 186.35 1677.39 190.64 C 1689.88 200.12 1688.37 222.00 1675.14 230.18 C 1666.11 235.51 1655.40 237.47 1645.02 236.96 C 1635.85 236.57 1626.30 234.73 1618.80 229.14 C 1614.74 226.21 1611.75 222.09 1609.56 217.64 C 1618.46 213.76 1627.39 209.94 1636.32 206.10 C 1638.03 210.07 1641.47 213.42 1645.95 213.80 C 1648.51 214.03 1652.30 214.40 1653.61 211.57 C 1654.46 209.51 1652.30 208.05 1650.63 207.54 C 1641.27 204.23 1630.68 203.63 1622.42 197.68 C 1610.79 189.22 1611.02 169.83 1621.93 160.89 Z" />
<path fill="#212121" opacity="1.00" d=" M 885.63 153.00 C 895.87 153.00 906.12 153.00 916.37 153.01 C 916.37 180.69 916.38 208.37 916.37 236.06 C 906.12 236.07 895.87 236.07 885.63 236.06 C 885.62 208.37 885.62 180.69 885.63 153.00 Z" />
<path fill="#212121" opacity="1.00" d=" M 1068.63 153.00 C 1078.87 153.00 1089.12 153.00 1099.37 153.00 C 1099.37 180.69 1099.38 208.37 1099.37 236.06 C 1089.12 236.07 1078.87 236.07 1068.63 236.06 C 1068.62 208.37 1068.62 180.69 1068.63 153.00 Z" />
<path fill="#212121" opacity="1.00" d=" M 1693.63 153.00 C 1703.87 153.00 1714.12 153.00 1724.37 153.00 C 1724.37 180.69 1724.38 208.37 1724.37 236.06 C 1714.12 236.07 1703.87 236.07 1693.63 236.06 C 1693.62 208.37 1693.62 180.69 1693.63 153.00 Z" />
<path fill="#212121" opacity="1.00" d=" M 487.97 244.75 L 488.60 244.21 C 490.97 245.58 493.15 247.24 495.04 249.23 C 495.02 250.78 495.02 252.34 495.07 253.90 C 493.59 255.21 492.25 257.26 490.02 257.09 C 486.80 257.05 484.41 254.43 482.00 252.61 C 483.11 250.80 484.62 249.32 486.35 248.11 C 486.43 247.56 486.58 246.45 486.66 245.90 C 486.99 245.61 487.64 245.04 487.97 244.75 Z" />
<path fill="#212121" opacity="1.00" d=" M 1266.04 292.84 C 1275.39 289.96 1285.13 292.42 1294.29 294.82 C 1302.60 297.44 1309.69 303.71 1313.10 311.76 C 1314.00 314.44 1314.31 317.48 1316.57 319.48 C 1321.43 324.82 1322.10 332.26 1323.94 338.93 C 1325.96 347.54 1328.60 356.11 1329.09 364.99 C 1328.85 378.56 1328.03 392.18 1325.75 405.58 C 1324.30 414.59 1321.30 423.25 1319.51 432.19 C 1324.49 421.98 1326.37 410.41 1332.85 400.94 C 1342.91 385.15 1351.63 368.53 1359.57 351.58 C 1360.59 349.21 1361.66 346.84 1363.11 344.68 C 1358.46 349.80 1350.97 353.20 1344.12 350.98 C 1335.01 348.66 1329.12 337.82 1332.20 328.93 C 1333.71 320.88 1338.85 314.21 1344.25 308.32 C 1350.66 302.39 1358.27 297.38 1367.06 295.99 C 1377.38 292.79 1388.27 295.40 1398.19 298.76 C 1404.47 301.52 1410.72 304.59 1416.17 308.81 C 1422.82 314.49 1424.92 323.58 1425.17 331.95 C 1423.25 349.78 1416.86 366.84 1408.75 382.75 C 1399.73 400.68 1390.70 418.60 1381.25 436.31 C 1392.51 437.21 1404.13 436.14 1414.98 439.84 C 1418.16 440.82 1421.67 441.34 1424.21 443.71 C 1432.06 450.12 1432.28 463.90 1424.15 470.18 C 1421.33 472.67 1417.49 473.15 1413.97 473.89 C 1398.45 476.65 1382.64 475.43 1366.98 475.82 C 1359.98 475.87 1352.88 476.64 1346.02 474.88 C 1341.20 473.63 1335.99 473.12 1331.76 470.28 C 1321.81 463.99 1316.01 451.45 1317.72 439.82 C 1316.52 449.44 1311.50 458.09 1305.33 465.38 C 1300.03 470.62 1293.45 474.87 1285.95 475.98 C 1278.07 478.48 1269.91 476.04 1262.27 473.91 C 1246.79 469.00 1232.40 459.24 1223.72 445.32 C 1216.62 435.25 1213.67 423.05 1211.53 411.12 C 1208.90 394.43 1210.55 377.31 1214.80 361.03 C 1217.17 351.08 1220.64 341.38 1225.29 332.27 C 1229.99 322.77 1235.50 313.56 1242.70 305.72 C 1249.15 299.45 1257.01 294.29 1266.04 292.84 M 1271.47 306.63 C 1265.45 307.43 1259.83 310.29 1255.36 314.36 C 1248.68 320.32 1244.28 328.26 1240.05 336.02 C 1227.03 360.44 1221.68 389.41 1227.53 416.64 C 1230.86 432.48 1240.76 447.06 1255.17 454.77 C 1263.70 459.18 1273.29 463.44 1283.12 461.70 C 1291.13 460.11 1296.91 453.40 1300.34 446.37 C 1304.80 438.07 1304.62 428.38 1307.45 419.57 C 1311.00 408.39 1312.35 396.66 1313.28 385.01 C 1313.77 377.33 1314.34 369.59 1313.95 361.90 C 1312.62 352.22 1309.83 342.80 1307.47 333.34 C 1306.60 328.71 1301.00 326.91 1300.83 322.00 C 1299.82 315.78 1295.16 310.51 1289.18 308.62 C 1283.48 306.93 1277.41 305.96 1271.47 306.63 M 1373.43 309.62 C 1361.75 310.93 1351.73 319.51 1347.11 330.07 C 1345.99 332.33 1345.35 335.67 1348.15 336.99 C 1350.76 336.65 1352.88 334.54 1354.42 332.50 C 1358.00 327.17 1361.99 322.04 1366.86 317.82 C 1370.76 314.57 1377.05 313.47 1381.34 316.61 C 1383.03 317.78 1383.73 319.90 1383.85 321.88 C 1384.05 329.02 1382.60 336.13 1379.78 342.68 C 1369.73 366.10 1358.23 388.96 1344.43 410.41 C 1340.25 416.90 1338.85 424.60 1335.82 431.60 C 1333.49 436.63 1331.07 442.21 1332.58 447.86 C 1333.88 451.85 1336.43 455.61 1339.99 457.92 C 1348.72 462.10 1358.64 460.90 1368.00 460.87 C 1383.34 460.53 1398.84 461.72 1414.02 458.96 C 1416.25 458.86 1416.03 455.04 1413.96 454.86 C 1410.70 453.93 1407.51 452.58 1404.11 452.32 C 1390.40 451.73 1376.69 450.85 1362.98 450.20 C 1361.54 449.92 1359.53 450.46 1358.63 449.03 C 1359.00 444.50 1362.21 440.93 1364.16 436.99 C 1371.26 423.49 1378.31 409.95 1385.22 396.34 C 1393.79 379.18 1403.52 362.31 1408.29 343.59 C 1409.78 337.18 1411.44 330.24 1409.08 323.85 C 1407.21 319.09 1402.01 317.40 1397.94 315.06 C 1390.53 310.93 1381.93 308.59 1373.43 309.62 Z" />
<path fill="#212121" opacity="1.00" d=" M 1476.22 293.13 C 1483.85 291.46 1491.61 293.45 1499.04 295.22 C 1508.32 297.32 1516.40 304.02 1520.11 312.78 C 1521.00 315.45 1521.32 318.46 1523.55 320.46 C 1528.41 325.78 1529.10 333.21 1530.92 339.87 C 1532.94 348.50 1535.60 357.09 1536.08 365.99 C 1535.80 386.47 1533.97 407.12 1527.93 426.78 C 1525.45 437.70 1524.38 449.39 1517.86 458.87 C 1513.61 466.21 1506.99 472.13 1499.14 475.35 C 1494.20 476.69 1489.16 478.32 1483.98 478.04 C 1466.54 476.08 1449.74 468.11 1437.60 455.38 C 1429.43 446.20 1423.41 435.07 1420.82 423.02 C 1415.86 404.40 1416.31 384.61 1420.89 365.97 C 1424.73 347.48 1432.60 329.91 1443.39 314.44 C 1448.32 307.37 1454.76 301.36 1462.40 297.32 C 1466.70 295.09 1471.52 294.20 1476.22 293.13 M 1478.45 307.63 C 1472.21 308.46 1466.43 311.51 1461.88 315.79 C 1455.45 321.72 1451.16 329.46 1447.03 337.05 C 1433.99 361.52 1428.65 390.57 1434.57 417.85 C 1437.94 433.62 1447.83 448.10 1462.18 455.77 C 1470.70 460.18 1480.27 464.44 1490.09 462.70 C 1497.60 461.24 1503.22 455.20 1506.65 448.68 C 1511.26 440.89 1511.53 431.64 1513.74 423.08 C 1519.72 404.39 1520.81 384.58 1521.11 365.10 C 1520.23 354.63 1516.92 344.54 1514.48 334.37 C 1513.61 329.72 1508.00 327.90 1507.82 322.98 C 1506.84 317.04 1502.56 311.90 1496.90 309.89 C 1491.01 307.93 1484.64 306.97 1478.45 307.63 Z" />
<path fill="#212121" opacity="1.00" d=" M 1149.80 297.81 C 1159.11 294.27 1169.44 292.02 1179.28 294.73 C 1188.65 296.39 1197.31 300.59 1205.26 305.69 C 1210.99 309.27 1215.03 315.42 1216.01 322.12 C 1218.66 330.35 1216.07 338.87 1214.20 346.96 C 1209.83 365.71 1200.23 382.58 1191.71 399.65 C 1185.70 411.61 1179.53 423.49 1173.25 435.31 C 1185.02 436.17 1197.17 435.19 1208.46 439.27 C 1214.45 440.22 1219.96 444.64 1221.30 450.70 C 1223.61 457.28 1221.41 465.49 1215.61 469.60 C 1212.58 471.95 1208.61 472.30 1204.98 473.07 C 1187.46 475.88 1169.67 474.19 1152.02 474.98 C 1143.72 475.62 1135.57 473.55 1127.67 471.27 C 1116.14 466.61 1109.32 454.02 1109.27 441.94 C 1110.20 431.72 1115.56 422.81 1118.40 413.12 C 1120.59 406.06 1124.86 399.96 1128.71 393.73 C 1136.31 381.25 1143.09 368.30 1149.42 355.14 C 1151.38 351.36 1152.73 347.26 1155.09 343.69 C 1150.25 349.07 1142.30 352.39 1135.23 349.74 C 1129.29 347.74 1124.66 342.18 1123.75 335.97 C 1122.43 331.53 1124.52 327.05 1125.68 322.80 C 1130.35 311.91 1139.23 303.03 1149.80 297.81 M 1160.44 309.64 C 1150.50 312.66 1142.26 320.73 1138.62 330.40 C 1137.50 332.47 1138.18 335.80 1140.87 336.00 C 1143.30 334.93 1145.40 333.16 1146.83 330.91 C 1150.12 325.96 1153.89 321.29 1158.30 317.29 C 1161.14 314.60 1165.21 313.41 1169.08 313.85 C 1172.23 314.25 1175.45 316.50 1175.74 319.89 C 1176.27 327.33 1174.70 334.82 1171.79 341.66 C 1161.52 365.80 1149.45 389.20 1135.32 411.31 C 1131.66 417.88 1130.34 425.41 1127.13 432.17 C 1124.90 436.87 1123.11 442.31 1124.77 447.49 C 1126.20 451.23 1128.61 454.77 1132.04 456.96 C 1141.11 461.23 1151.37 459.82 1161.07 459.85 C 1176.05 459.56 1191.19 460.66 1206.02 457.95 C 1208.25 457.87 1208.02 454.03 1205.96 453.87 C 1203.01 453.00 1200.11 451.88 1197.08 451.41 C 1182.07 450.59 1167.03 449.94 1152.04 448.93 C 1149.53 448.65 1151.00 445.72 1151.55 444.34 C 1160.73 427.74 1169.30 410.79 1177.95 393.91 C 1186.54 376.79 1196.19 359.87 1200.65 341.08 C 1201.96 335.15 1203.28 328.74 1201.08 322.86 C 1199.21 318.08 1193.99 316.39 1189.91 314.04 C 1181.07 309.09 1170.34 306.76 1160.44 309.64 Z" />
<path fill="#212121" opacity="1.00" d=" M 1280.34 327.36 C 1283.87 325.97 1288.03 327.87 1290.21 330.80 C 1297.22 339.65 1299.34 351.28 1299.65 362.30 C 1300.04 383.51 1299.97 405.25 1293.34 425.63 C 1291.26 431.36 1289.22 437.43 1284.97 441.95 C 1281.78 445.41 1276.64 444.87 1272.43 444.31 C 1267.96 443.40 1266.59 438.56 1264.95 434.96 C 1261.28 427.05 1259.55 418.44 1258.49 409.83 C 1256.44 394.20 1257.97 378.12 1263.20 363.23 C 1266.28 354.47 1268.17 345.11 1273.10 337.13 C 1275.49 333.89 1277.04 329.77 1280.34 327.36 M 1272.79 389.08 C 1272.10 401.74 1272.98 414.73 1277.30 426.74 C 1283.56 411.68 1284.56 395.19 1284.83 379.07 C 1284.89 368.99 1285.18 358.83 1283.37 348.86 C 1279.51 362.16 1273.33 375.03 1272.79 389.08 Z" />
<path fill="#212121" opacity="1.00" d=" M 1487.35 328.36 C 1490.87 326.98 1495.04 328.89 1497.21 331.81 C 1504.17 340.60 1506.31 352.13 1506.64 363.07 C 1507.05 384.86 1506.99 407.25 1499.84 428.10 C 1497.84 433.32 1495.89 438.86 1491.95 442.97 C 1488.77 446.40 1483.66 445.87 1479.48 445.32 C 1474.99 444.44 1473.61 439.60 1471.97 436.00 C 1468.30 428.09 1466.56 419.48 1465.50 410.87 C 1463.45 395.26 1464.96 379.20 1470.18 364.33 C 1473.42 355.12 1475.34 345.22 1480.83 336.98 C 1482.97 334.12 1484.33 330.42 1487.35 328.36 M 1479.79 390.03 C 1479.11 402.69 1479.95 415.70 1484.31 427.70 C 1490.58 412.65 1491.55 396.16 1491.83 380.06 C 1491.89 369.98 1492.17 359.83 1490.37 349.87 C 1486.52 363.15 1480.35 376.00 1479.79 390.03 Z" />
<path fill="#212121" opacity="1.00" d=" M 927.39 330.60 C 937.36 327.37 948.59 335.63 949.01 345.95 C 949.83 355.32 941.40 364.26 932.02 364.02 C 923.00 364.23 914.79 356.04 914.96 347.04 C 914.79 339.58 920.35 332.68 927.39 330.60 Z" />
<path fill="#212121" opacity="1.00" d=" M 615.25 337.01 C 631.48 336.99 647.71 337.01 663.94 337.00 C 670.66 337.01 677.39 338.08 683.70 340.41 C 695.71 344.82 705.77 353.83 712.23 364.79 C 719.79 377.74 721.42 393.55 718.65 408.12 C 715.54 424.47 704.56 438.97 689.95 446.80 C 681.71 451.21 672.30 453.08 663.00 453.05 C 647.08 453.08 631.17 453.06 615.25 453.05 C 615.24 414.37 615.25 375.69 615.25 337.01 M 650.19 369.07 C 650.19 386.38 650.19 403.68 650.19 420.99 C 655.49 420.92 660.82 421.21 666.12 420.80 C 672.57 420.28 678.53 416.50 682.10 411.15 C 686.84 404.18 687.54 395.13 685.73 387.08 C 683.72 378.22 676.32 370.44 667.10 369.32 C 661.48 368.77 655.82 369.18 650.19 369.07 Z" />
<path fill="#212121" opacity="1.00" d=" M 853.34 378.17 C 860.72 369.42 873.42 367.41 884.09 370.02 C 891.96 371.96 898.68 377.77 901.92 385.18 C 905.27 392.62 905.76 400.93 905.69 408.98 C 905.68 423.67 905.70 438.36 905.69 453.05 C 895.44 453.07 885.19 453.06 874.94 453.06 C 874.90 438.35 874.99 423.64 874.90 408.94 C 874.95 405.15 873.73 400.74 869.97 399.07 C 866.16 397.51 861.42 397.58 857.94 399.94 C 854.49 402.40 853.36 406.89 853.39 410.94 C 853.35 424.97 853.39 439.02 853.37 453.06 C 843.12 453.07 832.87 453.07 822.63 453.06 C 822.62 425.37 822.62 397.69 822.63 370.00 C 832.87 370.00 843.12 370.00 853.38 370.00 C 853.37 372.73 853.37 375.45 853.34 378.17 Z" />
<path fill="#212121" opacity="1.00" d=" M 965.80 380.80 C 972.72 372.73 983.46 368.49 994.02 369.00 C 1001.92 369.01 1009.89 371.96 1015.27 377.88 C 1015.23 375.25 1015.24 372.63 1015.25 370.01 C 1025.49 369.99 1035.75 370.00 1046.00 370.00 C 1046.00 397.69 1046.00 425.37 1046.00 453.06 C 1035.74 453.06 1025.50 453.07 1015.25 453.05 C 1015.24 450.54 1015.24 448.02 1015.27 445.51 C 1010.71 450.15 1004.56 453.04 998.11 453.71 C 988.00 455.00 977.15 452.58 969.40 445.73 C 961.31 438.83 956.38 428.63 955.35 418.10 C 953.81 404.99 956.65 390.74 965.80 380.80 M 996.36 397.50 C 987.03 399.41 982.85 411.43 987.79 419.21 C 992.56 427.55 1005.87 428.30 1011.88 420.99 C 1015.87 416.31 1016.27 409.06 1013.17 403.81 C 1009.90 398.05 1002.54 395.93 996.36 397.50 Z" />
<path fill="#212121" opacity="1.00" d=" M 727.81 370.01 C 738.07 370.00 748.32 369.98 758.57 370.01 C 758.56 384.67 758.55 399.34 758.57 414.00 C 758.43 417.93 759.83 422.57 763.85 424.09 C 768.12 425.63 773.64 425.34 776.89 421.83 C 779.60 418.93 780.12 414.75 780.07 410.95 C 780.05 397.30 780.06 383.65 780.06 370.00 C 790.33 370.00 800.60 370.00 810.88 370.00 C 810.87 397.69 810.88 425.37 810.87 453.06 C 800.60 453.07 790.33 453.07 780.06 453.06 C 780.05 450.32 780.05 447.58 780.08 444.84 C 772.86 453.48 760.43 455.48 749.92 453.13 C 741.21 451.18 733.89 444.52 730.84 436.18 C 727.44 427.55 727.76 418.12 727.81 409.00 C 727.81 396.00 727.81 383.00 727.81 370.01 Z" />
<path fill="#212121" opacity="1.00" d=" M 916.63 370.01 C 926.87 370.00 937.12 370.00 947.37 370.01 C 947.37 397.69 947.38 425.37 947.37 453.06 C 937.12 453.07 926.87 453.07 916.63 453.06 C 916.62 425.37 916.62 397.69 916.63 370.01 Z" />
</g>
<g id="#9b5afdff">
<path fill="#9b5afd" opacity="1.00" d=" M 312.31 138.36 C 314.40 137.30 316.68 138.32 318.39 139.61 C 340.23 154.77 362.19 169.75 383.99 184.98 C 385.81 186.08 387.26 187.83 387.34 190.05 C 386.81 192.57 385.05 194.54 383.67 196.63 C 365.12 223.43 346.66 250.29 328.11 277.09 C 326.63 279.79 322.85 280.58 320.47 278.60 C 298.05 263.34 275.81 247.82 253.46 232.45 C 250.75 230.98 249.77 227.21 251.77 224.75 C 270.49 197.51 289.34 170.36 308.06 143.12 C 309.33 141.44 310.31 139.30 312.31 138.36 M 315.36 152.46 C 313.67 152.93 312.69 154.47 311.72 155.80 C 296.54 177.92 281.22 199.96 266.04 222.08 C 264.20 224.39 264.83 228.13 267.39 229.63 C 269.86 231.28 273.33 230.22 274.75 227.70 C 290.01 205.64 305.20 183.53 320.48 161.47 C 321.35 160.14 322.33 158.69 322.14 157.01 C 322.03 153.76 318.40 151.33 315.36 152.46 M 366.46 187.51 C 364.76 187.89 363.71 189.38 362.76 190.71 C 347.55 212.85 332.23 234.93 317.01 257.07 C 315.50 258.99 315.44 261.93 317.13 263.77 C 319.19 266.27 323.54 266.06 325.32 263.35 C 340.78 241.07 356.11 218.71 371.55 196.42 C 375.25 192.82 371.54 185.87 366.46 187.51 M 313.36 190.31 C 310.57 192.15 310.45 196.77 313.28 198.64 C 318.51 202.45 323.94 205.99 329.22 209.73 C 331.05 211.14 333.60 212.12 335.77 210.82 C 338.91 209.32 339.51 204.45 336.69 202.35 C 331.30 198.36 325.66 194.71 320.19 190.85 C 318.28 189.30 315.43 188.72 313.36 190.31 M 307.41 209.46 C 303.89 210.34 302.46 215.32 305.08 217.87 C 307.20 219.79 309.71 221.21 312.01 222.90 C 314.03 224.27 316.33 226.18 318.95 225.22 C 322.45 224.31 323.83 219.33 321.20 216.81 C 319.07 214.88 316.55 213.45 314.24 211.76 C 312.25 210.41 309.98 208.56 307.41 209.46 Z" />
<path fill="#9b5afd" opacity="1.00" d=" M 459.63 235.35 C 458.50 231.59 462.90 227.91 466.42 229.69 C 471.57 233.07 476.54 236.73 481.61 240.22 C 483.85 241.55 485.99 243.04 487.97 244.75 C 487.64 245.04 486.99 245.61 486.66 245.90 C 486.58 246.45 486.43 247.56 486.35 248.11 C 484.62 249.32 483.11 250.80 482.00 252.61 C 480.92 250.84 479.02 249.94 477.37 248.82 C 472.95 245.94 468.71 242.81 464.37 239.83 C 462.48 238.74 460.58 237.37 459.63 235.35 Z" />
<path fill="#9b5afd" opacity="1.00" d=" M 1478.45 307.63 C 1484.64 306.97 1491.01 307.93 1496.90 309.89 C 1502.56 311.90 1506.84 317.04 1507.82 322.98 C 1508.00 327.90 1513.61 329.72 1514.48 334.37 C 1516.92 344.54 1520.23 354.63 1521.11 365.10 C 1520.81 384.58 1519.72 404.39 1513.74 423.08 C 1511.53 431.64 1511.26 440.89 1506.65 448.68 C 1503.22 455.20 1497.60 461.24 1490.09 462.70 C 1480.27 464.44 1470.70 460.18 1462.18 455.77 C 1447.83 448.10 1437.94 433.62 1434.57 417.85 C 1428.65 390.57 1433.99 361.52 1447.03 337.05 C 1451.16 329.46 1455.45 321.72 1461.88 315.79 C 1466.43 311.51 1472.21 308.46 1478.45 307.63 M 1487.35 328.36 C 1484.33 330.42 1482.97 334.12 1480.83 336.98 C 1475.34 345.22 1473.42 355.12 1470.18 364.33 C 1464.96 379.20 1463.45 395.26 1465.50 410.87 C 1466.56 419.48 1468.30 428.09 1471.97 436.00 C 1473.61 439.60 1474.99 444.44 1479.48 445.32 C 1483.66 445.87 1488.77 446.40 1491.95 442.97 C 1495.89 438.86 1497.84 433.32 1499.84 428.10 C 1506.99 407.25 1507.05 384.86 1506.64 363.07 C 1506.31 352.13 1504.17 340.60 1497.21 331.81 C 1495.04 328.89 1490.87 326.98 1487.35 328.36 Z" />
<path fill="#9b5afd" opacity="1.00" d=" M 1373.43 309.62 C 1381.93 308.59 1390.53 310.93 1397.94 315.06 C 1402.01 317.40 1407.21 319.09 1409.08 323.85 C 1411.44 330.24 1409.78 337.18 1408.29 343.59 C 1403.52 362.31 1393.79 379.18 1385.22 396.34 C 1378.31 409.95 1371.26 423.49 1364.16 436.99 C 1362.21 440.93 1359.00 444.50 1358.63 449.03 C 1359.53 450.46 1361.54 449.92 1362.98 450.20 C 1376.69 450.85 1390.40 451.73 1404.11 452.32 C 1407.51 452.58 1410.70 453.93 1413.96 454.86 C 1416.03 455.04 1416.25 458.86 1414.02 458.96 C 1398.84 461.72 1383.34 460.53 1368.00 460.87 C 1358.64 460.90 1348.72 462.10 1339.99 457.92 C 1336.43 455.61 1333.88 451.85 1332.58 447.86 C 1331.07 442.21 1333.49 436.63 1335.82 431.60 C 1338.85 424.60 1340.25 416.90 1344.43 410.41 C 1358.23 388.96 1369.73 366.10 1379.78 342.68 C 1382.60 336.13 1384.05 329.02 1383.85 321.88 C 1383.73 319.90 1383.03 317.78 1381.34 316.61 C 1377.05 313.47 1370.76 314.57 1366.86 317.82 C 1361.99 322.04 1358.00 327.17 1354.42 332.50 C 1352.88 334.54 1350.76 336.65 1348.15 336.99 C 1345.35 335.67 1345.99 332.33 1347.11 330.07 C 1351.73 319.51 1361.75 310.93 1373.43 309.62 Z" />
</g>
<g id="#06a7f5ff">
<path fill="#06a7f5" opacity="1.00" d=" M 503.08 173.77 C 507.68 173.86 512.22 174.80 516.44 176.64 C 514.92 179.15 512.14 181.67 513.09 184.90 C 513.89 188.16 518.15 189.74 520.90 187.84 C 522.57 186.44 523.68 184.51 524.99 182.79 C 528.02 186.05 530.84 189.74 532.02 194.11 C 528.96 194.35 525.14 194.83 523.87 198.13 C 522.61 200.99 524.69 203.58 526.66 205.44 C 529.05 205.40 531.50 205.33 533.75 204.35 C 534.08 208.67 533.20 212.90 531.79 216.96 C 528.91 216.25 526.79 213.84 523.78 213.45 C 521.90 214.84 519.42 216.30 519.36 218.95 C 518.89 222.64 522.67 224.59 525.34 226.16 C 522.04 229.08 518.51 232.37 513.95 232.94 C 513.53 230.61 513.66 227.87 511.79 226.13 C 509.50 224.43 505.81 224.48 504.03 226.91 C 502.07 229.41 502.79 232.76 503.72 235.52 C 496.32 235.02 488.66 232.95 483.07 227.84 C 479.17 224.49 476.35 220.06 474.45 215.31 C 477.27 214.61 481.15 214.80 482.63 211.72 C 484.30 208.77 482.22 204.63 478.86 204.23 C 476.72 204.14 474.63 204.69 472.54 205.04 C 472.63 200.44 473.58 195.90 475.39 191.67 C 477.96 193.26 480.62 196.14 483.94 194.95 C 487.25 193.97 488.59 189.34 486.25 186.78 C 484.79 185.32 483.01 184.26 481.35 183.08 C 484.64 179.88 488.54 177.37 492.81 175.67 C 493.43 178.09 493.33 180.93 494.99 182.96 C 497.27 185.63 502.14 184.89 503.51 181.66 C 504.53 179.10 503.40 176.35 503.08 173.77 M 506.56 198.79 C 503.95 199.41 500.56 199.33 499.02 201.96 C 496.97 205.00 499.22 209.61 502.89 209.83 C 506.29 209.57 509.73 209.00 513.00 207.99 C 516.47 206.53 516.84 201.19 513.75 199.13 C 511.65 197.53 508.92 198.48 506.56 198.79 Z" />
<path fill="#06a7f5" opacity="1.00" d=" M 447.71 253.76 C 454.56 250.85 462.95 251.43 468.89 256.09 C 474.53 260.20 477.50 267.23 477.30 274.12 C 474.24 272.41 471.69 269.29 468.03 268.94 C 463.68 268.71 461.04 274.68 464.27 277.67 C 467.84 280.69 471.89 283.08 475.69 285.82 C 474.60 289.10 473.28 292.29 471.72 295.38 C 467.58 292.48 463.44 289.56 459.19 286.83 C 456.78 285.03 453.01 286.03 451.72 288.71 C 450.47 290.99 451.29 294.05 453.49 295.44 C 457.51 298.39 461.66 301.16 465.76 304.01 C 463.45 306.58 460.93 308.95 458.18 311.05 C 454.35 308.50 450.72 305.63 446.70 303.37 C 443.19 301.45 438.62 305.06 439.50 308.93 C 440.22 313.10 445.24 313.78 447.37 316.99 C 441.23 319.30 434.11 319.01 428.47 315.54 C 421.76 311.73 418.02 303.92 418.36 296.32 C 421.55 298.06 424.19 301.40 428.01 301.56 C 432.29 301.51 434.53 295.54 431.31 292.73 C 427.71 289.82 423.71 287.44 419.96 284.74 C 421.02 281.42 422.34 278.19 423.93 275.09 C 428.38 278.02 432.59 281.31 437.16 284.05 C 440.14 285.75 444.29 283.40 444.52 280.01 C 444.83 277.99 443.71 276.04 442.06 274.96 C 438.04 272.09 433.91 269.37 429.87 266.53 C 432.18 263.91 434.73 261.52 437.49 259.38 C 441.40 261.97 445.08 264.93 449.17 267.25 C 453.31 269.23 458.00 264.12 455.73 260.14 C 453.83 257.23 450.31 255.93 447.71 253.76 Z" />
<path fill="#06a7f5" opacity="1.00" d=" M 1271.47 306.63 C 1277.41 305.96 1283.48 306.93 1289.18 308.62 C 1295.16 310.51 1299.82 315.78 1300.83 322.00 C 1301.00 326.91 1306.60 328.71 1307.47 333.34 C 1309.83 342.80 1312.62 352.22 1313.95 361.90 C 1314.34 369.59 1313.77 377.33 1313.28 385.01 C 1312.35 396.66 1311.00 408.39 1307.45 419.57 C 1304.62 428.38 1304.80 438.07 1300.34 446.37 C 1296.91 453.40 1291.13 460.11 1283.12 461.70 C 1273.29 463.44 1263.70 459.18 1255.17 454.77 C 1240.76 447.06 1230.86 432.48 1227.53 416.64 C 1221.68 389.41 1227.03 360.44 1240.05 336.02 C 1244.28 328.26 1248.68 320.32 1255.36 314.36 C 1259.83 310.29 1265.45 307.43 1271.47 306.63 M 1280.34 327.36 C 1277.04 329.77 1275.49 333.89 1273.10 337.13 C 1268.17 345.11 1266.28 354.47 1263.20 363.23 C 1257.97 378.12 1256.44 394.20 1258.49 409.83 C 1259.55 418.44 1261.28 427.05 1264.95 434.96 C 1266.59 438.56 1267.96 443.40 1272.43 444.31 C 1276.64 444.87 1281.78 445.41 1284.97 441.95 C 1289.22 437.43 1291.26 431.36 1293.34 425.63 C 1299.97 405.25 1300.04 383.51 1299.65 362.30 C 1299.34 351.28 1297.22 339.65 1290.21 330.80 C 1288.03 327.87 1283.87 325.97 1280.34 327.36 Z" />
<path fill="#06a7f5" opacity="1.00" d=" M 1160.44 309.64 C 1170.34 306.76 1181.07 309.09 1189.91 314.04 C 1193.99 316.39 1199.21 318.08 1201.08 322.86 C 1203.28 328.74 1201.96 335.15 1200.65 341.08 C 1196.19 359.87 1186.54 376.79 1177.95 393.91 C 1169.30 410.79 1160.73 427.74 1151.55 444.34 C 1151.00 445.72 1149.53 448.65 1152.04 448.93 C 1167.03 449.94 1182.07 450.59 1197.08 451.41 C 1200.11 451.88 1203.01 453.00 1205.96 453.87 C 1208.02 454.03 1208.25 457.87 1206.02 457.95 C 1191.19 460.66 1176.05 459.56 1161.07 459.85 C 1151.37 459.82 1141.11 461.23 1132.04 456.96 C 1128.61 454.77 1126.20 451.23 1124.77 447.49 C 1123.11 442.31 1124.90 436.87 1127.13 432.17 C 1130.34 425.41 1131.66 417.88 1135.32 411.31 C 1149.45 389.20 1161.52 365.80 1171.79 341.66 C 1174.70 334.82 1176.27 327.33 1175.74 319.89 C 1175.45 316.50 1172.23 314.25 1169.08 313.85 C 1165.21 313.41 1161.14 314.60 1158.30 317.29 C 1153.89 321.29 1150.12 325.96 1146.83 330.91 C 1145.40 333.16 1143.30 334.93 1140.87 336.00 C 1138.18 335.80 1137.50 332.47 1138.62 330.40 C 1142.26 320.73 1150.50 312.66 1160.44 309.64 Z" />
</g>
</svg>
