<?xml version="1.0" encoding="UTF-8" ?>
<!DOCTYPE svg PUBLIC "-//W3C//DTD SVG 1.1//EN" "http://www.w3.org/Graphics/SVG/1.1/DTD/svg11.dtd">
<svg width="1200pt" height="847pt" viewBox="0 0 1200 847" version="1.1" xmlns="http://www.w3.org/2000/svg">
<g id="#eaeaecff">
<path fill="#eaeaec" opacity="1.00" d=" M 711.17 537.34 C 720.76 536.85 731.45 537.39 739.25 543.69 C 750.16 552.99 748.42 571.26 738.36 580.48 C 730.67 586.51 720.49 586.69 711.20 585.92 C 711.26 569.73 711.00 553.53 711.17 537.34 Z" />
<path fill="#eaeaec" opacity="1.00" d=" M 601.32 636.12 C 606.20 635.89 612.41 636.51 614.44 641.78 C 616.55 644.68 614.80 648.31 612.69 650.65 C 609.87 654.06 604.99 652.37 601.17 652.73 C 601.08 647.19 601.00 641.65 601.32 636.12 Z" />
<path fill="#eaeaec" opacity="1.00" d=" M 701.14 636.14 C 705.25 636.16 710.39 635.19 713.31 638.88 C 715.68 642.11 715.61 647.77 711.93 650.07 C 708.95 652.67 704.70 651.31 701.13 651.55 C 701.10 646.41 701.09 641.27 701.14 636.14 Z" />
</g>
<g id="#1ca095ff">
<path fill="#1ca095" opacity="1.00" d=" M 539.42 62.43 C 545.70 61.26 552.75 61.16 558.29 64.79 C 561.11 66.87 563.58 69.43 565.86 72.09 C 570.34 77.94 572.37 85.20 574.29 92.20 C 576.29 98.97 575.37 106.07 575.56 113.01 C 575.97 121.44 572.71 129.55 573.28 137.99 C 572.21 150.24 579.08 161.02 584.59 171.37 C 588.20 177.66 590.59 184.69 590.99 191.96 C 591.49 204.56 591.53 217.51 587.43 229.60 C 586.19 233.47 583.89 237.08 580.56 239.46 C 576.61 241.57 572.05 241.95 567.70 242.65 C 556.26 244.08 545.12 247.16 533.88 249.63 C 513.59 253.66 493.62 259.11 473.38 263.39 C 461.18 266.05 449.17 269.53 436.90 271.90 C 424.01 274.78 411.02 277.37 398.38 281.27 C 392.48 283.03 385.81 284.98 379.92 282.13 C 368.74 276.89 360.80 266.93 354.23 256.79 C 345.67 243.42 340.10 228.34 336.11 213.04 C 332.58 200.78 330.61 188.11 329.45 175.42 C 328.21 168.01 329.07 160.47 328.78 153.00 C 328.42 142.97 329.38 132.84 332.42 123.25 C 334.52 117.09 338.50 110.67 345.37 109.29 C 366.90 103.63 388.74 99.23 410.24 93.44 C 432.50 88.55 454.50 82.60 476.69 77.41 C 497.45 71.83 518.46 67.20 539.42 62.43 M 352.45 122.46 C 349.94 123.46 348.38 125.81 347.04 128.03 C 343.36 134.33 342.56 141.74 341.92 148.87 C 340.79 156.22 341.11 163.68 342.06 171.02 C 342.60 186.21 346.53 201.00 350.41 215.62 C 352.54 223.87 356.17 231.61 359.58 239.40 C 361.85 244.56 364.70 249.45 367.85 254.13 C 370.24 257.66 372.57 261.36 376.05 263.94 C 379.50 266.47 383.43 269.17 387.94 268.72 C 393.55 268.78 397.72 263.34 397.75 258.03 C 398.83 246.39 393.95 235.47 390.19 224.74 C 381.83 204.73 369.94 186.13 364.29 165.03 C 362.40 157.18 361.57 149.10 361.19 141.05 C 360.86 135.65 361.99 130.03 360.30 124.79 C 359.55 121.29 355.10 121.98 352.45 122.46 Z" />
<path fill="#1ca095" opacity="1.00" d=" M 217.48 134.75 C 225.86 133.52 234.24 135.00 242.56 135.94 C 255.20 138.36 267.74 142.35 278.61 149.37 C 290.44 156.44 300.95 165.71 309.04 176.88 C 313.98 184.26 319.11 191.70 321.86 200.24 C 328.01 214.98 330.68 231.18 329.09 247.10 C 328.73 259.76 324.55 271.94 319.28 283.33 C 312.84 295.86 303.41 306.77 292.13 315.18 C 273.65 329.17 249.95 335.44 226.95 334.15 C 219.48 333.21 211.90 332.52 204.68 330.25 C 190.75 325.83 177.28 319.35 166.03 309.90 C 149.85 297.26 138.77 278.95 132.57 259.56 C 127.52 240.91 127.01 220.86 132.25 202.20 C 135.97 190.66 141.41 179.55 149.12 170.13 C 154.73 162.13 162.43 155.91 170.39 150.39 C 184.20 140.82 200.85 136.02 217.48 134.75 M 214.86 142.88 C 198.88 143.87 183.17 149.74 170.36 159.31 C 156.55 169.21 146.27 183.79 140.93 199.87 C 137.62 212.04 135.43 224.86 137.44 237.45 C 138.66 248.17 141.35 258.84 146.60 268.33 C 150.51 276.61 155.74 284.30 162.45 290.57 C 176.19 304.66 195.71 312.44 215.27 312.98 C 202.03 309.06 189.21 303.28 178.29 294.72 C 167.07 285.64 157.64 273.92 152.90 260.16 C 149.70 251.79 148.93 242.82 147.75 234.02 C 147.51 231.00 147.55 227.97 147.72 224.95 C 148.77 215.31 149.90 205.49 153.69 196.47 C 157.57 187.14 162.83 178.21 170.16 171.16 C 181.71 158.98 197.15 151.12 213.16 146.59 C 218.81 145.01 224.68 144.36 230.29 142.61 C 225.15 141.98 219.96 142.03 214.86 142.88 M 238.71 155.82 C 223.16 157.36 207.70 163.35 196.77 174.79 C 188.49 182.63 182.49 192.90 179.96 204.04 C 175.77 225.58 180.99 248.99 194.98 266.05 C 200.92 272.52 207.32 278.85 215.26 282.83 C 224.44 287.50 234.54 291.23 244.99 290.74 C 250.41 290.60 255.90 291.14 261.24 290.01 C 280.49 286.21 298.42 274.24 307.62 256.66 C 312.30 247.20 314.99 236.60 314.47 226.00 C 315.31 210.96 309.83 196.04 301.07 183.95 C 290.44 169.75 274.19 159.78 256.68 156.86 C 250.74 156.00 244.71 154.80 238.71 155.82 Z" />
<path fill="#1ca095" opacity="1.00" d=" M 581.78 142.28 C 595.85 141.77 609.41 146.81 622.36 151.77 C 642.92 160.62 661.27 174.15 676.60 190.40 C 696.22 210.90 711.62 235.26 722.82 261.29 C 729.59 276.10 733.58 291.97 736.96 307.84 C 739.40 322.09 739.60 336.64 738.82 351.05 C 738.15 364.23 734.54 377.03 730.52 389.53 C 727.29 399.63 722.10 408.92 717.25 418.31 C 708.82 432.99 698.80 446.83 686.93 458.93 C 669.21 477.81 645.76 492.31 619.85 496.03 C 597.98 499.65 574.28 496.74 555.34 484.65 C 541.08 475.75 530.25 462.31 522.57 447.50 C 517.21 436.55 512.60 425.25 508.07 413.93 C 500.68 396.62 489.95 380.70 476.44 367.57 C 466.48 357.96 454.63 350.27 441.60 345.53 C 428.94 341.21 415.17 340.81 402.05 343.00 C 385.59 346.21 370.28 354.64 358.42 366.44 C 351.06 374.25 345.27 383.60 341.77 393.75 C 339.25 402.95 337.85 412.71 339.72 422.17 C 341.24 435.55 347.04 447.83 351.93 460.21 C 355.65 467.79 359.10 475.51 362.88 483.06 C 368.27 492.18 372.59 501.86 377.97 510.99 C 386.74 528.85 396.86 546.02 404.90 564.24 C 417.01 590.31 426.22 618.82 424.26 647.91 C 422.47 659.99 420.17 672.62 412.95 682.79 C 403.96 695.00 390.77 703.50 376.87 709.14 C 363.10 715.58 347.98 718.41 333.00 720.32 C 327.65 720.20 322.38 721.22 317.06 721.30 C 311.34 720.37 305.48 720.78 299.81 719.55 C 290.46 717.78 281.07 715.17 273.07 709.85 C 259.84 702.17 249.66 690.12 242.08 676.99 C 237.14 667.06 232.62 656.83 229.95 646.03 C 224.24 623.97 221.23 601.09 222.45 578.29 C 229.73 579.55 237.10 579.64 244.47 579.50 C 244.66 586.77 243.80 594.13 245.13 601.34 C 246.74 620.56 249.85 640.12 258.33 657.65 C 261.95 665.84 267.24 673.18 273.14 679.87 C 279.48 685.77 286.79 690.81 294.92 693.92 C 305.14 697.55 316.16 699.02 326.98 698.15 C 341.49 696.17 356.17 693.73 369.62 687.67 C 382.38 682.57 393.97 673.07 398.96 659.96 C 402.13 649.92 403.48 639.11 401.33 628.71 C 398.49 606.28 388.96 585.51 379.86 565.06 C 373.01 550.52 365.10 536.51 357.74 522.24 C 352.40 513.37 348.63 503.67 343.20 494.84 C 334.60 478.10 326.57 460.93 321.15 442.86 C 319.14 435.66 317.94 428.26 316.78 420.89 C 316.45 414.64 316.48 408.35 316.68 402.09 C 318.19 392.44 320.22 382.66 324.92 373.99 C 332.27 359.21 343.70 346.63 357.15 337.16 C 368.35 329.14 381.05 323.02 394.71 320.68 C 403.81 319.35 413.11 317.44 422.28 319.38 C 432.62 320.13 442.90 322.13 452.71 325.50 C 465.94 330.49 477.89 338.31 488.81 347.19 C 500.68 357.41 510.45 369.83 518.85 382.99 C 532.39 404.90 537.22 431.32 553.10 451.92 C 557.63 456.73 562.09 461.81 567.90 465.13 C 587.84 477.39 613.76 477.38 634.84 468.00 C 651.34 461.05 665.31 449.37 677.31 436.29 C 690.96 420.94 701.50 402.91 708.45 383.60 C 711.76 373.63 713.85 363.30 715.33 352.92 C 715.60 348.87 715.49 344.80 716.17 340.79 C 716.96 335.85 715.50 330.97 715.54 326.04 C 715.49 323.47 715.49 320.89 715.01 318.37 C 712.73 304.53 709.93 290.61 704.33 277.68 C 697.60 259.87 687.97 243.34 677.47 227.53 C 662.18 206.14 643.27 186.73 619.98 174.12 C 614.20 171.34 608.13 168.93 601.76 167.98 C 599.08 167.53 596.25 167.41 593.81 166.10 C 592.13 164.28 591.40 161.83 590.28 159.66 C 587.65 153.76 583.49 148.59 581.78 142.28 Z" />
<path fill="#1ca095" opacity="1.00" d=" M 245.35 204.42 C 246.82 204.36 248.29 204.32 249.77 204.29 C 249.97 208.03 250.13 211.77 250.40 215.50 C 249.51 215.47 247.74 215.42 246.85 215.39 C 246.27 211.74 245.49 208.12 245.35 204.42 Z" />
<path fill="#1ca095" opacity="1.00" d=" M 249.33 217.75 C 253.63 216.59 258.27 220.66 258.39 225.01 C 259.26 230.30 254.68 236.45 249.02 235.48 C 243.02 235.13 239.16 227.96 241.64 222.67 C 242.86 219.54 246.54 218.85 249.33 217.75 Z" />
<path fill="#1ca095" opacity="1.00" d=" M 250.98 236.42 C 254.91 242.86 252.55 250.51 254.00 257.50 C 254.78 261.73 254.62 266.10 253.93 270.33 C 253.44 263.70 252.53 257.12 251.43 250.56 C 250.79 245.89 249.46 241.07 250.98 236.42 Z" />
<path fill="#1ca095" opacity="1.00" d=" M 207.00 339.59 C 215.40 343.56 224.68 345.79 234.00 345.35 C 243.88 345.85 253.66 343.61 262.74 339.82 C 259.93 350.70 257.64 361.75 256.68 372.96 C 256.72 381.06 256.03 389.28 257.78 397.27 C 258.72 402.89 261.26 408.04 263.48 413.23 C 244.67 405.94 223.02 404.98 204.29 413.04 C 206.80 410.12 209.07 406.90 210.12 403.15 C 213.12 393.01 214.36 382.19 212.46 371.72 C 211.42 360.88 209.02 350.26 207.00 339.59 Z" />
<path fill="#1ca095" opacity="1.00" d=" M 268.84 343.26 C 273.06 344.06 277.93 342.79 281.64 345.38 C 286.42 350.18 285.93 357.56 285.36 363.77 C 284.34 368.80 282.77 374.75 277.80 377.26 C 273.00 378.02 268.25 375.96 263.40 376.23 C 262.49 364.98 265.00 353.78 268.84 343.26 Z" />
<path fill="#1ca095" opacity="1.00" d=" M 227.42 415.51 C 234.88 415.08 242.97 414.28 249.75 418.12 C 254.50 420.54 258.46 424.44 260.78 429.25 C 264.08 435.60 266.05 442.56 267.28 449.58 C 270.54 467.26 271.88 485.22 274.25 503.02 C 274.41 512.69 276.78 522.34 274.98 532.01 C 274.08 541.75 272.12 552.01 265.84 559.84 C 258.38 568.04 246.61 570.33 236.00 570.61 C 225.47 570.21 214.65 567.86 205.68 562.12 C 200.25 558.43 196.80 552.49 195.06 546.27 C 191.65 533.87 191.93 520.87 192.46 508.14 C 193.53 502.12 193.13 495.96 194.21 489.94 C 195.27 480.21 197.23 470.61 198.92 460.98 C 201.26 449.01 203.29 436.75 208.63 425.66 C 212.29 418.87 220.07 415.90 227.42 415.51 Z" />
<path fill="#1ca095" opacity="1.00" d=" M 996.69 559.41 C 1000.32 559.35 1003.95 559.35 1007.59 559.35 C 1009.67 566.52 1011.80 573.67 1013.86 580.85 C 1015.99 573.69 1018.41 566.61 1020.27 559.37 C 1023.85 559.34 1027.43 559.33 1031.02 559.40 C 1031.52 570.48 1034.72 581.30 1034.66 592.41 C 1032.05 592.37 1029.45 592.34 1026.85 592.29 C 1025.55 585.54 1024.18 578.77 1024.01 571.88 C 1021.81 578.72 1019.82 585.61 1017.54 592.42 C 1015.10 592.40 1012.66 592.40 1010.24 592.42 C 1008.16 586.72 1006.77 580.77 1004.08 575.32 C 1002.28 580.82 1001.96 586.65 1000.86 592.31 C 998.12 592.37 995.38 592.38 992.65 592.38 C 993.24 581.31 995.76 570.45 996.69 559.41 Z" />
<path fill="#1ca095" opacity="1.00" d=" M 1049.44 559.44 C 1052.86 559.41 1056.29 559.40 1059.73 559.40 C 1064.26 570.23 1068.95 581.06 1072.32 592.33 C 1069.43 592.34 1066.56 592.34 1063.68 592.33 C 1062.66 590.33 1061.99 588.13 1060.58 586.37 C 1056.52 585.95 1052.44 586.33 1048.38 586.31 C 1047.37 588.36 1046.38 590.41 1045.29 592.41 C 1042.53 592.37 1039.78 592.35 1037.04 592.31 C 1040.34 581.05 1045.30 570.39 1049.44 559.44 M 1050.86 579.24 C 1053.51 579.29 1056.17 579.28 1058.84 579.25 C 1057.61 575.85 1056.44 572.41 1054.85 569.16 C 1052.18 571.71 1051.99 575.88 1050.86 579.24 Z" />
<path fill="#1ca095" opacity="1.00" d=" M 1069.15 559.43 C 1072.26 559.40 1075.38 559.40 1078.50 559.42 C 1080.41 563.57 1082.67 567.54 1085.20 571.35 C 1087.66 567.57 1089.67 563.52 1091.42 559.38 C 1094.52 559.38 1097.63 559.41 1100.73 559.59 C 1097.92 565.61 1094.35 571.21 1090.96 576.91 C 1087.95 581.46 1089.39 587.15 1088.93 592.26 C 1086.29 592.30 1083.66 592.30 1081.04 592.28 C 1080.66 588.09 1081.54 583.71 1080.33 579.64 C 1076.75 572.83 1072.36 566.45 1069.15 559.43 Z" />
<path fill="#1ca095" opacity="1.00" d=" M 803.46 707.23 C 804.03 704.81 805.34 702.66 807.01 700.84 C 810.37 707.02 811.24 714.13 813.49 720.72 C 819.49 739.15 823.84 758.10 830.30 776.37 C 832.53 766.67 834.98 757.02 836.79 747.24 C 841.65 746.99 846.63 747.66 851.40 746.48 C 854.70 741.27 854.41 733.85 859.66 730.01 C 863.14 738.67 866.43 747.40 869.76 756.12 C 871.08 753.34 871.97 750.32 873.85 747.85 C 875.74 747.01 877.91 747.34 879.94 747.24 C 909.63 747.37 939.31 747.71 969.00 747.75 C 972.67 747.77 976.32 748.25 979.99 748.25 C 1008.33 748.25 1036.66 748.18 1065.00 748.29 C 1069.39 748.25 1073.79 748.31 1078.17 748.67 C 1068.50 750.04 1058.67 748.70 1049.02 750.36 C 991.36 750.54 933.70 750.39 876.04 750.38 C 874.09 754.42 872.40 758.58 870.66 762.71 C 870.15 762.63 869.11 762.48 868.59 762.40 C 865.31 754.65 862.31 746.79 859.07 739.04 C 856.88 743.04 856.49 748.20 852.90 751.31 C 848.74 751.74 844.54 751.46 840.37 751.50 C 838.32 761.82 836.01 772.09 833.63 782.33 C 833.08 784.92 832.04 787.36 830.84 789.70 C 829.47 788.12 828.00 786.52 827.53 784.43 C 820.51 760.54 813.77 736.55 806.93 712.60 C 804.43 717.04 803.37 722.06 801.99 726.91 C 799.79 734.74 797.92 742.67 795.16 750.33 C 748.42 750.38 701.68 750.47 654.95 750.31 C 645.30 748.72 635.46 749.96 625.81 748.37 C 648.88 748.23 671.94 748.23 695.01 748.25 C 727.58 747.22 760.17 747.43 792.76 747.08 C 796.96 733.97 799.87 720.51 803.46 707.23 Z" />
</g>
<g id="#ac0567ff">
<path fill="#ac0567" opacity="1.00" d=" M 813.00 460.74 C 820.89 459.71 828.63 457.49 836.62 457.24 C 836.67 502.36 836.71 547.47 836.60 592.59 C 825.60 592.62 814.60 592.67 803.60 592.53 C 803.70 559.53 803.49 526.52 803.65 493.51 C 795.75 494.18 787.84 494.90 780.03 496.23 C 780.09 486.15 779.80 476.07 780.14 465.99 C 791.05 464.00 802.06 462.57 813.00 460.74 Z" />
<path fill="#ac0567" opacity="1.00" d=" M 854.50 458.51 C 884.85 458.34 915.20 458.48 945.54 458.47 C 945.57 467.67 945.61 476.87 945.59 486.07 C 945.73 488.41 944.62 490.51 943.60 492.52 C 940.63 498.05 938.18 503.83 935.24 509.37 C 931.53 516.47 928.73 524.01 924.86 531.03 C 921.19 537.60 918.47 544.65 915.10 551.38 C 908.29 565.01 901.83 578.80 895.29 592.56 C 883.80 592.64 872.31 592.72 860.82 592.52 C 877.29 557.92 893.45 523.14 909.88 488.50 C 891.42 488.30 872.95 488.60 854.49 488.39 C 854.47 478.43 854.46 468.47 854.50 458.51 Z" />
<path fill="#ac0567" opacity="1.00" d=" M 568.40 532.30 C 574.90 530.85 581.70 532.80 587.67 535.40 C 598.04 540.23 603.32 552.00 603.39 562.98 C 602.51 570.43 600.12 578.20 594.47 583.45 C 585.10 592.39 570.03 594.42 558.64 588.23 C 548.93 583.05 542.53 572.03 543.28 560.98 C 543.05 553.86 546.19 547.02 550.62 541.60 C 555.04 536.28 561.72 533.46 568.40 532.30 M 569.36 537.51 C 560.40 539.18 551.84 545.91 550.22 555.22 C 548.85 562.99 549.45 571.94 554.92 578.10 C 563.45 588.49 581.02 588.87 590.29 579.31 C 593.83 575.04 596.95 569.81 596.73 564.07 C 596.77 560.05 597.06 555.85 595.19 552.16 C 591.27 542.11 580.05 535.55 569.36 537.51 Z" />
<path fill="#ac0567" opacity="1.00" d=" M 615.62 533.05 C 623.80 531.14 632.64 531.04 640.40 534.62 C 644.71 536.82 648.73 540.92 648.88 546.02 C 648.95 549.22 649.18 552.48 648.61 555.66 C 647.14 561.19 642.34 564.86 637.34 567.07 C 643.05 575.24 649.72 582.69 655.88 590.51 C 653.34 590.55 650.80 590.57 648.27 590.62 C 642.42 583.18 636.23 576.00 630.64 568.38 C 627.84 568.38 625.05 568.39 622.26 568.36 C 622.23 575.76 622.32 583.17 622.18 590.58 C 620.01 590.58 617.84 590.60 615.68 590.65 C 615.40 571.45 615.50 552.25 615.62 533.05 M 622.27 537.34 C 622.29 546.08 622.17 554.82 622.35 563.57 C 626.70 563.51 631.11 563.39 635.34 562.23 C 639.24 561.08 641.60 557.32 642.64 553.60 C 644.33 549.57 642.47 545.13 640.19 541.76 C 635.58 536.89 628.45 537.07 622.27 537.34 Z" />
<path fill="#ac0567" opacity="1.00" d=" M 705.53 533.26 C 710.88 532.01 716.40 531.19 721.89 531.99 C 729.92 533.07 738.66 534.34 744.70 540.30 C 753.12 547.67 753.85 560.24 751.44 570.46 C 748.58 583.25 735.32 590.86 722.97 591.63 C 717.15 591.56 711.19 592.31 705.53 590.67 C 705.47 571.53 705.64 552.40 705.53 533.26 M 711.17 537.34 C 711.00 553.53 711.26 569.73 711.20 585.92 C 720.49 586.69 730.67 586.51 738.36 580.48 C 748.42 571.26 750.16 552.99 739.25 543.69 C 731.45 537.39 720.76 536.85 711.17 537.34 Z" />
<path fill="#ac0567" opacity="1.00" d=" M 466.28 533.16 C 468.18 533.01 470.10 532.89 472.02 532.80 C 475.39 543.79 478.19 554.95 480.88 566.13 C 482.43 572.29 483.76 578.53 486.08 584.46 C 490.26 567.17 494.42 549.87 499.10 532.71 C 501.50 532.86 503.91 533.01 506.31 533.29 C 509.99 550.18 514.29 566.93 518.63 583.65 C 520.01 581.62 520.24 579.11 520.95 576.83 C 522.76 568.66 525.32 560.68 527.43 552.59 C 529.20 546.05 530.54 539.40 532.47 532.91 C 534.32 532.88 536.17 532.88 538.03 532.89 C 537.53 538.35 535.45 543.47 534.03 548.73 C 530.32 562.70 526.72 576.71 522.67 590.59 C 520.00 590.58 517.34 590.57 514.68 590.54 C 512.16 581.40 510.15 572.13 507.99 562.90 C 506.41 556.04 504.22 549.33 503.01 542.39 C 502.63 542.34 501.88 542.22 501.51 542.17 C 498.27 558.47 493.47 574.40 489.73 590.59 C 486.98 590.53 484.24 590.53 481.51 590.56 C 476.96 571.29 470.95 552.40 466.28 533.16 Z" />
<path fill="#ac0567" opacity="1.00" d=" M 664.43 532.87 C 666.25 532.84 668.07 532.83 669.91 532.80 C 670.29 550.18 669.94 567.57 670.11 584.96 C 678.60 585.24 687.11 584.96 695.61 585.11 C 695.55 586.91 695.52 588.73 695.51 590.55 C 685.15 590.55 674.79 590.54 664.43 590.57 C 664.42 571.33 664.44 552.10 664.43 532.87 Z" />
<path fill="#ac0567" opacity="1.00" d=" M 951.16 547.31 C 954.11 547.29 957.06 547.29 960.01 547.28 C 960.11 552.17 960.05 557.06 960.17 561.95 C 963.22 561.44 966.41 559.81 969.47 561.22 C 972.01 562.12 975.12 562.94 976.34 565.63 C 977.89 568.48 977.82 571.80 977.84 574.96 C 977.78 580.13 977.88 585.31 977.69 590.48 C 974.82 590.44 971.97 590.43 969.12 590.47 C 968.26 583.88 969.55 577.14 968.26 570.62 C 966.09 568.59 962.77 569.82 960.10 569.49 C 960.04 576.48 960.29 583.48 959.86 590.47 C 956.97 590.42 954.08 590.43 951.20 590.48 C 951.01 576.09 951.12 561.70 951.16 547.31 Z" />
<path fill="#ac0567" opacity="1.00" d=" M 927.84 554.88 C 930.75 554.87 933.67 554.88 936.59 554.91 C 936.64 557.15 936.68 559.40 936.73 561.65 C 939.29 561.69 941.85 561.70 944.42 561.72 C 944.45 564.30 944.47 566.89 944.52 569.48 C 941.91 569.51 939.31 569.51 936.73 569.58 C 936.77 574.12 935.68 579.27 939.17 582.91 C 941.28 582.44 943.36 581.88 945.46 581.34 C 945.57 583.93 945.61 586.53 945.73 589.13 C 941.17 591.03 935.33 591.75 931.01 588.97 C 925.58 584.00 928.34 576.02 927.71 569.60 C 926.24 569.52 924.78 569.44 923.34 569.37 C 923.34 566.95 923.33 564.53 923.32 562.11 C 924.77 561.88 926.23 561.69 927.71 561.51 C 927.73 559.30 927.77 557.08 927.84 554.88 Z" />
<path fill="#ac0567" opacity="1.00" d=" M 503.48 624.60 C 508.50 624.59 513.52 624.57 518.55 624.58 C 518.46 643.92 518.59 663.25 518.52 682.58 C 513.51 682.63 508.49 682.62 503.49 682.58 C 503.39 674.98 503.64 667.37 503.32 659.77 C 495.97 659.67 488.61 659.67 481.26 659.78 C 480.53 667.36 481.02 674.99 480.79 682.59 C 475.95 682.62 471.11 682.65 466.27 682.53 C 466.28 663.21 466.19 643.90 466.30 624.58 C 471.15 624.59 476.01 624.57 480.86 624.60 C 480.96 632.12 480.63 639.66 481.09 647.17 C 488.54 647.20 495.99 647.21 503.44 647.20 C 503.52 639.67 503.47 632.13 503.48 624.60 Z" />
<path fill="#ac0567" opacity="1.00" d=" M 524.14 624.62 C 529.54 624.56 534.94 624.53 540.34 624.63 C 544.16 632.26 548.71 639.50 552.26 647.28 C 556.97 640.23 560.03 632.28 563.82 624.73 C 569.28 624.47 574.76 624.52 580.23 624.68 C 574.01 635.34 568.26 646.27 561.83 656.81 C 560.53 658.99 559.42 661.39 559.49 663.99 C 559.40 670.20 559.62 676.42 559.37 682.64 C 554.68 682.59 550.00 682.60 545.32 682.62 C 545.25 677.05 545.36 671.49 545.31 665.93 C 545.43 660.78 542.18 656.53 539.87 652.21 C 537.48 647.63 534.75 643.24 532.24 638.74 C 529.48 634.06 527.27 629.07 524.14 624.62 Z" />
<path fill="#ac0567" opacity="1.00" d=" M 586.70 625.05 C 593.37 623.45 600.24 623.95 607.03 623.85 C 612.06 623.77 617.32 624.70 621.57 627.53 C 631.99 634.66 633.00 652.09 623.10 660.09 C 617.19 665.41 608.68 665.95 601.13 665.31 C 601.07 671.08 601.25 676.85 600.94 682.62 C 596.21 682.65 591.48 682.62 586.75 682.61 C 586.59 663.42 586.72 644.23 586.70 625.05 M 601.32 636.12 C 601.00 641.65 601.08 647.19 601.17 652.73 C 604.99 652.37 609.87 654.06 612.69 650.65 C 614.80 648.31 616.55 644.68 614.44 641.78 C 612.41 636.51 606.20 635.89 601.32 636.12 Z" />
<path fill="#ac0567" opacity="1.00" d=" M 686.69 624.99 C 690.37 623.96 694.19 623.76 698.00 623.87 C 704.78 624.03 711.87 623.02 718.31 625.70 C 723.41 627.86 728.07 632.12 729.24 637.71 C 730.91 642.89 729.91 648.65 727.32 653.34 C 725.21 656.32 722.28 658.58 719.66 661.09 C 724.80 668.20 730.04 675.26 735.01 682.50 C 729.40 682.68 723.80 682.57 718.19 682.62 C 714.18 677.27 710.66 671.59 706.97 666.03 C 705.89 663.82 703.28 663.97 701.23 663.56 C 700.97 669.91 701.26 676.27 700.99 682.63 C 696.23 682.59 691.48 682.63 686.73 682.59 C 686.61 663.39 686.69 644.19 686.69 624.99 M 701.14 636.14 C 701.09 641.27 701.10 646.41 701.13 651.55 C 704.70 651.31 708.95 652.67 711.93 650.07 C 715.61 647.77 715.68 642.11 713.31 638.88 C 710.39 635.19 705.25 636.16 701.14 636.14 Z" />
<path fill="#ac0567" opacity="1.00" d=" M 901.17 636.22 C 902.70 630.06 908.08 625.48 914.21 624.24 C 921.82 623.06 929.83 623.60 936.68 627.40 C 936.68 632.18 936.64 636.95 936.71 641.73 C 931.31 637.49 924.39 634.80 917.49 636.43 C 915.76 637.17 914.56 639.12 914.37 640.97 C 915.33 645.52 920.62 645.64 924.22 646.84 C 930.77 648.38 938.13 652.13 939.62 659.33 C 940.52 664.89 940.57 671.27 936.88 675.90 C 933.53 680.05 928.28 682.40 923.03 682.88 C 916.02 683.92 908.67 682.91 902.35 679.65 C 902.09 674.97 902.15 670.29 902.27 665.62 C 905.79 667.31 909.14 669.57 913.01 670.38 C 917.29 670.60 922.11 671.37 925.54 668.16 C 925.51 666.36 925.52 664.56 925.56 662.77 C 919.02 659.09 910.87 658.94 905.02 653.96 C 900.42 649.39 899.96 642.25 901.17 636.22 Z" />
<path fill="#ac0567" opacity="1.00" d=" M 994.40 624.39 C 1003.35 622.84 1013.39 623.43 1020.85 629.16 C 1034.81 639.12 1036.20 661.45 1024.96 673.95 C 1018.22 680.72 1008.43 684.36 998.90 683.07 C 989.35 682.42 980.26 676.64 975.87 668.10 C 972.00 661.95 971.60 654.38 972.51 647.37 C 974.76 636.48 983.41 626.84 994.40 624.39 M 1000.43 636.60 C 997.08 637.32 993.64 638.63 991.28 641.22 C 986.20 647.55 986.06 657.07 990.12 663.95 C 992.22 667.61 996.47 669.11 1000.32 670.20 C 1003.42 671.13 1006.52 669.57 1009.34 668.41 C 1013.72 666.43 1016.12 661.89 1017.23 657.42 C 1018.80 652.11 1016.83 646.45 1013.93 641.97 C 1010.91 637.92 1005.33 635.92 1000.43 636.60 Z" />
<path fill="#ac0567" opacity="1.00" d=" M 637.85 624.57 C 650.40 624.58 662.95 624.62 675.50 624.57 C 675.55 628.76 675.57 632.95 675.47 637.15 C 667.71 637.21 659.95 637.08 652.19 637.24 C 652.19 640.54 652.20 643.84 652.25 647.15 C 659.28 647.23 666.31 647.19 673.33 647.19 C 673.35 651.24 673.36 655.29 673.35 659.35 C 666.32 659.36 659.29 659.36 652.27 659.41 C 652.21 662.72 652.18 666.04 652.19 669.36 C 660.35 669.46 668.51 669.40 676.68 669.40 C 676.66 673.81 676.66 678.22 676.63 682.64 C 663.71 682.59 650.79 682.63 637.88 682.59 C 637.73 663.25 637.83 643.91 637.85 624.57 Z" />
<path fill="#ac0567" opacity="1.00" d=" M 734.47 624.60 C 750.75 624.54 767.03 624.59 783.32 624.58 C 783.35 628.77 783.31 632.97 783.31 637.18 C 777.76 637.25 772.22 637.09 766.68 637.25 C 766.61 652.38 766.74 667.50 766.60 682.63 C 761.75 682.61 756.91 682.62 752.07 682.61 C 751.34 667.49 752.11 652.34 751.83 637.23 C 746.05 637.16 740.26 637.21 734.48 637.14 C 734.40 632.96 734.46 628.78 734.47 624.60 Z" />
<path fill="#ac0567" opacity="1.00" d=" M 791.13 624.57 C 803.71 624.58 816.30 624.56 828.89 624.59 C 828.87 628.78 828.90 632.97 828.86 637.17 C 821.08 637.24 813.29 637.12 805.51 637.25 C 805.55 640.47 805.55 643.70 805.55 646.94 C 812.58 647.45 819.63 647.10 826.68 647.21 C 826.69 651.26 826.70 655.31 826.71 659.36 C 819.69 659.42 812.67 659.33 805.65 659.41 C 805.55 662.73 805.56 666.05 805.59 669.38 C 813.70 669.45 821.81 669.38 829.92 669.37 C 830.07 673.79 830.07 678.22 829.92 682.64 C 817.00 682.59 804.08 682.63 791.16 682.61 C 791.06 663.26 791.13 643.92 791.13 624.57 Z" />
<path fill="#ac0567" opacity="1.00" d=" M 840.01 624.60 C 844.95 624.68 849.93 624.21 854.85 624.80 C 858.29 628.63 860.33 633.51 863.39 637.65 C 868.31 644.50 872.36 651.95 877.55 658.61 C 878.08 647.27 877.65 635.91 877.81 624.56 C 882.61 624.54 887.41 624.54 892.21 624.56 C 892.19 643.93 892.36 663.29 892.13 682.66 C 887.60 682.64 883.07 682.64 878.55 682.58 C 870.52 671.07 862.43 659.59 854.55 647.98 C 854.28 659.51 854.60 671.05 854.40 682.59 C 849.60 682.65 844.81 682.63 840.02 682.60 C 839.97 663.27 840.03 643.93 840.01 624.60 Z" />
<path fill="#ac0567" opacity="1.00" d=" M 948.90 624.55 C 953.70 624.54 958.51 624.53 963.33 624.57 C 963.38 643.93 963.41 663.29 963.28 682.65 C 958.53 682.63 953.78 682.62 949.04 682.62 C 948.67 663.27 948.99 643.91 948.90 624.55 Z" />
<path fill="#ac0567" opacity="1.00" d=" M 1041.25 624.57 C 1046.23 624.50 1051.22 624.55 1056.22 624.50 C 1064.20 636.04 1071.30 648.18 1079.65 659.47 C 1079.86 647.83 1079.65 636.18 1079.76 624.54 C 1084.27 624.50 1088.80 624.52 1093.33 624.54 C 1093.30 643.91 1093.49 663.28 1093.28 682.66 C 1088.93 682.62 1084.59 682.62 1080.25 682.66 C 1071.71 671.60 1064.61 659.49 1055.85 648.61 C 1055.23 659.93 1055.68 671.29 1055.58 682.63 C 1050.80 682.62 1046.03 682.62 1041.26 682.63 C 1041.19 663.28 1041.25 643.92 1041.25 624.57 Z" />
<path fill="#ac0567" opacity="1.00" d=" M 465.66 716.41 C 474.08 713.85 483.10 714.67 491.60 716.44 C 499.64 718.31 507.71 723.16 510.92 731.11 C 515.42 741.71 513.83 754.75 506.93 763.98 C 500.92 770.77 491.85 774.10 482.97 774.79 C 477.19 774.97 471.28 775.28 465.72 773.37 C 465.70 754.38 465.82 735.40 465.66 716.41 M 472.24 720.52 C 472.21 736.77 472.20 753.02 472.25 769.27 C 478.67 769.38 485.30 769.81 491.42 767.44 C 497.59 765.67 502.33 760.69 505.05 755.03 C 507.67 749.79 506.55 743.74 506.61 738.12 C 505.48 732.70 502.09 727.52 497.19 724.77 C 489.61 720.57 480.72 719.99 472.24 720.52 Z" />
<path fill="#ac0567" opacity="1.00" d=" M 539.01 718.04 C 540.13 714.37 544.86 716.55 547.69 716.10 C 551.62 727.63 556.77 738.69 560.88 750.16 C 563.81 758.07 567.30 765.76 570.24 773.67 C 568.00 773.69 565.78 773.70 563.56 773.70 C 561.75 768.62 559.70 763.63 558.17 758.47 C 548.57 757.93 538.95 758.28 529.35 758.24 C 527.77 763.47 525.67 768.52 523.63 773.58 C 521.65 773.63 519.67 773.68 517.70 773.73 C 521.14 762.32 526.32 751.55 530.30 740.33 C 533.00 732.82 536.24 725.52 539.01 718.04 M 543.42 721.09 C 541.72 725.55 540.10 730.05 538.50 734.56 C 536.40 740.60 533.38 746.31 531.78 752.52 C 539.77 752.80 547.77 752.66 555.77 752.62 C 551.26 742.26 548.09 731.38 543.42 721.09 Z" />
<path fill="#ac0567" opacity="1.00" d=" M 567.54 716.06 C 569.68 716.04 571.82 716.04 573.97 716.05 C 579.67 725.77 585.39 735.48 591.32 745.06 C 597.41 735.52 602.69 725.48 608.95 716.05 C 611.17 716.03 613.39 716.04 615.62 716.02 C 609.02 726.10 603.09 736.61 596.74 746.85 C 595.86 748.47 594.45 749.98 594.47 751.94 C 594.32 759.17 594.50 766.41 594.46 773.65 C 592.39 773.68 590.32 773.72 588.26 773.77 C 588.14 767.15 588.33 760.53 588.22 753.92 C 588.27 748.32 583.89 744.28 581.48 739.62 C 577.09 731.61 571.67 724.21 567.54 716.06 Z" />
</g>
</svg>
